<svg xmlns="http://www.w3.org/2000/svg" width="37.294" height="37.295" viewBox="0 0 37.294 37.295"><defs><style>.a{fill:#3b5999;}.b{fill:#fff;}</style></defs><path class="a" d="M32.633,0H4.662A4.666,4.666,0,0,0,0,4.662V32.633a4.667,4.667,0,0,0,4.662,4.662H32.633a4.668,4.668,0,0,0,4.662-4.662V4.662A4.667,4.667,0,0,0,32.633,0Z"/><path class="b" d="M20.655,16.155V11.493c0-1.287,1.044-1.165,2.331-1.165h2.331V4.5H20.655a6.991,6.991,0,0,0-6.993,6.993v4.662H9v5.827h4.662V34.8h6.993V21.982h3.5l2.331-5.827Z" transform="translate(4.985 2.493)"/></svg>