<svg xmlns="http://www.w3.org/2000/svg" xmlns:xlink="http://www.w3.org/1999/xlink" width="37.402" height="37.41" viewBox="0 0 37.402 37.41"><defs><style>.a{fill:url(#a);}.b{fill:#fff;}</style><linearGradient id="a" x1="-1.539" y1="-3.018" x2="-0.685" y2="-3.364" gradientUnits="objectBoundingBox"><stop offset="0" stop-color="#fd5"/><stop offset="0.5" stop-color="#ff543e"/><stop offset="1" stop-color="#c837ab"/></linearGradient></defs><path class="a" d="M2.37,2.559C-.561,5.6.039,8.837.039,18.661.039,26.819-1.385,35,6.065,36.923c2.326.6,22.938.6,25.261,0,3.1-.8,5.625-3.316,5.97-7.7.048-.612.048-20.489,0-21.113C36.928,3.431,34.051.738,30.261.192a33.55,33.55,0,0,0-5.5-.171C8.954.029,5.488-.675,2.37,2.559Z" transform="translate(0.07 0.038)"/><path class="b" d="M16.909,3.144c-5.642,0-11-.5-13.047,4.75-.845,2.169-.723,4.987-.723,9.021,0,3.54-.113,6.867.723,9.019,2.042,5.255,7.443,4.752,13.044,4.752,5.4,0,10.974.563,13.045-4.752.847-2.191.723-4.966.723-9.019,0-5.38.3-8.853-2.312-11.46C25.719,2.813,22.147,3.144,16.9,3.144ZM15.675,5.625C27.444,5.607,28.942,4.3,28.116,22.475,27.822,28.9,22.927,28.2,16.91,28.2c-10.971,0-11.286-.314-11.286-11.289,0-11.1.87-11.277,10.051-11.286Zm8.584,2.286a1.652,1.652,0,1,0,1.652,1.652A1.652,1.652,0,0,0,24.259,7.911Zm-7.35,1.932a7.071,7.071,0,1,0,7.069,7.072,7.072,7.072,0,0,0-7.069-7.072Zm0,2.482c6.068,0,6.076,9.181,0,9.181S10.833,12.324,16.909,12.324Z" transform="translate(1.844 1.794)"/></svg>