<svg xmlns="http://www.w3.org/2000/svg" width="30.301" height="37.305" viewBox="0 0 30.301 37.305"><defs><style>.a{fill:#f44336;}</style></defs><path class="a" d="M17.908,0C.334,0-1.156,18.814,7.065,22.447c.845.381.733-.084,1.461-2.865a.66.66,0,0,0-.159-.648C4.131,14.034,7.54,3.961,17.3,3.961c14.13,0,11.49,19.552,2.458,19.552a3.335,3.335,0,0,1-3.513-4.088c.665-2.693,1.967-5.588,1.967-7.529,0-4.892-7.288-4.166-7.288,2.315a7.841,7.841,0,0,0,.709,3.355s-2.345,9.473-2.78,11.243c-.5,2.033-.255,9.524.62,8.377.232-.3,3.066-4.346,3.86-7.269.289-1.064,1.475-5.384,1.475-5.384.782,1.411,3.035,2.592,5.436,2.592,7.142,0,12.3-6.278,12.3-14.068C32.526,5.588,26.134,0,17.908,0Z" transform="translate(-2.249)"/></svg>