<svg xmlns="http://www.w3.org/2000/svg" width="37.294" height="30.302" viewBox="0 0 37.294 30.302"><defs><style>.a{fill:#55acee;}</style></defs><path class="a" d="M33.49,10.8c0-.337-.012-.665-.028-.988a15.262,15.262,0,0,0,3.832-3.969v0a15.968,15.968,0,0,1-4.405,1.207,7.605,7.605,0,0,0,3.364-4.225,15.3,15.3,0,0,1-4.848,1.851A7.645,7.645,0,0,0,18.179,9.9a7.873,7.873,0,0,0,.177,1.744,21.646,21.646,0,0,1-15.76-8,7.646,7.646,0,0,0,2.35,10.219,7.558,7.558,0,0,1-3.454-.942V13a7.682,7.682,0,0,0,6.126,7.513,8.082,8.082,0,0,1-3.451.121,7.721,7.721,0,0,0,7.143,5.327,15.369,15.369,0,0,1-9.481,3.26A14.461,14.461,0,0,1,0,29.121a21.531,21.531,0,0,0,11.729,3.431C25.8,32.552,33.49,20.9,33.49,10.8Z" transform="translate(0 -2.25)"/></svg>