<svg xmlns="http://www.w3.org/2000/svg" xmlns:xlink="http://www.w3.org/1999/xlink" width="24.863" height="38.126" viewBox="0 0 24.863 38.126"><defs><style>.a{fill:#42423c;}.b{fill:#b7b7b2;}.c{fill:#afafaf;}.d,.i{opacity:0.3;}.af,.e{fill:#60605b;}.f{fill:url(#a);}.g{fill:#297770;}.h{fill:url(#b);}.i,.j,.k,.l,.m,.n,.o,.p,.q,.r,.s,.t,.u,.v,.w,.x,.y,.z{fill:#4c4c4c;}.j{opacity:0.28;}.k{opacity:0.26;}.l{opacity:0.25;}.m{opacity:0.23;}.n{opacity:0.21;}.o{opacity:0.19;}.p{opacity:0.18;}.q{opacity:0.16;}.r{opacity:0.14;}.s{opacity:0.12;}.t{opacity:0.11;}.u{opacity:0.09;}.v{opacity:0.07;}.w{opacity:0.05;}.x{opacity:0.04;}.y{opacity:0.02;}.z{opacity:0;}.aa{fill:#fff;}.ab{fill:#ededed;}.ac{opacity:0.8;}.ad{fill:#cfcfcf;}.ae{fill:url(#c);}.af{opacity:0.2;}.ag{fill:url(#d);}</style><linearGradient id="a" x1="0.5" y1="-0.027" x2="0.5" y2="1.081" gradientUnits="objectBoundingBox"><stop offset="0.11" stop-color="#fff"/><stop offset="0.47" stop-color="#f8f6f5"/><stop offset="1" stop-color="#e8e3de"/></linearGradient><linearGradient id="b" x1="0.5" y1="-0.524" x2="0.5" y2="1.241" gradientUnits="objectBoundingBox"><stop offset="0.16" stop-color="#fff"/><stop offset="0.4" stop-color="#fbfaf9"/><stop offset="0.72" stop-color="#efece8"/><stop offset="0.87" stop-color="#e8e3de"/></linearGradient><linearGradient id="c" x1="0.498" y1="1.192" x2="0.498" y2="-0.082" gradientUnits="objectBoundingBox"><stop offset="0.09" stop-color="#ccc"/><stop offset="0.11" stop-color="#b7b7b6"/><stop offset="0.13" stop-color="#9c9a98"/><stop offset="0.15" stop-color="#888682"/><stop offset="0.17" stop-color="#7c7975"/><stop offset="0.19" stop-color="#787571"/><stop offset="0.34" stop-color="#94908c"/><stop offset="0.52" stop-color="#b5b0ab"/><stop offset="0.86" stop-color="#b5b0ab"/><stop offset="0.89" stop-color="#b1aca7"/><stop offset="0.93" stop-color="#a5a09c"/><stop offset="0.97" stop-color="#908d88"/><stop offset="1" stop-color="#787571"/></linearGradient><linearGradient id="d" x1="-454.743" y1="1.192" x2="-454.743" y2="-0.082" xlink:href="#c"/></defs><g transform="translate(0 0)"><g transform="translate(0)"><path class="a" d="M25.942,1.008A1.012,1.012,0,0,0,24.933,0H6.024A1.012,1.012,0,0,0,5,1.008V37.118a1.012,1.012,0,0,0,1.009,1.009H24.933a1.012,1.012,0,0,0,1.009-1.009Z" transform="translate(-3.02 0)"/><path class="b" d="M7.23,49.366V65.977a.945.945,0,0,0,.941.941h17.4a.945.945,0,0,0,.945-.957V49.35" transform="translate(-4.368 -29.832)"/><path class="c" d="M26.469,20.327V3.561a.945.945,0,0,0-.941-.941H8.125a.945.945,0,0,0-.945.941V20.327" transform="translate(-4.338 -1.584)"/><g class="d" transform="translate(2.842 1.187)"><path class="e" d="M26.468,20.738V3.961A.945.945,0,0,0,25.523,3H8.121a.945.945,0,0,0-.941.961V20.738" transform="translate(-7.18 -3)"/></g><path class="f" d="M7.23,48.316V64.927a.945.945,0,0,0,.941.941h17.4a.945.945,0,0,0,.945-.957V48.3" transform="translate(-4.368 -29.197)"/><path class="g" d="M22.693,17.564a1.728,1.728,0,0,0-1.42.842,5.461,5.461,0,0,0-.538,2.875l-4.066-.459a7.694,7.694,0,0,1,1.649-5.272,5.6,5.6,0,0,1,4.414-1.859q3.164,0,4.564,1.709a6.9,6.9,0,0,1,1.368,4.592,10.461,10.461,0,0,1-.364,3.164A16.951,16.951,0,0,1,27.084,26.1L21.7,36.75H28.42v3.872H16.9V37q1.728-3.263,3.393-6.51t3.358-6.51a5.865,5.865,0,0,0,.672-1.978,15.19,15.19,0,0,0,.134-2.057,5.738,5.738,0,0,0-.055-.767,2.195,2.195,0,0,0-.249-.767,1.839,1.839,0,0,0-.538-.593A1.538,1.538,0,0,0,22.693,17.564Z" transform="translate(-10.075 -8.274)"/><path class="h" d="M26.468,21.252V4.641a.945.945,0,0,0-.941-.941H8.125a.945.945,0,0,0-.945.961V21.272" transform="translate(-4.338 -2.237)"/><path class="g" d="M17.509,18.98a6.047,6.047,0,0,1,.463-2.417,5.217,5.217,0,0,1,1.25-1.8,5.4,5.4,0,0,1,1.847-1.111,6.676,6.676,0,0,1,2.29-.4,5.933,5.933,0,0,1,4.192,1.507,5.453,5.453,0,0,1,1.622,4.22m-4.141-.194a1.582,1.582,0,0,0-.486-1.206,1.72,1.72,0,0,0-1.206-.439,1.839,1.839,0,0,0-1.285.439,1.531,1.531,0,0,0-.5,1.206" transform="translate(-10.581 -8.008)"/><rect class="i" width="19.281" height="0.198" transform="translate(2.858 19.198)"/><rect class="j" width="19.281" height="0.225" transform="translate(2.858 19.221)"/><rect class="k" width="19.281" height="0.253" transform="translate(2.858 19.249)"/><rect class="l" width="19.281" height="0.285" transform="translate(2.858 19.273)"/><rect class="m" width="19.281" height="0.312" transform="translate(2.858 19.297)"/><rect class="n" width="19.281" height="0.34" transform="translate(2.858 19.32)"/><rect class="o" width="19.281" height="0.372" transform="translate(2.858 19.344)"/><rect class="p" width="19.281" height="0.399" transform="translate(2.858 19.368)"/><rect class="q" width="19.281" height="0.431" transform="translate(2.858 19.391)"/><rect class="r" width="19.281" height="0.459" transform="translate(2.858 19.415)"/><rect class="s" width="19.281" height="0.486" transform="translate(2.858 19.439)"/><rect class="t" width="19.281" height="0.518" transform="translate(2.858 19.463)"/><rect class="u" width="19.281" height="0.546" transform="translate(2.858 19.486)"/><rect class="v" width="19.281" height="0.573" transform="translate(2.858 19.51)"/><rect class="w" width="19.281" height="0.605" transform="translate(2.858 19.534)"/><rect class="x" width="19.281" height="0.633" transform="translate(2.858 19.562)"/><rect class="y" width="19.281" height="0.66" transform="translate(2.858 19.585)"/><rect class="z" width="19.281" height="0.692" transform="translate(2.858 19.609)"/><rect class="e" width="19.617" height="0.316" transform="translate(2.668 18.854)"/><path class="aa" d="M24.836,17.6a.269.269,0,0,1,0,.036,1.7,1.7,0,0,0-.028-.21.422.422,0,0,0-.024-.17.522.522,0,0,0-.146-.293,1.226,1.226,0,0,0-.9-.316H1.062a1.274,1.274,0,0,0-.747.225.613.613,0,0,0-.253.4,4.688,4.688,0,0,1-.051.518h0A.712.712,0,0,1,.5,17.272a1.582,1.582,0,0,1,.558-.091H24.021c.336.044.791.21.842.6a1.329,1.329,0,0,0-.028-.178Z" transform="translate(-0.004 -10.061)"/><path class="ab" d="M24.836,17.874a.258.258,0,0,1,0,.036,1.724,1.724,0,0,0-.028-.214.422.422,0,0,0-.024-.17.526.526,0,0,0-.146-.293,1.23,1.23,0,0,0-.9-.316H1.062a1.246,1.246,0,0,0-.747.225.609.609,0,0,0-.253.4,4.688,4.688,0,0,1-.051.518h0A.716.716,0,0,1,.5,17.542a1.582,1.582,0,0,1,.558-.095H23.811a1.868,1.868,0,0,1,.21,0c.336.044.791.21.842.6a1.337,1.337,0,0,0-.028-.17Z" transform="translate(-0.004 -10.225)"/><g class="ac" transform="translate(2.826 17.647)"><path class="ad" d="M26.464,44.62V56.766a.668.668,0,0,1-.66.66H7.8a.668.668,0,0,1-.664-.664V44.667" transform="translate(-7.14 -44.62)"/></g><rect class="a" width="1.827" height="6.724" transform="translate(1.996 15.559)"/><rect class="ae" width="0.985" height="5.588" transform="translate(2.561 16.14)"/><path class="af" d="M7.241,42.819H6.47v.755h.771v2.618H6.47V46.4h.985V42.819Z" transform="translate(-3.909 -24.67)"/><rect class="a" width="1.827" height="6.724" transform="translate(21.095 15.559)"/><rect class="ag" width="0.985" height="5.588" transform="translate(21.371 16.14)"/><path class="af" d="M54.244,42.819h.771v.755h-.771v2.618h.771V46.4H54.03V42.819Z" transform="translate(-32.659 -24.67)"/><path class="ad" d="M24.822,18.8a.641.641,0,0,0-.2-.253,1.092,1.092,0,0,0-.352-.174,1.653,1.653,0,0,0-.467-.063H1.056a1.649,1.649,0,0,0-.467.063,1.08,1.08,0,0,0-.352.174.629.629,0,0,0-.206.253.483.483,0,0,0-.024.3L2.579,29.2H3.666l.19.791H21.144l.19-.791h.981l2.527-10.1A.49.49,0,0,0,24.822,18.8Z" transform="translate(0.006 -11.068)"/><path class="g" d="M22.691,27.23a12.622,12.622,0,0,0-1.483.083,9.271,9.271,0,0,0-1.313.245,6.949,6.949,0,0,0-1.131.4,5.537,5.537,0,0,0-.953.562,3.836,3.836,0,0,0-.72.684,3.1,3.1,0,0,0-.467.791,3.263,3.263,0,0,0-.218.886,4.125,4.125,0,0,0,0,.965l4.2.273a4.2,4.2,0,0,1,0-.566,2.658,2.658,0,0,1,.083-.483,1.7,1.7,0,0,1,.162-.4,1.226,1.226,0,0,1,.241-.3,1.808,1.808,0,0,1,.3-.221,1.978,1.978,0,0,1,.352-.166,2.6,2.6,0,0,1,.4-.1,3.2,3.2,0,0,1,.451-.044h.293a.7.7,0,0,1,.261.032,2.028,2.028,0,0,1,.229.051,1.456,1.456,0,0,1,.2.071l.174.083.15.091a1.512,1.512,0,0,1,.131.1,1.151,1.151,0,0,1,.111.107,1.27,1.27,0,0,1,.091.111.993.993,0,0,1,.071.119.914.914,0,0,1,.087.249.234.234,0,0,0,.024.127c.024.04,0,.079,0,.119v.115a.988.988,0,0,1,0,.107,2.581,2.581,0,0,1-.02.32,2.058,2.058,0,0,1-.04.308c-.016.1-.036.2-.055.3s-.044.194-.071.285a1.91,1.91,0,0,1-.1.281,2.31,2.31,0,0,1-.154.277,2.7,2.7,0,0,1-.2.277q-.113.136-.249.273l-.439.455-.356.447-.419.439-.4.427h4.351l.645-.641c.142-.138.281-.273.4-.4s.253-.269.364-.4.221-.265.32-.4.19-.261.273-.4a3.656,3.656,0,0,0,.225-.4,3.831,3.831,0,0,0,.178-.435,4.259,4.259,0,0,0,.127-.475,4.663,4.663,0,0,0,.095-.526,3.654,3.654,0,0,0,0-.838,2.943,2.943,0,0,0-.178-.791,2.9,2.9,0,0,0-.4-.7,3.56,3.56,0,0,0-.6-.621,3.734,3.734,0,0,0-.807-.494,6.249,6.249,0,0,0-1.143-.368,10.776,10.776,0,0,0-1.4-.225q-.771-.075-1.673-.075" transform="translate(-9.898 -16.46)"/><path class="a" d="M25.085,46.745H7.624l-.19-.771H6.37v-.4H7.608l.19.8H24.911l.194-.8h1.111l.119.392-1.06.012Z" transform="translate(-3.848 -27.547)"/></g></g></svg>