<svg xmlns="http://www.w3.org/2000/svg" xmlns:xlink="http://www.w3.org/1999/xlink" width="20.776" height="37.682" viewBox="0 0 20.776 37.682"><defs><style>.a{fill:#42423c;}.b{fill:#b7b7b2;}.c,.z{opacity:0.3;}.aw,.d{fill:#60605b;}.e{fill:url(#a);}.f{fill:url(#b);}.aw,.g{opacity:0.2;}.h,.i,.j,.k,.l,.m,.n,.o,.p,.q,.r,.s,.t,.u,.v,.w,.x,.y{fill:#0e0e0e;}.av,.h{opacity:0.5;}.i{opacity:0.47;}.j{opacity:0.44;}.k{opacity:0.41;}.l{opacity:0.38;}.m{opacity:0.35;}.n{opacity:0.32;}.o{opacity:0.29;}.ab,.p{opacity:0.26;}.q{opacity:0.24;}.ae,.r{opacity:0.21;}.ag,.s{opacity:0.18;}.t{opacity:0.15;}.aj,.u{opacity:0.12;}.al,.v{opacity:0.09;}.w{opacity:0.06;}.x{opacity:0.03;}.aq,.y{opacity:0;}.aa,.ab,.ac,.ad,.ae,.af,.ag,.ah,.ai,.aj,.ak,.al,.am,.an,.ao,.ap,.aq,.z{fill:#4c4c4c;}.aa{opacity:0.28;}.ac{opacity:0.25;}.ad{opacity:0.23;}.af{opacity:0.19;}.ah{opacity:0.16;}.ai{opacity:0.14;}.ak{opacity:0.11;}.am{opacity:0.07;}.an{opacity:0.05;}.ao{opacity:0.04;}.ap{opacity:0.02;}.ar{fill:#297770;}.as,.av{fill:#fff;}.at{fill:url(#c);}.au{opacity:0.9;}</style><linearGradient id="a" x1="0.499" y1="-0.145" x2="0.499" y2="1.305" gradientUnits="objectBoundingBox"><stop offset="0.11" stop-color="#fff"/><stop offset="0.47" stop-color="#f8f6f5"/><stop offset="1" stop-color="#e8e3de"/></linearGradient><linearGradient id="b" x1="0.5" y1="-0.524" x2="0.5" y2="1.241" gradientUnits="objectBoundingBox"><stop offset="0.16" stop-color="#fff"/><stop offset="0.4" stop-color="#fbfaf9"/><stop offset="0.72" stop-color="#efece8"/><stop offset="0.87" stop-color="#e8e3de"/></linearGradient><linearGradient id="c" x1="0.498" y1="1.192" x2="0.498" y2="-0.081" gradientUnits="objectBoundingBox"><stop offset="0.09" stop-color="#ccc"/><stop offset="0.11" stop-color="#b7b7b6"/><stop offset="0.13" stop-color="#9c9a98"/><stop offset="0.15" stop-color="#888682"/><stop offset="0.17" stop-color="#7c7975"/><stop offset="0.19" stop-color="#787571"/><stop offset="0.34" stop-color="#94908c"/><stop offset="0.52" stop-color="#b5b0ab"/><stop offset="0.86" stop-color="#b5b0ab"/><stop offset="0.89" stop-color="#b1aca7"/><stop offset="0.93" stop-color="#a5a09c"/><stop offset="0.97" stop-color="#908d88"/><stop offset="1" stop-color="#787571"/></linearGradient></defs><g transform="translate(0 0)"><path class="a" d="M20.776,18.657V1a1,1,0,0,0-1-1H1.016A1,1,0,0,0,0,1V36.685a1,1,0,0,0,1,1H19.76a1,1,0,0,0,1-1V18.657Z" transform="translate(0 0)"/><path class="b" d="M2.19,49.16V65.742a.934.934,0,0,0,.93.946h17.2a.934.934,0,0,0,.95-.946V49.16" transform="translate(-1.334 -29.944)"/><g class="c" transform="translate(0.684 18.947)"><path class="d" d="M1.922,48.47,1.75,65.095a.922.922,0,0,0,.923.938H20.219a.923.923,0,0,0,.934-.938L21,48.47" transform="translate(-1.75 -48.47)"/></g><path class="b" d="M21.2,19.94V3.55a.934.934,0,0,0-.93-.93H3.07a.934.934,0,0,0-.93.93V19.968" transform="translate(-1.303 -1.596)"/><g class="c" transform="translate(0.664 1.255)"><path class="d" d="M20.932,20.48,21.1,4.14a.922.922,0,0,0-.915-.93H2.622a.923.923,0,0,0-.923.93L1.872,20.48" transform="translate(-1.7 -3.21)"/></g><path class="e" d="M2.19,48.316V64.733a.934.934,0,0,0,.93.93h17.2a.934.934,0,0,0,.95-.946V48.3" transform="translate(-1.334 -29.42)"/><path class="f" d="M21.2,21.048V4.63a.934.934,0,0,0-.93-.93H3.07a.934.934,0,0,0-.93.95V21.067" transform="translate(-1.303 -2.254)"/><g class="g" transform="translate(0.837 5.86)"><rect class="h" width="19.052" height="4.351" transform="translate(0 8.416)"/><rect class="i" width="19.052" height="4.136" transform="translate(0 7.919)"/><rect class="j" width="19.052" height="3.917" transform="translate(0 7.423)"/><rect class="k" width="19.052" height="3.702" transform="translate(0 6.93)"/><rect class="l" width="19.052" height="3.487" transform="translate(0 6.434)"/><rect class="m" width="19.052" height="3.272" transform="translate(0 5.938)"/><rect class="n" width="19.052" height="3.057" transform="translate(0 5.445)"/><rect class="o" width="19.052" height="2.838" transform="translate(0 4.949)"/><rect class="p" width="19.052" height="2.623" transform="translate(0 4.452)"/><rect class="q" width="19.052" height="2.408" transform="translate(0 3.96)"/><rect class="r" width="19.052" height="2.193" transform="translate(0 3.463)"/><rect class="s" width="19.052" height="1.978" transform="translate(0 2.967)"/><rect class="t" width="19.052" height="1.759" transform="translate(0 2.474)"/><rect class="u" width="19.052" height="1.544" transform="translate(0 1.978)"/><rect class="v" width="19.052" height="1.329" transform="translate(0 1.485)"/><rect class="w" width="19.052" height="1.114" transform="translate(0 0.989)"/><rect class="x" width="19.052" height="0.899" transform="translate(0 0.493)"/><rect class="y" width="19.052" height="0.68"/></g><rect class="z" width="19.052" height="0.195" transform="translate(0.848 18.974)"/><rect class="aa" width="19.052" height="0.223" transform="translate(0.848 18.997)"/><rect class="ab" width="19.052" height="0.25" transform="translate(0.848 19.025)"/><rect class="ac" width="19.052" height="0.281" transform="translate(0.848 19.048)"/><rect class="ad" width="19.052" height="0.309" transform="translate(0.848 19.072)"/><rect class="ae" width="19.052" height="0.336" transform="translate(0.848 19.095)"/><rect class="af" width="19.052" height="0.367" transform="translate(0.848 19.119)"/><rect class="ag" width="19.052" height="0.395" transform="translate(0.848 19.142)"/><rect class="ah" width="19.052" height="0.426" transform="translate(0.848 19.165)"/><rect class="ai" width="19.052" height="0.453" transform="translate(0.848 19.189)"/><rect class="aj" width="19.052" height="0.481" transform="translate(0.848 19.212)"/><rect class="ak" width="19.052" height="0.512" transform="translate(0.848 19.236)"/><rect class="al" width="19.052" height="0.539" transform="translate(0.848 19.259)"/><rect class="am" width="19.052" height="0.567" transform="translate(0.848 19.283)"/><rect class="an" width="19.052" height="0.598" transform="translate(0.848 19.306)"/><rect class="ao" width="19.052" height="0.625" transform="translate(0.848 19.334)"/><rect class="ap" width="19.052" height="0.653" transform="translate(0.848 19.357)"/><rect class="aq" width="19.052" height="0.684" transform="translate(0.848 19.38)"/><path class="ar" d="M21.767,15.364a4.6,4.6,0,0,0-1.7-1.306,6.207,6.207,0,0,0-2.615-.493A5.793,5.793,0,0,0,12.937,15.4a7.313,7.313,0,0,0-1.747,4.91l4.018.532a4.615,4.615,0,0,1,.551-2.6,1.739,1.739,0,0,1,1.5-.782,1.337,1.337,0,0,1,1.325.684,3.17,3.17,0,0,1,.352,1.446v2.92a2.362,2.362,0,0,1-.567,1.782,2.345,2.345,0,0,1-1.669.532H15.361v2.384h6.4a3.827,3.827,0,0,0-.946-.6v-.192a3.463,3.463,0,0,0,1.2-.926,3.772,3.772,0,0,0,.645-1.208,5.945,5.945,0,0,0,.266-1.384q.055-.739.059-1.5v-2.08a7.951,7.951,0,0,0-.285-2.1A5.156,5.156,0,0,0,21.767,15.364Z" transform="translate(-6.816 -8.261)"/><rect class="as" width="16.926" height="0.821" transform="translate(1.915 19.107)"/><path class="ar" d="M21.4,48.25H15.087v1.173h1.137a2.4,2.4,0,0,1,1.7.567,2.507,2.507,0,0,1,.606,1.9V55.45a2.173,2.173,0,0,1-.586,1.763,1.978,1.978,0,0,1-1.27.473,1.751,1.751,0,0,1-1.5-.758,4.007,4.007,0,0,1-.36-2.654l-4.057.524a7.114,7.114,0,0,0,1.212,4.984q1.4,1.763,4.624,1.763a6.009,6.009,0,0,0,4.417-1.63,6.428,6.428,0,0,0,1.65-4.777l.039-3.033a7.638,7.638,0,0,0-.418-2.6A2.814,2.814,0,0,0,21.4,48.25Z" transform="translate(-6.543 -29.389)"/><rect class="a" width="1.806" height="6.645" transform="translate(0.109 15.378)"/><rect class="a" width="18.169" height="0.493" transform="translate(1.88 18.638)"/><rect class="at" width="0.973" height="5.523" transform="translate(0.528 15.937)"/><g class="au" transform="translate(0.528 16.75)"><rect class="av" width="0.778" height="1.544"/></g><g class="c" transform="translate(0.528 20.987)"><rect class="av" width="0.778" height="0.289"/></g><path class="aw" d="M2.112,40.77H1.35v.2h.762V46.09H1.35v.2h.973V40.77H2.112Z" transform="translate(-0.822 -24.833)"/></g></svg>