<svg xmlns="http://www.w3.org/2000/svg" xmlns:xlink="http://www.w3.org/1999/xlink" width="20.775" height="37.679" viewBox="0 0 20.775 37.679"><defs><style>.a{fill:#42423c;}.b{fill:#b7b7b2;}.c,.z{opacity:0.3;}.ax,.d{fill:#60605b;}.e{fill:url(#a);}.f{fill:url(#b);}.ax,.g{opacity:0.2;}.h,.i,.j,.k,.l,.m,.n,.o,.p,.q,.r,.s,.t,.u,.v,.w,.x,.y{fill:#0e0e0e;}.aw,.h{opacity:0.5;}.i{opacity:0.47;}.j{opacity:0.44;}.k{opacity:0.41;}.l{opacity:0.38;}.m{opacity:0.35;}.n{opacity:0.32;}.o{opacity:0.29;}.ab,.p{opacity:0.26;}.q{opacity:0.24;}.ae,.r{opacity:0.21;}.ag,.s{opacity:0.18;}.t{opacity:0.15;}.aj,.u{opacity:0.12;}.al,.v{opacity:0.09;}.w{opacity:0.06;}.x{opacity:0.03;}.aq,.y{opacity:0;}.aa,.ab,.ac,.ad,.ae,.af,.ag,.ah,.ai,.aj,.ak,.al,.am,.an,.ao,.ap,.aq,.z{fill:#4c4c4c;}.aa{opacity:0.28;}.ac{opacity:0.25;}.ad{opacity:0.23;}.af{opacity:0.19;}.ah{opacity:0.16;}.ai{opacity:0.14;}.ak{opacity:0.11;}.am{opacity:0.07;}.an{opacity:0.05;}.ao{opacity:0.04;}.ap{opacity:0.02;}.ar,.aw{fill:#fff;}.as{fill:#297770;}.at{fill:url(#c);}.au{fill:url(#d);}.av{opacity:0.9;}</style><linearGradient id="a" x1="0.499" y1="-0.145" x2="0.499" y2="1.305" gradientUnits="objectBoundingBox"><stop offset="0.11" stop-color="#fff"/><stop offset="0.47" stop-color="#f8f6f5"/><stop offset="1" stop-color="#e8e3de"/></linearGradient><linearGradient id="b" x1="0.5" y1="-0.525" x2="0.5" y2="1.242" gradientUnits="objectBoundingBox"><stop offset="0.16" stop-color="#fff"/><stop offset="0.4" stop-color="#fbfaf9"/><stop offset="0.72" stop-color="#efece8"/><stop offset="0.87" stop-color="#e8e3de"/></linearGradient><linearGradient id="c" x1="0.501" y1="1.303" x2="0.501" y2="-0.061" gradientUnits="objectBoundingBox"><stop offset="0.23" stop-color="#5e5e5b"/><stop offset="0.48" stop-color="#62625e"/><stop offset="0.7" stop-color="#6c6c69"/><stop offset="0.78" stop-color="#73736f"/></linearGradient><linearGradient id="d" x1="0.498" y1="1.192" x2="0.498" y2="-0.081" gradientUnits="objectBoundingBox"><stop offset="0.09" stop-color="#ccc"/><stop offset="0.11" stop-color="#b7b7b6"/><stop offset="0.13" stop-color="#9c9a98"/><stop offset="0.15" stop-color="#888682"/><stop offset="0.17" stop-color="#7c7975"/><stop offset="0.19" stop-color="#787571"/><stop offset="0.34" stop-color="#94908c"/><stop offset="0.52" stop-color="#b5b0ab"/><stop offset="0.86" stop-color="#b5b0ab"/><stop offset="0.89" stop-color="#b1aca7"/><stop offset="0.93" stop-color="#a5a09c"/><stop offset="0.97" stop-color="#908d88"/><stop offset="1" stop-color="#787571"/></linearGradient></defs><g transform="translate(0 0)"><path class="a" d="M20.775,18.656V1a1,1,0,0,0-.993-1H1.016A1,1,0,0,0,0,1V36.682a1,1,0,0,0,1,1H19.762a1,1,0,0,0,1-1V18.656Z" transform="translate(0 0)"/><path class="b" d="M2.19,49.16V65.279a.894.894,0,0,0,.269.648.951.951,0,0,0,.664.271H20.367a.952.952,0,0,0,.677-.265.894.894,0,0,0,.276-.655V49.16" transform="translate(-1.358 -29.431)"/><g class="c" transform="translate(0.665 19.467)"><path class="d" d="M1.922,48.47,1.75,64.63a.883.883,0,0,0,.265.644.939.939,0,0,0,.659.268H20.259a.939.939,0,0,0,.667-.264.883.883,0,0,0,.269-.648l-.153-16.16" transform="translate(-1.75 -48.47)"/></g><path class="b" d="M21.251,19.457V3.524a.923.923,0,0,0-.933-.9H3.073a.923.923,0,0,0-.933.9V19.483" transform="translate(-1.327 -1.624)"/><g class="c" transform="translate(0.646 1.22)"><path class="d" d="M20.973,20l.172-15.883a.91.91,0,0,0-.917-.9H2.624a.939.939,0,0,0-.657.265.883.883,0,0,0-.268.639L1.872,20" transform="translate(-1.7 -3.21)"/></g><path class="e" d="M2.19,48.315V64.274a.923.923,0,0,0,.933.9H20.367a.952.952,0,0,0,.677-.265.894.894,0,0,0,.276-.655V48.3" transform="translate(-1.358 -28.898)"/><path class="f" d="M21.251,20.563V4.6a.923.923,0,0,0-.933-.9H3.073a.952.952,0,0,0-.664.271.894.894,0,0,0-.269.648V20.579" transform="translate(-1.327 -2.294)"/><g class="g" transform="translate(0.813 5.943)"><rect class="h" width="19.103" height="4.229" transform="translate(0 8.177)"/><rect class="i" width="19.103" height="4.02" transform="translate(0 7.698)"/><rect class="j" width="19.103" height="3.807" transform="translate(0 7.216)"/><rect class="k" width="19.103" height="3.598" transform="translate(0 6.737)"/><rect class="l" width="19.103" height="3.389" transform="translate(0 6.254)"/><rect class="m" width="19.103" height="3.18" transform="translate(0 5.772)"/><rect class="n" width="19.103" height="2.971" transform="translate(0 5.293)"/><rect class="o" width="19.103" height="2.762" transform="translate(0 4.811)"/><rect class="p" width="19.103" height="2.55" transform="translate(0 4.328)"/><rect class="q" width="19.103" height="2.341" transform="translate(0 3.849)"/><rect class="r" width="19.103" height="2.132" transform="translate(0 3.367)"/><rect class="s" width="19.103" height="1.923" transform="translate(0 2.884)"/><rect class="t" width="19.103" height="1.714" transform="translate(0 2.405)"/><rect class="u" width="19.103" height="1.501" transform="translate(0 1.923)"/><rect class="v" width="19.103" height="1.292" transform="translate(0 1.444)"/><rect class="w" width="19.103" height="1.083" transform="translate(0 0.961)"/><rect class="x" width="19.103" height="0.874" transform="translate(0 0.479)"/><rect class="y" width="19.103" height="0.665"/></g><rect class="z" width="19.103" height="0.19" transform="translate(0.825 18.975)"/><rect class="aa" width="19.103" height="0.217" transform="translate(0.825 18.999)"/><rect class="ab" width="19.103" height="0.247" transform="translate(0.825 19.023)"/><rect class="ac" width="19.103" height="0.274" transform="translate(0.825 19.051)"/><rect class="ad" width="19.103" height="0.3" transform="translate(0.825 19.075)"/><rect class="ae" width="19.103" height="0.331" transform="translate(0.825 19.098)"/><rect class="af" width="19.103" height="0.357" transform="translate(0.825 19.122)"/><rect class="ag" width="19.103" height="0.384" transform="translate(0.825 19.146)"/><rect class="ah" width="19.103" height="0.414" transform="translate(0.825 19.17)"/><rect class="ai" width="19.103" height="0.441" transform="translate(0.825 19.194)"/><rect class="aj" width="19.103" height="0.467" transform="translate(0.825 19.218)"/><rect class="ak" width="19.103" height="0.498" transform="translate(0.825 19.242)"/><rect class="al" width="19.103" height="0.524" transform="translate(0.825 19.266)"/><rect class="am" width="19.103" height="0.551" transform="translate(0.825 19.289)"/><rect class="an" width="19.103" height="0.581" transform="translate(0.825 19.313)"/><rect class="ao" width="19.103" height="0.608" transform="translate(0.825 19.337)"/><rect class="ap" width="19.103" height="0.635" transform="translate(0.825 19.361)"/><rect class="aq" width="19.103" height="0.665" transform="translate(0.825 19.389)"/><rect class="ar" width="17.036" height="0.798" transform="translate(1.862 19.117)"/><path class="as" d="M23.961,17.3V13.65H12.7V26.82h3.8a1.8,1.8,0,0,1,.573-.5,2.393,2.393,0,0,1,1.2-.315,1.467,1.467,0,0,1,1.538.828h4.3a4.923,4.923,0,0,0-1.057-2.983,4.3,4.3,0,0,0-3.552-1.33,5.336,5.336,0,0,0-1.534.239,2.993,2.993,0,0,0-1.3.76h-.1a.084.084,0,0,0-.06,0V17.3Z" transform="translate(-7.874 -8.463)"/><path class="as" d="M18.857,48.045a1.907,1.907,0,0,1,.172.847v6.08a2.378,2.378,0,0,1-.6,1.695,1.834,1.834,0,0,1-1.218.441,1.737,1.737,0,0,1-1.474-.608,3.446,3.446,0,0,1-.463-2.044v-.513l-4.034.627a6.875,6.875,0,0,0,1.414,4.605,5.581,5.581,0,0,0,4.482,1.657,5.762,5.762,0,0,0,4.589-1.714q1.49-1.714,1.486-5.361V48.03Z" transform="translate(-6.969 -28.976)"/><path class="at" d="M16.347,48.8H12.68v.627H16A2.515,2.515,0,0,1,16.347,48.8Z" transform="translate(-7.692 -29.717)"/><rect class="a" width="1.756" height="6.46" transform="translate(0.106 15.468)"/><rect class="a" width="18.244" height="0.479" transform="translate(1.828 18.643)"/><rect class="au" width="0.946" height="5.369" transform="translate(0.513 16.012)"/><g class="av" transform="translate(0.513 16.768)"><rect class="aw" width="0.756" height="1.501"/></g><g class="c" transform="translate(0.513 20.99)"><rect class="aw" width="0.756" height="0.281"/></g><path class="ax" d="M2.085,40.77H1.34v.2h.745v4.974H1.34v.2h.95V40.77H2.085Z" transform="translate(-0.831 -24.758)"/></g></svg>