<svg xmlns="http://www.w3.org/2000/svg" xmlns:xlink="http://www.w3.org/1999/xlink" width="457.035" height="290.657" viewBox="0 0 457.035 290.657"><defs><style>.a{fill:#dae3fe;}.b{fill:#dfb82b;}.c,.h,.p{fill:#fff;}.c{opacity:0.57;}.d,.h{opacity:0.5;}.e{fill:#bdd0fb;}.f{fill:#ffe895;}.g{fill:url(#a);}.i{fill:#3fc5b9;}.j{fill:url(#b);}.k{fill:url(#c);}.l{fill:url(#d);}.m{fill:url(#e);}.n{fill:url(#f);}.o{fill:url(#g);}.q{fill:url(#h);}.r{fill:url(#i);}.s{fill:url(#j);}.t{fill:url(#m);}.u{fill:#297770;}.v{fill:url(#o);}.w{fill:url(#p);}.x{fill:#483318;}.y{fill:url(#q);}.z{fill:url(#r);}.aa{fill:url(#s);}.ab{fill:url(#u);}.ac{fill:url(#v);}.ad{fill:url(#w);}.ae{fill:url(#x);}.af{fill:url(#y);}.ag{fill:url(#z);}.ah{fill:url(#aa);}.ai{fill:url(#ab);}.aj{fill:url(#ac);}.ak{fill:url(#ad);}.al{fill:url(#ae);}.am{fill:url(#af);}.an{fill:url(#ag);}.ao{fill:url(#ah);}.ap{fill:url(#aj);}.aq{fill:url(#al);}.ar{fill:url(#am);}.as{fill:url(#an);}.at{fill:url(#ap);}.au{fill:url(#aq);}.av{fill:url(#at);}.aw{fill:url(#aw);}.ax{fill:url(#bc);}.ay{fill:url(#be);}.az{fill:url(#bg);}.ba{fill:url(#bi);}.bb{fill:url(#bj);}.bc{fill:url(#bk);}.bd{fill:url(#bl);}.be{fill:url(#bm);}.bf{fill:url(#bn);}.bg{fill:url(#bo);}.bh{fill:url(#bp);}</style><linearGradient id="a" y1="0.5" x2="1" y2="0.5" gradientUnits="objectBoundingBox"><stop offset="0" stop-color="#dae3fe"/><stop offset="1" stop-color="#e9effd"/></linearGradient><linearGradient id="b" x1="0.47" y1="-1.059" x2="0.523" y2="1.694" gradientUnits="objectBoundingBox"><stop offset="0" stop-color="#08403b"/><stop offset="1" stop-color="#297770"/></linearGradient><linearGradient id="c" x1="0.376" y1="-0.863" x2="0.589" y2="1.516" gradientUnits="objectBoundingBox"><stop offset="0" stop-color="#094843"/><stop offset="1" stop-color="#297770"/></linearGradient><linearGradient id="d" y1="0.5" x2="1" y2="0.5" gradientUnits="objectBoundingBox"><stop offset="0" stop-color="#0c443f"/><stop offset="1" stop-color="#297770"/></linearGradient><linearGradient id="e" x1="0" y1="0.499" x2="1" y2="0.499" xlink:href="#a"/><linearGradient id="f" x1="0" y1="0.491" x2="1" y2="0.491" xlink:href="#a"/><linearGradient id="g" x1="0" y1="0.5" x2="1" y2="0.5" xlink:href="#a"/><linearGradient id="h" x1="0.024" y1="0.452" x2="1" y2="0.5" gradientUnits="objectBoundingBox"><stop offset="0" stop-color="#dfb82b"/><stop offset="1" stop-color="#705c16"/></linearGradient><linearGradient id="i" x1="0.535" y1="-0.229" x2="0.42" y2="1.812" gradientUnits="objectBoundingBox"><stop offset="0" stop-color="#0b4a44"/><stop offset="1" stop-color="#297770"/></linearGradient><linearGradient id="j" x1="0" y1="0.499" x2="1" y2="0.499" xlink:href="#a"/><linearGradient id="m" x1="0" y1="0.509" x2="1" y2="0.509" xlink:href="#a"/><linearGradient id="o" y1="0.5" x2="1" y2="0.5" gradientUnits="objectBoundingBox"><stop offset="0" stop-color="#ff928e"/><stop offset="1" stop-color="#feb3b1"/></linearGradient><linearGradient id="p" x1="-44.493" y1="0.5" x2="-45.493" y2="0.5" xlink:href="#o"/><linearGradient id="q" x1="20.766" y1="0.5" x2="21.766" y2="0.5" xlink:href="#o"/><linearGradient id="r" x1="5.92" y1="1.255" x2="6.126" y2="0.047" gradientUnits="objectBoundingBox"><stop offset="0" stop-color="#094640"/><stop offset="1" stop-color="#297770"/></linearGradient><linearGradient id="s" x1="15.551" y1="0.5" x2="16.551" y2="0.5" xlink:href="#o"/><linearGradient id="u" x1="1.616" y1="0.039" x2="0.883" y2="0.365" gradientUnits="objectBoundingBox"><stop offset="0" stop-color="#483318"/><stop offset="1" stop-color="#a17640"/></linearGradient><linearGradient id="v" x1="0.5" x2="0.5" y2="1" gradientUnits="objectBoundingBox"><stop offset="0" stop-color="#297770"/><stop offset="1" stop-color="#153c38"/></linearGradient><linearGradient id="w" x1="0.443" y1="-0.053" x2="0.675" y2="1.908" xlink:href="#o"/><linearGradient id="x" x1="0.047" y1="0.533" x2="6.343" y2="0.081" gradientUnits="objectBoundingBox"><stop offset="0" stop-color="#483318"/><stop offset="1" stop-color="#a77a40"/></linearGradient><linearGradient id="y" x1="0.5" x2="0.5" y2="1" gradientUnits="objectBoundingBox"><stop offset="0" stop-color="#262626"/><stop offset="1" stop-color="#6e6e6e"/></linearGradient><linearGradient id="z" x1="-64.964" y1="-0.417" x2="-64.901" y2="-1.435" xlink:href="#o"/><linearGradient id="aa" x1="0.5" x2="0.5" y2="1" gradientUnits="objectBoundingBox"><stop offset="0" stop-color="#26252b"/><stop offset="1" stop-color="#6e6d71"/></linearGradient><linearGradient id="ab" x1="-287.852" y1="-2.453" x2="-287.574" y2="-6.139" xlink:href="#o"/><linearGradient id="ac" x1="0.5" x2="0.5" y2="1" gradientUnits="objectBoundingBox"><stop offset="0" stop-color="#483318"/><stop offset="1" stop-color="#0e0a05"/></linearGradient><linearGradient id="ad" x1="0.401" y1="1.063" x2="0.136" y2="1.965" gradientUnits="objectBoundingBox"><stop offset="0" stop-color="#483318"/><stop offset="1" stop-color="#c9a069"/></linearGradient><linearGradient id="ae" x1="9.948" y1="0.5" x2="10.947" y2="0.5" xlink:href="#o"/><linearGradient id="af" x1="0.511" y1="1.752" x2="0.488" y2="-0.794" xlink:href="#o"/><linearGradient id="ag" x1="0.489" y1="1.752" x2="0.512" y2="-0.794" xlink:href="#o"/><linearGradient id="ah" x1="0.198" y1="-0.17" x2="1.275" y2="2.07" gradientUnits="objectBoundingBox"><stop offset="0" stop-color="#483318"/><stop offset="1" stop-color="#c18d49"/></linearGradient><linearGradient id="aj" x1="0.25" y1="0.968" x2="0.992" y2="-0.421" gradientUnits="objectBoundingBox"><stop offset="0" stop-color="#fe7062"/><stop offset="1" stop-color="#ff928e"/></linearGradient><linearGradient id="al" x1="0.549" y1="8.407" x2="0.572" y2="12.198" gradientUnits="objectBoundingBox"><stop offset="0" stop-color="#e1473d"/><stop offset="1" stop-color="#e9605a"/></linearGradient><linearGradient id="am" x1="0.451" y1="8.407" x2="0.428" y2="12.198" xlink:href="#al"/><linearGradient id="an" x1="0.5" x2="0.5" y2="1" gradientUnits="objectBoundingBox"><stop offset="0"/><stop offset="1" stop-color="#545454"/></linearGradient><linearGradient id="ap" x1="2.633" y1="-7.27" x2="2.71" y2="-8.658" xlink:href="#o"/><linearGradient id="aq" x1="-1.633" y1="-7.27" x2="-1.71" y2="-8.658" gradientUnits="objectBoundingBox"><stop offset="0" stop-color="#ffcac8"/><stop offset="1" stop-color="#feb3b1"/></linearGradient><linearGradient id="at" x1="-30.577" y1="25.161" x2="-29.796" y2="16.698" xlink:href="#o"/><linearGradient id="aw" x1="0" y1="0.5" x2="1" y2="0.5" xlink:href="#a"/><linearGradient id="bc" x1="-2.022" y1="1.976" x2="0.685" y2="0.392" gradientUnits="objectBoundingBox"><stop offset="0" stop-color="#04211f"/><stop offset="1" stop-color="#297770"/></linearGradient><linearGradient id="be" x1="0.621" y1="0.711" x2="0.172" y2="-0.029" xlink:href="#o"/><linearGradient id="bg" x1="-42.437" y1="0.71" x2="-42.886" y2="-0.03" xlink:href="#o"/><linearGradient id="bi" x1="2.583" y1="-4.06" x2="-0.855" y2="3.367" xlink:href="#o"/><linearGradient id="bj" x1="-1.583" y1="-4.06" x2="1.855" y2="3.367" xlink:href="#o"/><linearGradient id="bk" x1="3.787" y1="-6.375" x2="0.301" y2="1.146" xlink:href="#o"/><linearGradient id="bl" x1="-2.787" y1="-6.375" x2="0.699" y2="1.146" xlink:href="#o"/><linearGradient id="bm" x1="0.81" y1="0.127" x2="-0.005" y2="1.317" gradientUnits="objectBoundingBox"><stop offset="0" stop-color="#38978e"/><stop offset="1" stop-color="#297770"/></linearGradient><linearGradient id="bn" x1="0.19" y1="0.127" x2="1.005" y2="1.317" xlink:href="#bm"/><linearGradient id="bo" x1="1.167" y1="-1.677" x2="0.812" y2="-0.489" gradientUnits="objectBoundingBox"><stop offset="0" stop-color="#297770"/><stop offset="1" stop-color="#24a498"/></linearGradient><linearGradient id="bp" x1="-0.167" y1="-1.677" x2="0.188" y2="-0.489" xlink:href="#bo"/></defs><g transform="translate(-0.001 2.001)"><g transform="translate(0.001 -0.001)"><g transform="translate(0 -2)"><path class="a" d="M338.024,22.128c26.839,30.743,119.985-3.409,119,53.27-1.148,66.365-92.69,85.892-63.048,132.536s-8.375,82.393-127.485,81.409S-38.963,246.353,7.2,182.77s15.407-66.843,13.154-94.941S41.465-1.913,133.714,49.49,270.057-55.72,338.024,22.128Z" transform="translate(-0.001 0.001)"/><path class="b" d="M534.259,338.306c-4.242-20.2-14.684-37.018-27.983-47.643a58.544,58.544,0,0,1-21.686-38.284q-.3-2.377-.8-4.786c-5.106-24.288-24.121-40.851-42.486-37s-29.1,26.672-24,50.96a58.142,58.142,0,0,0,4.753,13.82,58.842,58.842,0,0,1,3.844,43.239,86.206,86.206,0,0,0-1.509,42.765c4.745,22.583,17.239,40.947,32.816,51.148A57.625,57.625,0,0,1,472.386,427c6.84,9.486,17.3,14.688,27.605,12.523,11.12-2.335,18.949-12.592,20.716-25.328a61.528,61.528,0,0,1,6.837-20.53C535.646,378.533,538.549,358.732,534.259,338.306Z" transform="translate(-331.056 -167.138)"/><path class="c" d="M595.2,332.65c5.77,15.55,11.03,31.27,16.136,47.047,1.278,3.944,2.492,7.907,3.717,11.867l1.838,5.94,1.787,5.954c1.179,3.975,2.41,7.933,3.542,11.922l3.4,11.963c2.163,8,4.393,15.989,6.407,24.035,1.021,4.02,2.1,8.021,3.035,12.061l2.849,12.108c3.634,16.183,6.865,32.465,9.265,48.877l-.707.11-2.263-12.211-.56-3.064-.635-3.039-1.281-6.075-1.268-6.062c-.421-2.026-.915-4.036-1.369-6.056-.934-4.032-1.838-8.072-2.8-12.1-3.946-16.081-8.1-32.109-12.594-48.047-2.306-7.954-4.545-15.932-6.9-23.863l-1.748-5.96-1.806-5.944c-1.2-3.963-2.4-7.925-3.642-11.875q-3.623-11.882-7.421-23.712-3.742-11.847-7.653-23.641Z" transform="translate(-473.093 -264.704)"/><g class="d" transform="translate(92.112 54.267)"><path class="e" d="M459.658,324.3a.6.6,0,0,1-.409-.3c-10.826-19.641-9.081-34.419-5.719-43.358A36.435,36.435,0,0,1,463.6,265.752a.613.613,0,0,1,.752.944,35.921,35.921,0,0,0-9.714,14.429c-3.268,8.691-4.923,23.081,5.662,42.291a.613.613,0,0,1-.637.882Z" transform="translate(-450.961 -265.678)"/></g><path class="f" d="M289.25,874.787c-6.89-9.33-16.153-15.491-25.424-17.821a32.985,32.985,0,0,1-20.017-14.5q-.711-1.146-1.53-2.259c-8.287-11.22-21.855-15.252-30.324-9s-8.6,20.409-.315,31.629a32.737,32.737,0,0,0,5.658,5.954,33.119,33.119,0,0,1,12.08,21.2,48.609,48.609,0,0,0,9.241,22.2c7.7,10.433,18.383,16.9,28.706,18.487a32.382,32.382,0,0,1,11.128,3.859c5.709,3.252,12.255,3.472,17.011-.035,5.125-3.783,6.716-10.848,4.639-17.77a34.627,34.627,0,0,1-1.317-12.082C299.367,895.018,296.217,884.219,289.25,874.787Z" transform="translate(-163.536 -659.081)"/><path class="c" d="M293.6,890.37c6.583,6.6,12.948,13.405,19.241,20.277,1.575,1.718,3.121,3.46,4.673,5.2l2.328,2.608,2.306,2.625c1.53,1.757,3.086,3.493,4.6,5.266l4.532,5.311c2.978,3.587,5.985,7.149,8.9,10.787,1.456,1.82,2.949,3.609,4.369,5.456l4.289,5.515c5.642,7.423,11.1,14.988,16.165,22.815l-.335.221-4.012-5.719-1-1.43-1.036-1.385-2.075-2.807-2.069-2.809c-.688-.937-1.411-1.838-2.116-2.776-1.43-1.838-2.825-3.7-4.257-5.529q-8.665-10.944-17.668-21.615c-3.037-3.525-6.044-7.077-9.106-10.583l-2.29-2.635-2.31-2.617q-2.31-2.616-4.637-5.219-4.631-5.227-9.335-10.386t-9.437-10.295Z" transform="translate(-233.399 -708.505)"/><g class="d" transform="translate(46.816 176.392)"><path class="g" d="M244.754,895.991a.361.361,0,0,1-.3-.043c-11.2-7.425-14.376-15.754-15.068-21.435a21.815,21.815,0,0,1,1.213-10.7.362.362,0,1,1,.66.292,21.541,21.541,0,0,0-1.152,10.356c.682,5.515,3.793,13.622,14.745,20.881a.36.36,0,0,1-.094.646Z" transform="translate(-229.204 -863.579)"/></g><path class="f" d="M1254.555,502.848c3.5-16.673,12.125-30.563,23.107-39.336a48.356,48.356,0,0,0,17.9-31.607q.251-1.965.666-3.95c4.212-20.054,19.915-33.729,35.073-30.547s24.029,22.023,19.813,42.077a47.933,47.933,0,0,1-3.924,11.41,48.577,48.577,0,0,0-3.172,35.7,71.262,71.262,0,0,1,1.244,35.31c-3.916,18.645-14.233,33.807-27.093,42.228a47.621,47.621,0,0,0-12.533,11.959c-5.648,7.831-14.281,12.129-22.791,10.342-9.191-1.928-15.646-10.4-17.1-20.906a50.754,50.754,0,0,0-5.644-16.953C1253.41,536.058,1251.014,519.718,1254.555,502.848Z" transform="translate(-997.006 -315.869)"/><path class="c" d="M1421.526,498.19c-4.763,12.838-9.112,25.818-13.323,38.844-1.056,3.256-2.057,6.536-3.064,9.8l-1.518,4.9-1.477,4.917c-.972,3.282-1.99,6.55-2.925,9.843l-2.811,9.882c-1.787,6.61-3.63,13.2-5.292,19.846-.835,3.319-1.736,6.622-2.506,9.96l-2.351,10c-3,13.36-5.668,26.8-7.649,40.355l.582.092,1.869-10.084.462-2.521.525-2.508,1.058-5.017,1.048-5.017c.347-1.673.756-3.333,1.132-5,.77-3.329,1.516-6.665,2.308-9.988,3.268-13.277,6.692-26.511,10.4-39.671,1.9-6.565,3.75-13.148,5.7-19.7l1.448-4.918,1.489-4.9c.993-3.268,1.984-6.536,3.007-9.8q2.991-9.8,6.128-19.578c2.059-6.52,4.181-13.023,6.32-19.517Z" transform="translate(-1097.019 -396.431)"/><path class="e" d="M1659.177,491.236a.489.489,0,0,0,.343-.249c8.938-16.218,7.5-28.418,4.716-35.8a30.1,30.1,0,0,0-8.311-12.292.5.5,0,0,0-.613.778,29.649,29.649,0,0,1,8.021,11.914c2.69,7.176,4.064,19.057-4.676,34.916a.5.5,0,0,0,.2.676A.505.505,0,0,0,1659.177,491.236Z" transform="translate(-1317.086 -352.374)"/><path class="b" d="M1537.816,888.275c6.5-8.808,15.248-14.625,24-16.825a31.127,31.127,0,0,0,18.906-13.687q.668-1.083,1.444-2.13c7.823-10.593,20.63-14.4,28.627-8.5s8.119,19.268.3,29.86a30.9,30.9,0,0,1-5.341,5.619,31.3,31.3,0,0,0-11.4,20.017,45.884,45.884,0,0,1-8.722,20.959c-7.274,9.849-17.348,15.959-27.1,17.452a30.644,30.644,0,0,0-10.505,3.642c-5.388,3.064-11.575,3.28-16.059-.031-4.837-3.573-6.332-10.242-4.379-16.77a32.676,32.676,0,0,0,1.244-11.406C1528.259,907.373,1531.24,897.185,1537.816,888.275Z" transform="translate(-1214.899 -671.889)"/><path class="c" d="M1621.137,903c-6.214,6.23-12.223,12.654-18.165,19.141-1.485,1.622-2.945,3.268-4.41,4.9l-2.2,2.451-2.177,2.48c-1.446,1.657-2.912,3.295-4.338,4.97l-4.29,5.025c-2.811,3.385-5.65,6.74-8.4,10.182-1.375,1.718-2.784,3.407-4.126,5.151l-4.046,5.213c-5.325,7.006-10.478,14.149-15.26,21.537l.317.2,3.787-5.392.944-1.35.976-1.326,1.961-2.655,1.953-2.655c.651-.884,1.334-1.746,2-2.621,1.34-1.738,2.668-3.489,4.02-5.219q8.17-10.335,16.68-20.405c2.859-3.329,5.7-6.681,8.6-9.99l2.161-2.488,2.181-2.469c1.454-1.648,2.907-3.295,4.377-4.929q4.369-4.933,8.812-9.8t8.907-9.719Z" transform="translate(-1236.37 -718.555)"/><path class="c" d="M1638.782,903c-7.84,7.861-15.422,15.966-22.92,24.152-1.874,2.046-3.716,4.123-5.564,6.185l-2.773,3.093-2.748,3.129c-1.825,2.09-3.675,4.157-5.474,6.271l-5.412,6.34c-3.547,4.271-7.129,8.5-10.6,12.848-1.734,2.168-3.513,4.3-5.206,6.5l-5.106,6.577c-6.719,8.84-13.221,17.853-19.255,27.175l.4.258,4.778-6.8,1.191-1.7,1.232-1.673,2.474-3.35,2.464-3.35c.822-1.116,1.683-2.2,2.521-3.307,1.691-2.193,3.366-4.4,5.072-6.585q10.309-13.041,21.046-25.747c3.608-4.2,7.2-8.43,10.845-12.605l2.727-3.139,2.752-3.116c1.835-2.08,3.668-4.157,5.523-6.219q5.513-6.224,11.119-12.371t11.239-12.262Z" transform="translate(-1423.304 -743.18)"/><path class="h" d="M1872.781,908.29a.338.338,0,0,0,.288-.043c10.573-7.008,13.571-14.87,14.225-20.234a20.63,20.63,0,0,0-1.146-10.1.341.341,0,1,0-.623.276,20.344,20.344,0,0,1,1.088,9.778c-.645,5.208-3.583,12.868-13.922,19.711a.343.343,0,0,0-.094.474A.339.339,0,0,0,1872.781,908.29Z" transform="translate(-1490.061 -698.42)"/><path class="i" d="M795.246,1249.8s-2.86-19.829,19.447-21.355,131.174,2.29,131.174,2.29-4.575,22.115,0,31.648c-20.973-.19-142.232,0-142.232,0S794.535,1258.015,795.246,1249.8Z" transform="translate(-632.717 -977.241)"/><path class="j" d="M937.507,1235.485H801.174c-2.778,0-13.381.725-13.13-11.234a13.968,13.968,0,0,1,6.281-11.49,16.893,16.893,0,0,1,9.921-3.064H928.418c14.139,0,9.972-12.223,9.972-12.223l-.127.025-132.8-.18s-19.692,11.755-21.8,23.729a21.73,21.73,0,0,0,0,7.688,13.718,13.718,0,0,0,13.389,11.269H937.5a2.261,2.261,0,1,0,0-4.52Z" transform="translate(-623.323 -952.758)"/><path class="k" d="M1006.63,394.81H879V567.961h127.624c4.882,0,8.454-4.257,8.454-9.138V403.383A8.285,8.285,0,0,0,1006.63,394.81Z" transform="translate(-700 -313.81)"/><path class="l" d="M804.2,393.5s-20.587,4.1-19.068,19.974-.08,167.914-.08,167.914,6.181-14.768,19.147-14.768Z" transform="translate(-624.696 -313.125)"/><rect class="m" width="100.364" height="0.905" rx="0.452" transform="translate(198.987 259.219)"/><path class="n" d="M1020.46,1318.053c0,.159-.2.455-.386.455H904.007c-.184,0-.637-.3-.637-.455v-.423c0-.157.453-.025.637-.025h116.067c.182,0,.386-.133.386.025Z" transform="translate(-718.85 -1048.434)"/><rect class="o" width="74.141" height="1.356" rx="0.678" transform="translate(229.73 277.753)"/><path class="p" d="M899.4,898.607a.451.451,0,0,1-.451-.451V834.411a.451.451,0,0,1,.9,0v63.745A.451.451,0,0,1,899.4,898.607Z" transform="translate(-715.333 -663.617)"/><path class="p" d="M899.4,666.429a.451.451,0,0,1-.451-.453V635.241a.451.451,0,1,1,.9,0v30.741A.451.451,0,0,1,899.4,666.429Z" transform="translate(-715.333 -505.129)"/><path class="p" d="M899.4,435.933a.451.451,0,0,1-.451-.451V418.3a.451.451,0,1,1,.9,0v17.18A.451.451,0,0,1,899.4,435.933Z" transform="translate(-715.333 -332.501)"/><path class="q" d="M124.54,1136.319H227.955V1116.38H124.54C126.752,1116.37,126.752,1136.319,124.54,1136.319Z" transform="translate(-99.102 -888.351)"/><path class="r" d="M215.669,1113.717v-9.124c0-3.217-2.043-5.825-4.565-5.825H112.689a3.526,3.526,0,0,1-3.589-3.458,1.07,1.07,0,0,1,1.091-1.05H217.744c2.465,0,6.383,3.736,6.383,8.344v12.744c0,4.347-3.8,7.868-6.128,7.868H110.757a1.634,1.634,0,0,1-1.657-1.6,2.968,2.968,0,0,1,3.023-2.9h99.635C213.919,1118.717,215.669,1116.47,215.669,1113.717Z" transform="translate(-86.816 -870.748)"/><g transform="translate(28.567 231.658)"><path class="s" d="M237.389,1135.055H140.422a.453.453,0,0,1,0-.9h96.967a.453.453,0,0,1,0,.9Z" transform="translate(-139.97 -1134.15)"/><path class="o" d="M237.278,1149.543H140.311a.452.452,0,0,1,0-.9h96.967a.452.452,0,0,1,0,.9Z" transform="translate(-139.86 -1145.68)"/><path class="o" d="M237.278,1164.033H140.311a.451.451,0,1,1,0-.9h96.967a.451.451,0,1,1,0,.9Z" transform="translate(-139.86 -1157.21)"/><path class="t" d="M237.278,1178.482H140.311a.451.451,0,1,1,0-.9h96.967a.451.451,0,1,1,0,.9Z" transform="translate(-139.86 -1168.709)"/><path class="o" d="M237.278,1193.013H140.311a.451.451,0,1,1,0-.9h96.967a.451.451,0,1,1,0,.9Z" transform="translate(-139.86 -1180.271)"/></g><rect class="u" width="138.021" height="33.316" rx="16.658" transform="translate(8.491 252.254)"/><rect class="i" width="16.214" height="25.659" rx="8.107" transform="translate(24.09 256.084)"/><rect class="i" width="6.083" height="25.659" rx="3.041" transform="translate(42.69 256.084)"/><path class="p" d="M319.772,1044l.576-1.225a.231.231,0,1,1,.409.2h0l-.58,1.226h0a.227.227,0,0,1-.409-.192Z" transform="translate(-254.443 -829.652)"/><path class="p" d="M329.438,1024.223l.629-1.2a.245.245,0,0,1,.452.039.245.245,0,0,1-.017.187h0l-.633,1.195h0a.241.241,0,1,1-.427-.225Z" transform="translate(-262.129 -813.955)"/><path class="p" d="M339.984,1004.837l.68-1.176a.26.26,0,1,1,.451.259h0l-.684,1.166h0a.256.256,0,0,1-.447-.249Z" transform="translate(-270.516 -798.552)"/><path class="p" d="M351.366,985.993l.731-1.148a.276.276,0,0,1,.464.3h0l-.735,1.136h0a.27.27,0,0,1-.453-.292Z" transform="translate(-279.568 -783.594)"/><path class="p" d="M363.509,967.552l.78-1.113a.289.289,0,1,1,.474.331h0l-.788,1.115h0a.286.286,0,1,1-.468-.329Z" transform="translate(-289.217 -768.938)"/><path class="p" d="M376.523,949.7l.817-1.08a.3.3,0,1,1,.484.37h0l-.829,1.07h0a.3.3,0,0,1-.474-.366Z" transform="translate(-299.576 -754.765)"/><path class="p" d="M390.182,932.478l.87-1.046a.319.319,0,0,1,.49.409h0l-.872,1.034h0a.316.316,0,0,1-.482-.409Z" transform="translate(-310.43 -741.089)"/><path class="p" d="M404.589,915.732l.911-1.009a.333.333,0,0,1,.494.447h0l-.913,1h0a.329.329,0,0,1-.486-.443Z" transform="translate(-321.886 -727.797)"/><path class="p" d="M419.639,899.647l.954-.972a.348.348,0,0,1,.5.488h0l-.954.96h0a.344.344,0,0,1-.49-.482Z" transform="translate(-333.852 -715.031)"/><path class="p" d="M435.36,884.207l.991-.933a.364.364,0,0,1,.5.529h0l-.991.921h0a.358.358,0,1,1-.49-.523Z" transform="translate(-346.352 -702.785)"/><path class="p" d="M451.707,869.36l1.021-.893a.378.378,0,0,1,.5.57h0l-1.021.88h0a.374.374,0,0,1-.488-.566Z" transform="translate(-359.353 -691.003)"/><path class="p" d="M468.561,855.207l1.062-.852a.392.392,0,1,1,.49.613h0l-1.058.839h0a.39.39,0,1,1-.484-.613Z" transform="translate(-372.745 -679.778)"/><path class="p" d="M486.2,841.6l1.093-.817a.409.409,0,1,1,.484.654h0l-1.091.8h0a.409.409,0,0,1-.476-.65Z" transform="translate(-386.809 -668.963)"/><path class="p" d="M503.956,828.943l1.125-.768a.421.421,0,1,1,.474.7h0l-1.121.756h0a.417.417,0,1,1-.468-.69Z" transform="translate(-400.882 -658.956)"/><path class="p" d="M522.492,816.972l1.154-.723a.437.437,0,0,1,.464.739h0l-1.148.711h0a.433.433,0,0,1-.458-.733Z" transform="translate(-415.635 -649.481)"/><path class="p" d="M541.4,805.535l1.181-.678a.452.452,0,0,1,.449.784h0l-1.176.664h0a.447.447,0,0,1-.441-.776Z" transform="translate(-430.666 -640.411)"/><path class="p" d="M560.515,795.053l1.207-.631a.466.466,0,0,1,.429.817h0l-1.2.613h0a.462.462,0,1,1-.425-.817Z" transform="translate(-445.812 -632.133)"/><path class="p" d="M580.355,785.169l1.225-.58a.473.473,0,1,1,.409.854h0l-1.225.572h0a.472.472,0,0,1-.409-.852Z" transform="translate(-461.6 -624.294)"/><path class="p" d="M600.62,776.173l1.254-.533a.481.481,0,1,1,.376.884h0l-1.246.523h0a.48.48,0,0,1-.374-.882Z" transform="translate(-477.735 -617.179)"/><path class="p" d="M621.015,768.026l1.275-.484a.49.49,0,0,1,.347.915h0l-1.264.474h0a.488.488,0,0,1-.627-.286A.482.482,0,0,1,621.015,768.026Z" transform="translate(-493.929 -610.748)"/><path class="p" d="M641.79,760.612l1.291-.433a.5.5,0,0,1,.316.946h0l-1.291.427h0a.495.495,0,1,1-.311-.94Z" transform="translate(-510.435 -604.886)"/><path class="p" d="M662.908,754.122l1.309-.38a.507.507,0,0,1,.282.972h0l-1.3.372h0a.5.5,0,1,1-.278-.966Z" transform="translate(-527.226 -599.773)"/><path class="p" d="M684.342,748.434l1.324-.325a.515.515,0,1,1,.245,1h0l-1.311.317h0a.513.513,0,0,1-.243-.995Z" transform="translate(-544.281 -595.286)"/><path class="p" d="M705.788,743.656l1.336-.27a.523.523,0,1,1,.2,1.021h0l-1.326.264h0a.521.521,0,1,1-.2-1.021Z" transform="translate(-561.301 -591.527)"/><path class="p" d="M727.451,739.9l1.346-.2a.531.531,0,0,1,.165,1.048h0l-1.334.2h0a.529.529,0,1,1-.163-1.044Z" transform="translate(-578.497 -588.607)"/><path class="p" d="M749.37,736.928l1.354-.155a.539.539,0,1,1,.123,1.07h0l-1.34.149h0a.537.537,0,1,1-.12-1.066Z" transform="translate(-595.918 -586.276)"/><path class="p" d="M771.6,734.985l1.36-.1a.547.547,0,0,1,.078,1.091h0l-1.346.09h0a.545.545,0,0,1-.076-1.086Z" transform="translate(-613.623 -584.783)"/><path class="p" d="M793.546,733.977l1.362-.035a.556.556,0,1,1,.031,1.109h-.01l-1.348.031h0a.554.554,0,0,1-.026-1.107Z" transform="translate(-631.036 -584.028)"/><path class="p" d="M815.792,733.88l1.362.022a.564.564,0,1,1-.018,1.127h-.01L815.778,735h0a.562.562,0,0,1,.021-1.121Z" transform="translate(-648.736 -583.979)"/><path class="p" d="M837.812,734.58l1.362.078a.573.573,0,0,1-.067,1.144h0l-1.346-.082h0a.57.57,0,1,1,.068-1.138Z" transform="translate(-666.216 -584.536)"/><path class="p" d="M859.88,736.139l1.356.131a.581.581,0,0,1-.11,1.156h0l-1.342-.135h0a.579.579,0,1,1,.112-1.152Z" transform="translate(-683.751 -585.775)"/><path class="p" d="M881.738,738.545l1.352.18a.588.588,0,1,1-.155,1.166h0l-1.336-.182h0a.586.586,0,1,1,.155-1.16Z" transform="translate(-701.095 -587.686)"/><path class="p" d="M903.729,741.735l1.344.227a.6.6,0,0,1-.2,1.176h0l-1.33-.231h0a.6.6,0,0,1,.2-1.172Z" transform="translate(-718.593 -590.223)"/><path class="p" d="M925.5,745.656l1.334.261a.613.613,0,1,1-.239,1.187h0l-1.323-.272h0a.6.6,0,1,1,.241-1.181Z" transform="translate(-735.895 -593.337)"/><path class="p" d="M947.3,750.349l1.325.313a.613.613,0,1,1-.28,1.193h0l-1.313-.315h0a.613.613,0,0,1,.282-1.189Z" transform="translate(-753.258 -597.081)"/><path class="p" d="M968.533,755.6l1.315.351a.621.621,0,0,1-.318,1.2h0l-1.32-.354h0a.62.62,0,0,1,.321-1.2Z" transform="translate(-770.081 -601.244)"/><path class="p" d="M989.785,761.459l1.305.386a.627.627,0,0,1-.355,1.2h0l-1.295-.386h0a.627.627,0,1,1,.355-1.2Z" transform="translate(-786.958 -605.899)"/><path class="p" d="M1011.05,768.008l1.3.421a.63.63,0,1,1-.388,1.2h0l-1.287-.409h0a.63.63,0,1,1,.388-1.2Z" transform="translate(-803.887 -611.122)"/><path class="p" d="M1031.974,774.935l1.285.447a.633.633,0,1,1-.408,1.195h0l-1.275-.447h0a.631.631,0,1,1,.409-1.193Z" transform="translate(-820.507 -616.615)"/><path class="p" d="M1052.983,782.471l1.275.476a.636.636,0,0,1-.445,1.191h0l-1.266-.474h0a.635.635,0,0,1,.445-1.189Z" transform="translate(-837.247 -622.624)"/><path class="p" d="M1073.562,790.323l1.264.5a.639.639,0,0,1-.47,1.189h0l-1.258-.5h0a.638.638,0,1,1,.47-1.187Z" transform="translate(-853.589 -628.859)"/><path class="p" d="M1094.087,798.614l1.254.523a.641.641,0,1,1-.494,1.183h0l-1.248-.523h0a.64.64,0,1,1,.494-1.181Z" transform="translate(-869.911 -635.453)"/><path class="p" d="M1114.532,807.281l1.246.543a.644.644,0,0,1-.515,1.181h0l-1.24-.543h0a.643.643,0,0,1,.515-1.179Z" transform="translate(-886.185 -642.353)"/><path class="p" d="M1134.621,816.176l1.238.562a.646.646,0,1,1-.533,1.177h0l-1.225-.56h0a.645.645,0,1,1,.533-1.175Z" transform="translate(-902.131 -649.415)"/><path class="p" d="M1154.7,825.4l1.226.578a.65.65,0,0,1-.552,1.174h0l-1.225-.578h0a.65.65,0,1,1,.553-1.175Z" transform="translate(-918.097 -656.751)"/><path class="p" d="M1174.768,834.936l1.225.592a.652.652,0,0,1-.566,1.175h0l-1.226-.59a.652.652,0,0,1,.566-1.174Z" transform="translate(-934.069 -664.344)"/><path class="p" d="M1194.691,844.643l1.225.613a.656.656,0,1,1-.582,1.174h0l-1.213-.613a.654.654,0,0,1,.58-1.172Z" transform="translate(-949.924 -672.066)"/><path class="p" d="M1214.46,854.524l1.211.613a.658.658,0,0,1-.592,1.174h0l-1.207-.613a.656.656,0,0,1,.59-1.172Z" transform="translate(-965.643 -679.927)"/><path class="p" d="M1234.131,864.5l1.207.613a.66.66,0,1,1-.6,1.177h0l-1.205-.613a.66.66,0,1,1,.6-1.174Z" transform="translate(-981.277 -687.854)"/><path class="p" d="M1253.846,874.618l1.205.623a.664.664,0,1,1-.613,1.179h0l-1.2-.623a.664.664,0,0,1,.613-1.179Z" transform="translate(-996.968 -695.911)"/><path class="p" d="M1273.622,884.843l1.205.625a.666.666,0,1,1-.613,1.181h0l-1.2-.625a.666.666,0,0,1,.613-1.181Z" transform="translate(-1012.727 -704.059)"/><path class="p" d="M1293.015,894.917l1.2.623a.67.67,0,0,1-.613,1.189h0l-1.2-.625a.668.668,0,1,1,.613-1.185Z" transform="translate(-1028.106 -712.051)"/><path class="p" d="M1312.859,905.147l1.205.613a.672.672,0,0,1-.613,1.193h0l-1.205-.625a.67.67,0,0,1,.613-1.191Z" transform="translate(-1043.937 -720.204)"/><path class="p" d="M1332.447,915.3l1.207.613a.674.674,0,0,1-.613,1.2h0l-1.207-.613a.672.672,0,1,1,.613-1.2Z" transform="translate(-1059.506 -728.286)"/><path class="p" d="M1352.172,925.339l1.211.613a.678.678,0,1,1-.613,1.209h0l-1.211-.613a.676.676,0,1,1,.613-1.205Z" transform="translate(-1075.199 -736.276)"/><path class="p" d="M1371.857,935.248l1.213.613a.682.682,0,1,1-.6,1.225h0l-1.226-.613a.685.685,0,1,1,.613-1.226Z" transform="translate(-1090.856 -744.159)"/><path class="p" d="M1391.857,945.067l1.226.59a.682.682,0,1,1-.593,1.226h0l-1.225-.594a.682.682,0,0,1,.6-1.226Z" transform="translate(-1106.806 -751.982)"/><path class="p" d="M1411.355,954.479l1.226.578h0a.685.685,0,0,1-.586,1.238h0l-1.225-.582a.684.684,0,1,1,.584-1.226Z" transform="translate(-1122.236 -759.44)"/><path class="p" d="M1431.826,964.025l1.225.562h0a.688.688,0,1,1-.572,1.252h0l-1.226-.566a.688.688,0,0,1,.572-1.25Z" transform="translate(-1138.617 -767.076)"/><path class="p" d="M1451.712,973.007l1.24.545h0a.691.691,0,0,1-.556,1.264h0l-1.244-.547a.69.69,0,1,1,.556-1.262Z" transform="translate(-1154.392 -774.205)"/><path class="p" d="M1472.113,981.84l1.246.525h0a.694.694,0,0,1-.537,1.279h0l-1.254-.529a.692.692,0,1,1,.537-1.276Z" transform="translate(-1170.652 -781.247)"/><path class="p" d="M1492.542,990.285l1.256.5h0a.7.7,0,1,1-.516,1.293h0l-1.265-.5a.7.7,0,0,1,.517-1.291Z" transform="translate(-1186.914 -787.972)"/><path class="p" d="M1513.135,998.328l1.264.476h0a.7.7,0,1,1-.49,1.307h0l-1.272-.48a.7.7,0,1,1,.492-1.307Z" transform="translate(-1203.309 -794.373)"/><path class="p" d="M1533.737,1005.917l1.275.449h0a.7.7,0,1,1-.464,1.318l-1.285-.452a.7.7,0,1,1,.466-1.319h0Z" transform="translate(-1219.683 -800.406)"/><path class="p" d="M1554.652,1013.073l1.284.409h0a.7.7,0,1,1-.429,1.326l-1.3-.419a.7.7,0,1,1,.429-1.328h0Z" transform="translate(-1236.339 -806.099)"/><path class="p" d="M1575.764,1019.712l1.295.378h0a.695.695,0,1,1-.388,1.334l-1.307-.38a.7.7,0,1,1,.388-1.336h0Z" transform="translate(-1253.156 -811.394)"/><path class="p" d="M1597.205,1025.725l1.307.339h0a.693.693,0,1,1-.347,1.342l-1.32-.341a.693.693,0,1,1,.348-1.342h0Z" transform="translate(-1270.265 -816.194)"/><path class="p" d="M1618.779,1031.041l1.317.294h0a.691.691,0,1,1-.3,1.348l-1.332-.3a.692.692,0,0,1,.3-1.35h0Z" transform="translate(-1287.474 -820.432)"/><path class="p" d="M1640.308,1035.6l1.326.249h0a.688.688,0,0,1-.253,1.352l-1.342-.249a.689.689,0,1,1,.253-1.354h0Z" transform="translate(-1304.602 -824.057)"/><path class="p" d="M1640.526,1035.6l1.673.314h0a.869.869,0,0,1-.319,1.706l-1.693-.314a.869.869,0,1,1,.319-1.708h0Z" transform="translate(-1486.953 -841.592)"/><path class="p" d="M1662.092,1039.4l1.334.2h0a.686.686,0,0,1-.2,1.356l-1.35-.2a.687.687,0,1,1,.2-1.358h0Z" transform="translate(-1321.957 -827.089)"/><path class="p" d="M1662.3,1039.4l1.683.257h0a.866.866,0,0,1-.258,1.712l-1.7-.258a.867.867,0,0,1,.258-1.714h0Z" transform="translate(-1503.141 -844.421)"/><path class="p" d="M1683.98,1042.386l1.34.147h0a.684.684,0,0,1-.147,1.36l-1.356-.147a.685.685,0,0,1,.147-1.362h0Z" transform="translate(-1339.399 -829.466)"/><path class="p" d="M1706.023,1044.476l1.344.09h0a.682.682,0,0,1-.09,1.36l-1.363-.09a.683.683,0,0,1,.09-1.362h0Z" transform="translate(-1356.962 -831.131)"/><path class="p" d="M1728.094,1045.609l1.346.031h0a.68.68,0,0,1-.029,1.358l-1.367-.029a.68.68,0,1,1,.029-1.36h.01Z" transform="translate(-1374.55 -832.036)"/><path class="p" d="M1750.327,1045.576l1.346-.037h0a.676.676,0,1,1,.039,1.352l-1.367.039a.678.678,0,0,1-.039-1.354h0Z" transform="translate(-1392.295 -831.979)"/><path class="p" d="M1772.322,1044.275l1.342-.108h.01a.676.676,0,1,1,.108,1.346l-1.363.11a.676.676,0,0,1-.11-1.348Z" transform="translate(-1409.809 -830.884)"/><path class="p" d="M1794.184,1041.822l1.332-.182h.012a.674.674,0,0,1,.184,1.334l-1.356.186a.674.674,0,1,1-.184-1.334h.012Z" transform="translate(-1427.21 -828.875)"/><path class="p" d="M1816.142,1038.022l1.319-.261h.012a.67.67,0,1,1,.262,1.313l-1.342.27a.671.671,0,0,1-.264-1.315h0Z" transform="translate(-1444.743 -825.776)"/><path class="p" d="M1837.711,1032.926l1.3-.345h.012a.668.668,0,1,1,.345,1.291l-1.323.353a.668.668,0,1,1-.345-1.291h0Z" transform="translate(-1461.941 -821.65)"/><path class="p" d="M1859.044,1026.4l1.271-.433h.012a.666.666,0,1,1,.431,1.26l-1.3.443a.668.668,0,0,1-.431-1.262h0Z" transform="translate(-1478.978 -816.379)"/><path class="p" d="M1879.758,1018.438l1.238-.521h.012a.665.665,0,1,1,.514,1.226l-1.262.533a.666.666,0,0,1-.517-1.226h0Z" transform="translate(-1495.493 -809.959)"/><path class="p" d="M1899.763,1008.926l1.2-.613h.012a.662.662,0,1,1,.6,1.177l-1.226.625a.662.662,0,0,1-.6-1.178h0Z" transform="translate(-1511.422 -802.287)"/><path class="p" d="M1919.092,998.132l1.146-.7h.014a.659.659,0,0,1,.685,1.125l-1.171.713a.66.66,0,1,1-.686-1.125h0Z" transform="translate(-1526.822 -793.626)"/><path class="p" d="M1937.812,985.863l1.093-.778h.012a.656.656,0,1,1,.762,1.068l-1.115.8a.658.658,0,0,1-.764-1.07h0Z" transform="translate(-1541.783 -783.777)"/><path class="p" d="M1955.3,972.31l1.036-.854h0a.654.654,0,0,1,.833,1.009l-1.056.872a.656.656,0,1,1-.835-1.009h0Z" transform="translate(-1555.688 -772.91)"/><path class="p" d="M1972.047,957.6l.976-.923h0a.652.652,0,0,1,.895.948l-.995.941a.654.654,0,1,1-.9-.95h0Z" transform="translate(-1569.048 -761.127)"/><path class="p" d="M1987.884,941.844l.915-.982h0a.65.65,0,0,1,.952.884l-.931,1a.652.652,0,0,1-.954-.887h0Z" transform="translate(-1581.705 -748.518)"/><path class="p" d="M2002.676,925.279l.856-1.038h0a.648.648,0,0,1,1,.817l-.87,1.054a.649.649,0,0,1-1-.817h0Z" transform="translate(-1593.514 -735.295)"/><path class="p" d="M2016.29,907.622l.793-1.087h0a.645.645,0,1,1,1.043.76l-.8,1.107a.648.648,0,0,1-1.046-.762h0Z" transform="translate(-1604.351 -721.157)"/><path class="p" d="M2028.9,889.355l.731-1.132h0a.643.643,0,0,1,1.081.7l-.742,1.148a.644.644,0,1,1-1.083-.7h0Z" transform="translate(-1614.391 -706.563)"/><path class="p" d="M2040.558,870.431l.67-1.168h0a.641.641,0,1,1,1.113.637l-.676,1.187a.642.642,0,0,1-1.115-.637h0Z" transform="translate(-1623.686 -691.452)"/><path class="p" d="M2051.176,850.943l.613-1.2h0a.639.639,0,0,1,1.142.576l-.613,1.226a.639.639,0,1,1-1.141-.574h0Z" transform="translate(-1632.146 -675.895)"/><path class="p" d="M2060.756,831.049l.543-1.225h0a.637.637,0,0,1,1.165.515l-.55,1.25a.638.638,0,0,1-1.167-.515h0Z" transform="translate(-1639.782 -660.047)"/><path class="p" d="M2069.365,810.437l.479-1.258h0a.634.634,0,0,1,1.185.451l-.486,1.277a.636.636,0,0,1-1.187-.451h0Z" transform="translate(-1646.649 -643.573)"/><path class="p" d="M2076.79,789.672l.409-1.281h0a.633.633,0,0,1,1.2.392l-.422,1.3a.633.633,0,1,1-1.2-.392h0Z" transform="translate(-1652.548 -627.028)"/><path class="p" d="M2083.326,768.381l.356-1.3h0a.63.63,0,0,1,1.215.331l-.358,1.318a.635.635,0,0,1-1.226-.331h0Z" transform="translate(-1657.765 -610.029)"/><path class="p" d="M2088.846,746.956l.29-1.316h0a.628.628,0,0,1,1.226.27l-.293,1.334a.629.629,0,0,1-1.226-.27h0Z" transform="translate(-1662.177 -592.945)"/><path class="p" d="M2093.16,725.464l.227-1.328h0a.625.625,0,0,1,1.226.2l-.229,1.346a.625.625,0,1,1-1.226-.2h0Z" transform="translate(-1665.596 -575.864)"/><path class="p" d="M2096.6,703.353l.166-1.338h0a.617.617,0,0,1,1.226.149l-.164,1.354a.617.617,0,1,1-1.226-.147h0Z" transform="translate(-1668.353 -558.192)"/><path class="p" d="M2098.93,681.363l.1-1.342h0a.614.614,0,1,1,1.225.09l-.1,1.362a.614.614,0,1,1-1.226-.088h0Z" transform="translate(-1670.208 -540.669)"/><path class="p" d="M2100.2,659.676l.037-1.346h0a.613.613,0,0,1,1.209.033l-.032,1.364a.613.613,0,0,1-1.213-.031h0Z" transform="translate(-1671.219 -523.464)"/><path class="p" d="M2100.318,637.367l-.028-1.346h0a.6.6,0,0,1,1.2-.026l.033,1.364a.6.6,0,1,1-1.2.029h0Z" transform="translate(-1671.291 -505.648)"/><path class="p" d="M2099.238,615.193l-.094-1.344h0a.591.591,0,0,1,1.179-.082l.1,1.36a.593.593,0,1,1-1.183.086h0Z" transform="translate(-1670.378 -487.963)"/><path class="p" d="M2097.1,593.241l-.157-1.338h0a.584.584,0,1,1,1.16-.139l.163,1.356a.586.586,0,1,1-1.164.139h0Z" transform="translate(-1668.625 -470.482)"/><path class="p" d="M2093.891,571.388l-.223-1.33h0a.577.577,0,0,1,1.138-.192l.229,1.344a.58.58,0,1,1-1.142.2h0Z" transform="translate(-1666.015 -453.084)"/><path class="p" d="M2089.624,549.729l-.286-1.317h0a.57.57,0,1,1,1.113-.245l.3,1.332a.574.574,0,0,1-1.119.249h0Z" transform="translate(-1662.565 -435.843)"/><path class="p" d="M2084.274,528.311l-.354-1.3h0a.565.565,0,0,1,1.089-.3l.359,1.317a.566.566,0,1,1-1.09.3h0Z" transform="translate(-1658.25 -418.796)"/><path class="p" d="M2077.934,507.275l-.409-1.281h0a.558.558,0,0,1,1.058-.347l.427,1.3a.56.56,0,0,1-1.062.349h0Z" transform="translate(-1653.161 -402.082)"/><path class="p" d="M2070.4,486.6l-.49-1.256h0a.55.55,0,0,1,1.021-.4l.494,1.273a.551.551,0,0,1-1.021.4h0Z" transform="translate(-1647.098 -385.647)"/><path class="p" d="M2061.815,466.124l-.55-1.226h0a.544.544,0,0,1,.993-.443l.56,1.244a.545.545,0,1,1-.995.447h0Z" transform="translate(-1640.2 -369.33)"/><path class="p" d="M2052.229,446.365l-.614-1.2h0a.537.537,0,0,1,.954-.492l.627,1.213a.538.538,0,0,1-.956.494h0Z" transform="translate(-1632.519 -353.632)"/><path class="p" d="M2041.447,426.972l-.683-1.162h0a.53.53,0,0,1,.913-.537l.695,1.177a.532.532,0,1,1-.917.539h0Z" transform="translate(-1623.866 -338.199)"/><path class="p" d="M2029.682,408.3l-.742-1.125h0a.523.523,0,0,1,.872-.578l.753,1.138a.525.525,0,1,1-.874.58h0Z" transform="translate(-1614.446 -323.36)"/><path class="p" d="M2017.019,390.322l-.8-1.087h0a.517.517,0,0,1,.831-.613l.817,1.1a.519.519,0,1,1-.833.613h0Z" transform="translate(-1604.323 -309.089)"/><path class="p" d="M2003.383,372.88l-.85-1.046h0a.509.509,0,1,1,.788-.643l.864,1.056a.513.513,0,0,1-.793.647h0Z" transform="translate(-1593.41 -295.223)"/><path class="p" d="M1988.989,356.168l-.9-1h0a.5.5,0,0,1,.748-.672l.913,1.011a.5.5,0,0,1-.75.676h0Z" transform="translate(-1581.904 -281.951)"/><path class="p" d="M1973.826,340.26l-.948-.96h0a.5.5,0,0,1,.7-.7l.962.968a.5.5,0,0,1-.707.7h0Z" transform="translate(-1569.806 -269.34)"/><path class="p" d="M1957.814,324.994l-.995-.913h0a.488.488,0,0,1,.658-.721l1.009.919a.491.491,0,0,1-.662.725h0Z" transform="translate(-1557.007 -257.217)"/><path class="p" d="M1941.115,310.579l-1.038-.862h0a.482.482,0,0,1,.613-.744l1.052.868a.484.484,0,1,1-.613.746h0Z" transform="translate(-1543.674 -245.784)"/><path class="p" d="M1923.644,296.954l-1.081-.817h0a.474.474,0,0,1,.566-.762l1.1.817a.477.477,0,1,1-.568.766h0Z" transform="translate(-1529.714 -234.968)"/><path class="p" d="M1905.526,284.394l-1.123-.748h0a.468.468,0,0,1,.517-.78l1.137.752a.47.47,0,1,1-.519.784h0Z" transform="translate(-1515.249 -225.027)"/><path class="p" d="M1886.815,272.871l-1.162-.684h0a.46.46,0,0,1,.464-.793l1.18.684a.464.464,0,1,1-.466.8h0Z" transform="translate(-1500.328 -215.918)"/><path class="p" d="M1867.369,262.379l-1.2-.613h0a.449.449,0,0,1,.409-.8l1.225.613a.457.457,0,0,1-.408.817h0Z" transform="translate(-1484.796 -207.624)"/><path class="p" d="M1847.389,253.2l-1.236-.535h0a.435.435,0,0,1,.343-.8l1.256.535a.439.439,0,0,1-.345.807h0Z" transform="translate(-1468.868 -200.401)"/><path class="p" d="M1826.735,245.287l-1.269-.451h0a.423.423,0,0,1,.28-.8l1.289.449a.432.432,0,0,1-.28.817h-.012Z" transform="translate(-1452.376 -194.171)"/><path class="p" d="M1805.661,238.854l-1.3-.359h0a.411.411,0,1,1,.219-.793l1.318.357a.415.415,0,0,1-.217.8h-.012Z" transform="translate(-1435.569 -189.137)"/><path class="p" d="M1784.471,234.032l-1.322-.259h0a.409.409,0,0,1,.154-.782l1.34.255a.409.409,0,1,1-.151.79h0Z" transform="translate(-1418.734 -185.4)"/><path class="p" d="M1762.353,230.833l-1.338-.155h0a.386.386,0,1,1,.088-.768l1.356.149a.39.39,0,1,1-.086.776h0Z" transform="translate(-1401.043 -182.947)"/><path class="p" d="M1740.394,229.442l-1.346-.043h-.01a.376.376,0,0,1,.022-.75l1.365.039a.378.378,0,1,1-.021.754h0Z" transform="translate(-1383.557 -181.946)"/><path class="p" d="M1718.365,229.516l-1.35.043h0a.364.364,0,0,1-.027-.725l1.362-.051a.368.368,0,1,1,.027.733h0Z" transform="translate(-1366.021 -182.05)"/><path class="p" d="M1696.335,230.744l-1.344.123h0a.353.353,0,0,1-.065-.7l1.356-.129a.355.355,0,1,1,.068.707h0Z" transform="translate(-1348.485 -183.046)"/><path class="p" d="M1674.391,233.285l-1.332.2h0a.341.341,0,0,1-.108-.674l1.346-.219a.345.345,0,1,1,.11.68h0Z" transform="translate(-1331.01 -185.08)"/><path class="p" d="M1652.78,237.418l-1.313.308h0a.33.33,0,1,1-.153-.641l1.328-.321a.334.334,0,1,1,.155.65h0Z" transform="translate(-1313.819 -188.396)"/><path class="p" d="M1631.575,243.18l-1.281.421h0a.319.319,0,0,1-.409-.2.315.315,0,0,1,.2-.409l1.295-.433a.323.323,0,1,1,.2.613h0Z" transform="translate(-1296.955 -192.998)"/><path class="p" d="M1611.191,250.871l-1.225.543h0a.308.308,0,0,1-.251-.562l1.248-.558a.311.311,0,0,1,.253.568h0Z" transform="translate(-1280.789 -199.148)"/><path class="p" d="M1591.562,260.636l-1.164.676h0a.3.3,0,1,1-.3-.513l1.179-.692a.3.3,0,0,1,.3.517h0Z" transform="translate(-1265.192 -206.951)"/><path class="p" d="M1573.38,272.536l-1.066.817h-.01a.285.285,0,1,1-.347-.451l1.081-.837a.29.29,0,1,1,.353.458h0Z" transform="translate(-1250.785 -216.432)"/><path class="p" d="M1557.194,286.963l-.938.962v.01a.276.276,0,0,1-.394-.384l.95-.985a.281.281,0,1,1,.409.386h0Z" transform="translate(-1238.013 -227.963)"/><path class="p" d="M1543.375,303.682l-.774,1.1h0a.263.263,0,0,1-.431-.3l.784-1.123a.268.268,0,0,1,.437.306h0Z" transform="translate(-1227.138 -241.314)"/><path class="p" d="M1532.584,322.528l-.576,1.213v.012a.253.253,0,0,1-.458-.216l.582-1.24a.256.256,0,1,1,.464.219h0Z" transform="translate(-1218.705 -256.348)"/><path class="p" d="M1525.268,342.927l-.358,1.295v.012a.245.245,0,0,1-.3.169.239.239,0,0,1-.167-.3l.357-1.322a.245.245,0,1,1,.472.127h0Z" transform="translate(-1213.059 -272.609)"/><path class="p" d="M1521.7,364.648l-.129,1.338V366a.231.231,0,0,1-.46-.043l.125-1.362a.234.234,0,1,1,.466.043h0Z" transform="translate(-1210.416 -289.952)"/><path class="u" d="M215.476,397.333,155.126,397a3.168,3.168,0,0,0-2.735,4.8l.3.5a3.166,3.166,0,0,0,2.715,1.538h60.066a3.168,3.168,0,0,0,3.158-3.164v-.17A3.168,3.168,0,0,0,215.476,397.333Z" transform="translate(-120.905 -315.909)"/><path class="u" d="M504.32,402.171v.1a3.168,3.168,0,0,0,3.168,3.168h13.4a3.166,3.166,0,0,0,3.064-2.351h0a3.166,3.166,0,0,0-3.037-3.985l-13.4-.1a3.166,3.166,0,0,0-3.195,3.162Z" transform="translate(-401.309 -317.509)"/><path class="u" d="M201.007,453l-45.839-.337a3.17,3.17,0,0,0-2.735,4.8l.3.5a3.166,3.166,0,0,0,2.715,1.538H200.98a3.168,3.168,0,0,0,3.168-3.168v-.169A3.168,3.168,0,0,0,201.007,453Z" transform="translate(-120.938 -360.201)"/><path class="u" d="M433.23,457.828v.1a3.17,3.17,0,0,0,3.17,3.168h13.4a3.168,3.168,0,0,0,3.064-2.351h0a3.168,3.168,0,0,0-3.037-3.985l-13.4-.1a3.168,3.168,0,0,0-3.195,3.168Z" transform="translate(-344.74 -361.792)"/><path class="u" d="M1761.488,1019.679l-60.9-.339a3.2,3.2,0,0,0-2.76,4.843l.306.509a3.2,3.2,0,0,0,2.741,1.552h60.593a3.2,3.2,0,0,0,3.2-3.2v-.172A3.2,3.2,0,0,0,1761.488,1019.679Z" transform="translate(-1350.674 -811.132)"/><path class="u" d="M2052.91,1024.546v.1a3.2,3.2,0,0,0,3.2,3.2h13.52a3.2,3.2,0,0,0,3.089-2.373h0a3.2,3.2,0,0,0-3.064-4.02l-13.518-.1a3.2,3.2,0,0,0-3.223,3.2Z" transform="translate(-1633.588 -812.731)"/><path class="u" d="M1746.838,1075.869l-46.248-.339a3.2,3.2,0,0,0-2.76,4.843l.306.509a3.2,3.2,0,0,0,2.741,1.55h45.944a3.2,3.2,0,0,0,3.2-3.2v-.17A3.2,3.2,0,0,0,1746.838,1075.869Z" transform="translate(-1350.674 -855.845)"/><path class="u" d="M1981.19,1080.736v.1a3.2,3.2,0,0,0,3.2,3.2H1997.9a3.2,3.2,0,0,0,3.088-2.371h0a3.2,3.2,0,0,0-3.064-4.022l-13.518-.1a3.2,3.2,0,0,0-3.217,3.2Z" transform="translate(-1576.518 -857.444)"/><path class="v" d="M1799.871,829.8s-3.852-3.193-2.8-6.5c0,0,.112-3.164.96-1.634S1799.871,829.8,1799.871,829.8Z" transform="translate(-1429.859 -653.507)"/><path class="w" d="M1806.18,805.347s0,17.975,7.88,16.508c4.814-.895,7.664-20.256,7.664-20.256s-4.982-11.1-5.537-7.464C1812.142,820.535,1809.132,800.33,1806.18,805.347Z" transform="translate(-1437.255 -631.346)"/><path class="x" d="M1834.336,1374.17s.594,3.369.886,6.7a2.3,2.3,0,0,1-2.2,2.49c-4.44.184-13.938.543-17.345.392a.749.749,0,0,1-.66-1.021h0a1.673,1.673,0,0,1,.858-.9l15.689-7.21Z" transform="translate(-1444.248 -1093.486)"/><path class="y" d="M1892.294,1362.037l-.48,4.028s-2.747,1.281-4.625-.161l1.138-4.493Z" transform="translate(-1501.718 -1083.332)"/><path class="z" d="M1893.221,993.632c.2,1.052,1.107,52.5-4.391,75.563a.781.781,0,0,0,.458.909,13.587,13.587,0,0,0,4.479.911,1.349,1.349,0,0,0,1.338-.968c1.573-5.349,9.106-32.152,10.088-57.758,1.1-28.61,0-.974,0-.974l-.644-17.685Z" transform="translate(-1503.004 -790.674)"/><path class="x" d="M1973.66,1382.77a24.3,24.3,0,0,1,1.863,6.22,1.4,1.4,0,0,1-1.225,1.679c-1.465.143-3.722.329-5.532.317a1.4,1.4,0,0,1-1.382-1.558,11.753,11.753,0,0,1,2.751-6.465Z" transform="translate(-1565.524 -1100.329)"/><path class="aa" d="M1985.056,1356.477l-1.117,6.093a3.961,3.961,0,0,1-3.289.227l.533-6.557Z" transform="translate(-1576.088 -1079.218)"/><path class="z" d="M1930.463,990.325c4.494,27.146-.976,67.1-2.821,74.916a1.226,1.226,0,0,1-.985.925,8.192,8.192,0,0,1-3.519-.141,1.117,1.117,0,0,1-.8-1.021c-.247-6.332.2-45.129-3.993-60.46a3.483,3.483,0,0,0-1.344-1.922l-8.136-5.784-.613-9.347Z" transform="translate(-1518.476 -785.788)"/><path class="ab" d="M1880.626,833.969c-3.611.445-11.107-.359-17.805-1.291l-1.687-.241c-4.9-.713-9.143-1.446-10.715-1.724a.817.817,0,0,1-.678-.784l-1.293-40.4-.039-.747.067-1.43c-2.331-8.1-4.661-15.391-4.661-15.391-3.295-.409-6.383,1.254-5.674-3.317s5.223-15.379,7.292-15.585a76.217,76.217,0,0,1,28.849,2.512c.868,5.072,2.043,15.385,2.043,15.385s4.118,53.311,5.021,62.112A.817.817,0,0,1,1880.626,833.969Z" transform="translate(-1462.607 -598.934)"/><path class="e" d="M1800.164,802.665l-3.19-.123,2.835-.817c.049-.014-.033-.057-.033-.108v-.345c0-.031.082-.063.057-.084s0-.031-.041-.027l-17.9,2.353s-3.095-8.546-3.652-9.416-1.879-.043-1.879-.043l3.195,11.971,21.128-1.534v-1.373A.531.531,0,0,0,1800.164,802.665Z" transform="translate(-1413.526 -631.581)"/><path class="ac" d="M1801.472,821.523l-4.988-16.326a1.664,1.664,0,0,0-1.691-1.174l-19.274,1.168a.612.612,0,0,1-.613-.408l-3.333-9.437a1,1,0,0,0-.94-.666.6.6,0,0,0-.576.756l2.725,9.982a10.817,10.817,0,0,0,.613,1.655l7.353,16.014a1.188,1.188,0,0,0,1.021.715H1799.9a1.734,1.734,0,0,0,1.338-.737,1.806,1.806,0,0,0,.237-1.54Z" transform="translate(-1408.494 -632.36)"/><path class="ad" d="M1906.532,704.16l4.289,11.894a.409.409,0,0,1-.2.515,10.13,10.13,0,0,1-10.621.084c-.529-.321-.729-1.6-.817-2.2l-1.389-10.293Z" transform="translate(-1510.153 -560.33)"/><path class="ae" d="M1924.7,848.765l-1.687-.241c-5.078-28.68-7.188-75.062-7.212-75.563l1.62-.071C1917.442,773.394,1919.574,820.259,1924.7,848.765Z" transform="translate(-1524.484 -615.021)"/><path class="af" d="M1871.094,680.718s-.637,2.343,2.226,3.182.723-5.411.723-5.411Z" transform="translate(-1488.862 -539.903)"/><path class="x" d="M1915.906,751.095c-.264-.525-.9-1.8-1.447-2.968a.272.272,0,0,0-.331-.141c-1.142.376-5.176,1.13-6.581,1.387a.688.688,0,0,0-.558.58l-.323,2.345-.738-2.376a.687.687,0,0,0-.408-.437l-1.634-.635a.269.269,0,0,0-.249.027.275.275,0,0,0-.118.221l-.023,1.174s-.521,2.594,3.3,3.519c2.5.613,7.762-1.761,8.987-2.329a.273.273,0,0,0,.141-.157.278.278,0,0,0-.019-.21Z" transform="translate(-1514.675 -595.193)"/><path class="ag" d="M1877.89,674.385s1.387,9.943,3.975,12.488,7.167-1.085,9.6-6.43l-2.731-9.843Z" transform="translate(-1494.317 -533.625)"/><path class="ah" d="M1888.706,666.451h-.088c-.035-.139-.817-1.838-18.2,3.519,0,0-.464,1.634.2,1.938.6.267,6.608-.962,10.062-2.316a1.021,1.021,0,0,1,1.379.8c.229,1.646-.437,2.806-.28,3.139.174.368,3.064,1.465,3.309,2.151.155.431.347.893.515,1.279a.437.437,0,0,0,.8,0c.558-1.256,1.548-3.534,1.977-4.759a3.068,3.068,0,0,1,.566-.978C1889.711,670.346,1891.127,668.2,1888.706,666.451Z" transform="translate(-1488.248 -530.034)"/><path class="ai" d="M1929.36,693.908s1.367-3.832,2.7-2.406-.8,4.044-2.533,4.408Z" transform="translate(-1535.274 -550.004)"/><path class="aj" d="M1888.522,636.711a.674.674,0,0,1-.453.364l-17.848,4.277a.68.68,0,0,1-.837-.711l.045-.572.062-.713h0l.047-.688.051-.717.368-4.939a3.028,3.028,0,0,1,.085-.533,2.9,2.9,0,0,1,.3-.762,3.087,3.087,0,0,1,2.094-1.5l9.868-1.928a3.081,3.081,0,0,1,2.042.3,3.119,3.119,0,0,1,.717.529,3.047,3.047,0,0,1,.633.9l1.783,3.862.3.641.272.588.3.641.176.38A.678.678,0,0,1,1888.522,636.711Z" transform="translate(-1487.547 -499.908)"/><g transform="translate(381.881 135.204)"><path class="e" d="M1888.532,662.569a186.385,186.385,0,0,1-18.922,4.318l.062-.713h0a187.026,187.026,0,0,0,18.565-4.244Z" transform="translate(-1869.61 -661.93)"/></g><g transform="translate(381.989 134.052)"><path class="e" d="M1888.386,656.9c-9.135,2.551-16.545,3.726-18.247,4.189h0l.053-.694h0c1.951-.464,9.112-1.65,17.9-4.1Z" transform="translate(-1870.14 -656.29)"/></g><g transform="translate(382.494 128.68)"><path class="e" d="M1887.637,630.519c-6.914,1.838-12.564,2.921-15.027,3.36a2.9,2.9,0,0,1,.3-.762c2.566-.464,7.731-1.477,14.006-3.127A3.124,3.124,0,0,1,1887.637,630.519Z" transform="translate(-1872.61 -629.99)"/></g><path class="ak" d="M1950.77,776.3a47.752,47.752,0,0,0-9.851-9.433l-2.819,7.119a8.91,8.91,0,0,0,1.883,9.475,12.556,12.556,0,0,1,3.6,6.06h0a5.429,5.429,0,0,1-1.021,3.85c-4.769,6.822-18.906-1.168-18.906-1.168l-1.877,3.491s22.723,16.136,31.08.844a14.9,14.9,0,0,0,1.127-2.874A19.556,19.556,0,0,0,1950.77,776.3Z" transform="translate(-1529.243 -610.231)"/><path class="al" d="M1892.945,872.727s1.074-4.42.641-5.989-1.274-3.583-4.085-3.135a40.052,40.052,0,0,0-6.1,1.634,1.6,1.6,0,0,0,2.294,1.383l-1.319,1.021s.19,1.634,1.987.762l-1.226,1.354a1.431,1.431,0,0,0,2.094.482C1888.551,869.379,1889.194,873.258,1892.945,872.727Z" transform="translate(-1498.702 -687.155)"/><path class="am" d="M1585.78,1128.17s1.354,5.454,7.925,5.333c6.693-.122,7.292-5.764,7.292-5.764l-4.374-.935-.365-4.874-6.577.488-.122,4.628Z" transform="translate(-1261.873 -892.767)"/><path class="an" d="M1604.98,1129.8s-1.709,6.882-10,6.729c-8.446-.154-9.2-7.273-9.2-7.273l5.518-1.18.461-6.15,8.3.616.154,5.84Z" transform="translate(-1447.094 -905.687)"/><path class="ao" d="M1563.423,1160.836h0c-1.27-4.653-3.352-9.349-6.894-11.87a18.218,18.218,0,0,0-5.568-2.247l-.178-.047c-.151-.037-.3-.067-.46-.09l-3.913-.844-3.052,1.5-4.014-1.258s-4,.774-4.112.817h0a16.33,16.33,0,0,0-4.636,2.218c-3.783,2.6-6.228,9.333-6.5,11.438-.014.035-5.343,14.86,4.735,23.14l-.066,2.656,15.289,7.674,13.4-6.853.057-2.322C1567.3,1177.161,1563.423,1160.836,1563.423,1160.836Z" transform="translate(-1211.658 -911.714)"/><path class="ao" d="M1574.09,1164.788h0c-1.6-5.871-4.229-11.8-8.7-14.977a22.989,22.989,0,0,0-7.026-2.835l-.224-.059c-.191-.046-.384-.085-.58-.113l-4.938-1.064-3.851,1.894-5.064-1.588s-5.046.977-5.188,1.031h0a20.6,20.6,0,0,0-5.85,2.8c-4.773,3.284-7.858,11.776-8.2,14.432-.018.044-6.742,18.75,5.974,29.2l-.083,3.351,19.291,9.682,16.9-8.646.072-2.93C1578.984,1185.386,1574.09,1164.788,1574.09,1164.788Z" transform="translate(-1400.253 -923.36)"/><rect class="ap" width="1.853" height="24.072" transform="translate(330.79 235.827)"/><rect class="ap" width="2.338" height="30.373" transform="translate(148.371 224.653)"/><path class="aq" d="M1607.968,1138.531a.256.256,0,0,0-.131-.149.246.246,0,0,0-.2,0l-3.219,1.226a.2.2,0,0,0-.119.124l-.268.842-.088-.8a.2.2,0,0,0-.139-.167l-4.369-1.344a.252.252,0,0,0-.323.224l-.079,1.5s3.106,2.122,4.9,2.189,4.493-2.165,4.493-2.165Z" transform="translate(-1272.417 -905.753)"/><path class="ar" d="M1599.607,1138.6a.324.324,0,0,1,.165-.188.31.31,0,0,1,.258,0l4.062,1.547a.256.256,0,0,1,.15.157l.338,1.062.111-1.013a.258.258,0,0,1,.176-.211l5.512-1.7a.317.317,0,0,1,.408.283l.1,1.9s-3.92,2.678-6.185,2.763-5.67-2.732-5.67-2.732Z" transform="translate(-1455.438 -917.799)"/><path class="as" d="M1581.572,1061.536c-.061.117-3.942,2.972-3.942,2.972s.856,6.128,4.336,8.554c3.828,2.655,9.232-2.191,9.232-2.191s4.3,1.021,6.589-7.931c.525-2.055-2.5-2.229-6.161-1.85C1586.914,1061.577,1581.572,1061.536,1581.572,1061.536Z" transform="translate(-1255.388 -844.226)"/><path class="as" d="M1582.6,1061.695c-.077.147-4.974,3.75-4.974,3.75s1.08,7.732,5.471,10.793c4.83,3.35,11.649-2.765,11.649-2.765s5.428,1.288,8.314-10.008c.662-2.593-3.16-2.812-7.773-2.335C1589.344,1061.746,1582.6,1061.695,1582.6,1061.695Z" transform="translate(-1441.045 -860.407)"/><path class="at" d="M1597.827,1058.88s-7.539,14.6,1.4,18.144c6.307,2.5,10.262-9.7,9.082-13-1.824-5.107-3.023-4.494-3.023-4.494Z" transform="translate(-1269.095 -842.596)"/><path class="au" d="M1608.347,1058.88s9.512,18.424-1.77,22.894c-7.958,3.152-12.948-12.234-11.459-16.4,2.3-6.444,3.814-5.67,3.814-5.67Z" transform="translate(-1454.573 -858.886)"/><path class="as" d="M1596.172,1034.069c3.724,1.021.542,9.1-5.063,7.19s-7.811-1.883-8.683-.343-1.062,7.006-2.958,4.3c-2.079-2.962-3.237-8.908-.688-10.826,2.276-1.712,2.808-4.369,5.539-4.277,3.625.123,6.428-1.485,8.066-.325C1594.264,1031.132,1593.433,1033.315,1596.172,1034.069Z" transform="translate(-1255.143 -819.113)"/><path class="as" d="M1579.35,1035.3c-4.7,1.288-.683,11.482,6.389,9.072s9.855-2.376,10.956-.433,1.34,8.84,3.732,5.43c2.624-3.737,4.085-11.24.868-13.66-2.871-2.16-3.544-5.513-6.99-5.4-4.574.155-8.11-1.874-10.178-.41C1581.757,1031.594,1582.806,1034.348,1579.35,1035.3Z" transform="translate(-1441.093 -836.98)"/><path class="av" d="M1593.169,1089.426s-1.608-1.73-1.865.355.568,4.769,1.536,3.3A5.033,5.033,0,0,0,1593.169,1089.426Z" transform="translate(-1266.231 -866.367)"/><path class="aj" d="M1595.592,1030.61a.731.731,0,0,1-.578.26l-20.017-.386a.744.744,0,0,1-.689-.981l.2-.59.26-.735h0l.237-.715.251-.74,1.744-5.107a3.342,3.342,0,0,1,.237-.539,3.261,3.261,0,0,1,.531-.721,3.37,3.37,0,0,1,2.621-1.011l10.944.676a3.348,3.348,0,0,1,2.686,1.634,3.292,3.292,0,0,1,.421,1.121l.817,4.569.137.758.125.695.137.758.082.449A.744.744,0,0,1,1595.592,1030.61Z" transform="translate(-1252.714 -811.131)"/><path class="aj" d="M1574.475,1033.56a.922.922,0,0,0,.729.327l25.257-.487a.939.939,0,0,0,.869-1.237l-.258-.745-.327-.928h0l-.3-.9-.317-.933-2.2-6.443a4.211,4.211,0,0,0-.3-.68,4.114,4.114,0,0,0-.67-.91,4.253,4.253,0,0,0-3.307-1.276l-13.809.853a4.224,4.224,0,0,0-3.389,2.062,4.153,4.153,0,0,0-.531,1.414l-1.031,5.765-.173.956-.157.877-.173.956-.1.567A.939.939,0,0,0,1574.475,1033.56Z" transform="translate(-1438.55 -829.535)"/><g transform="translate(321.807 217.046)"><path class="p" d="M1596.655,1063.982a203.839,203.839,0,0,1-21.155-.637l.26-.735h0a203.585,203.585,0,0,0,20.756.613Z" transform="translate(-1575.5 -1062.61)"/></g><g transform="translate(135.819 200.956)"><path class="p" d="M1575.5,1064.342a257.167,257.167,0,0,0,26.692-.8l-.327-.928h0a256.854,256.854,0,0,1-26.19.773Z" transform="translate(-1575.5 -1062.61)"/></g><g transform="translate(322.281 215.696)"><path class="p" d="M1598.227,1057.317c-10.342.184-18.486-.613-20.407-.59h0l.241-.727h0c2.186.047,10.07.76,20.017.586Z" transform="translate(-1577.82 -1056)"/></g><g transform="translate(136.164 199.252)"><path class="p" d="M1577.82,1057.662c13.049.232,23.324-.773,25.749-.745h0l-.3-.918h0c-2.758.059-12.706.959-25.257.739Z" transform="translate(-1577.82 -1056)"/></g><g transform="translate(324.532 209.215)"><path class="p" d="M1605.621,1025.573c-7.8.041-14.061-.367-16.782-.582a3.267,3.267,0,0,1,.531-.721c2.833.216,8.564.564,15.638.545A3.376,3.376,0,0,1,1605.621,1025.573Z" transform="translate(-1588.84 -1024.27)"/></g><path class="aw" d="M1566.395,1225.446a.978.978,0,0,0-.817-.141l-17.157,4.918-16.953-4.915a1.579,1.579,0,0,0-1.046.139c-.216.163-.631.409-.631.69v.885l18.536,6.274,18.536-5.258v-1.9A1.03,1.03,0,0,0,1566.395,1225.446Z" transform="translate(-1217.32 -975)"/><path class="aw" d="M1575.977,1225.492a1.234,1.234,0,0,0-1.031-.178l-21.648,6.206-21.391-6.2a1.992,1.992,0,0,0-1.32.175c-.273.206-.8.516-.8.871v1.116l23.388,7.917,23.388-6.634v-2.4A1.3,1.3,0,0,0,1575.977,1225.492Z" transform="translate(-1405.535 -982.393)"/><path class="ac" d="M1546.346,1233.1l-17.68-4.191a.866.866,0,0,0-1.066.858l.409,19.686a.868.868,0,0,0,.691.829l18.105,3.711Z" transform="translate(-1215.576 -977.876)"/><path class="ac" d="M1551.253,1234.2l-22.308-5.289A1.093,1.093,0,0,0,1527.6,1230l.516,24.839a1.1,1.1,0,0,0,.871,1.047l22.845,4.682Z" transform="translate(-1403.908 -985.076)"/><path class="ac" d="M1624.349,1233.1l17.681-4.191a.862.862,0,0,1,1.064.858l-.408,19.686a.869.869,0,0,1-.69.829l-18.106,3.711Z" transform="translate(-1292.199 -977.874)"/><path class="ac" d="M1624.469,1234.2l22.309-5.289a1.087,1.087,0,0,1,1.343,1.083l-.515,24.839a1.1,1.1,0,0,1-.871,1.046l-22.845,4.682Z" transform="translate(-1475.382 -985.074)"/><rect class="ax" width="4.069" height="21.7" rx="2.034" transform="translate(328.735 254.427)"/><rect class="ax" width="5.134" height="27.381" rx="2.567" transform="translate(144.778 248.122)"/><path class="ay" d="M1527.138,1261.028c-.394-1.021-2.492.112-3.207.537a.176.176,0,0,1-.172,0,.183.183,0,0,1-.1-.141l-.194-1.534-.668,1.462c-1.07,1.581-.2,5.468-.2,5.468.259,1.7,2.261,1.16,3.748.655S1527.614,1262.278,1527.138,1261.028Z" transform="translate(-1211.328 -1002.548)"/><path class="ay" d="M1528.415,1261.325c-.5-1.289-3.144.142-4.047.678a.223.223,0,0,1-.216,0,.231.231,0,0,1-.129-.178l-.245-1.936-.843,1.845c-1.35,1.995-.258,6.9-.258,6.9.327,2.141,2.853,1.464,4.729.827S1529.015,1262.9,1528.415,1261.325Z" transform="translate(-1399.946 -1008.09)"/><path class="az" d="M1698,1261.059c.394-1.021,2.494.112,3.207.537a.18.18,0,0,0,.274-.133l.194-1.534.668,1.463c1.072,1.581.2,5.468.2,5.468-.259,1.7-2.259,1.16-3.746.656S1697.528,1262.31,1698,1261.059Z" transform="translate(-1350.894 -1002.58)"/><path class="az" d="M1698.1,1261.378c.505-1.309,3.2.144,4.111.689a.231.231,0,0,0,.351-.171l.249-1.967.856,1.875c1.375,2.027.262,7.011.262,7.011-.333,2.177-2.9,1.488-4.8.841S1697.494,1262.981,1698.1,1261.378Z" transform="translate(-1530.275 -1004.861)"/><path class="x" d="M1711.855,1377.927c-3.364-.762-11.126-.353-11.126-.353l-.315.856-.525,4.255a88.355,88.355,0,0,0,11.048,1.33,3.453,3.453,0,0,0,1.021-.151c.11-.1.218-.2.323-.317A4.018,4.018,0,0,0,1711.855,1377.927Z" transform="translate(-1352.675 -1096.107)"/><path class="x" d="M1701.994,1378.167c5.106-1.156,16.888-.536,16.888-.536l.478,1.3.8,6.458s-11.234,2.025-16.771,2.019a5.241,5.241,0,0,1-1.55-.229c-.167-.152-.331-.31-.49-.481C1699,1384.141,1699.681,1380.356,1701.994,1378.167Z" transform="translate(-1591.231 -1097.499)"/><path class="ba" d="M1691.313,1376.81l1.315.055a2.536,2.536,0,0,1,1.838.956,3.112,3.112,0,0,1,.678,2.134,2.45,2.45,0,0,1-.711,1.622,1.99,1.99,0,0,1-1.54.584l-2.014-.143Z" transform="translate(-1345.505 -1095.586)"/><path class="bb" d="M1697.45,1376.81l-2.252.094a4.343,4.343,0,0,0-3.147,1.637,5.33,5.33,0,0,0-1.161,3.654,4.2,4.2,0,0,0,1.217,2.776,3.408,3.408,0,0,0,2.637,1l3.448-.245Z" transform="translate(-1567.512 -1097.4)"/><path class="x" d="M1470.738,1376.553c3.38-.67,11.136-.016,11.136-.016l.294.866.409,4.269a88.389,88.389,0,0,1-11.075.99,3.475,3.475,0,0,1-1.021-.184c-.108-.1-.2-.2-.314-.327A4.012,4.012,0,0,1,1470.738,1376.553Z" transform="translate(-1169.162 -1095.142)"/><path class="x" d="M1484.209,1376.632c-4.265-.845-14.051-.021-14.051-.021l-.371,1.093-.516,5.387s9.374,1.394,13.974,1.25a4.386,4.386,0,0,0,1.289-.232c.136-.132.257-.258.4-.413A5.062,5.062,0,0,0,1484.209,1376.632Z" transform="translate(-1300.318 -1094.462)"/><path class="bc" d="M1526.652,1376.82l-1.318.014a2.516,2.516,0,0,0-1.871.9,3.1,3.1,0,0,0-.731,2.112,2.47,2.47,0,0,0,.67,1.634,2.011,2.011,0,0,0,1.526.631l2.016-.082Z" transform="translate(-1211.702 -1095.594)"/><path class="bd" d="M1523.1,1376.82l1.662.018a3.175,3.175,0,0,1,2.36,1.134,3.908,3.908,0,0,1,.922,2.665,3.118,3.118,0,0,1-.845,2.062,2.537,2.537,0,0,1-1.925.8l-2.544-.1Z" transform="translate(-1356.083 -1094.884)"/><path class="be" d="M1582.667,1301.5c-1.524-3.509-5.251-4.085-8.425-2.439-.055.073-20.156,10.374-37.881,14.891a19.124,19.124,0,0,1,.817,5.057c0,.38,0,.754-.018,1.123,13.593-.7,28.347-5.231,41.023-9.216A7,7,0,0,0,1582.667,1301.5Z" transform="translate(-1222.548 -1033.021)"/><path class="bf" d="M1537.08,1302.374c1.923-4.428,6.626-5.154,10.631-3.077.07.093,25.432,13.09,47.8,18.788a24.138,24.138,0,0,0-1.031,6.381c0,.479,0,.951.023,1.417-17.152-.881-35.767-6.6-51.761-11.629A8.838,8.838,0,0,1,1537.08,1302.374Z" transform="translate(-1427.057 -1036.516)"/><path class="bg" d="M1525.344,1317.427a11.678,11.678,0,0,1,1.144-5.478c.022-.075.051-.151.075-.227-1.021-.315-2.32-.739-4.038-1.322a193.849,193.849,0,0,1-31.353-13.663c-3.56-1.947-7.609-.641-8.749,3.571-1.021,3.76,1.226,6.971,4.608,8.1,10.146,3.377,4.863,2.439,8.17,3.505a138.622,138.622,0,0,0,30.156,5.942C1525.356,1317.711,1525.348,1317.568,1525.344,1317.427Z" transform="translate(-1179.43 -1031.167)"/><path class="bh" d="M1483.713,1323.075a14.735,14.735,0,0,0-1.443-6.912c-.028-.1-.064-.191-.1-.286,1.288-.4,2.928-.933,5.095-1.668a244.6,244.6,0,0,0,39.561-17.239c4.492-2.456,9.6-.809,11.039,4.505,1.289,4.745-1.547,8.8-5.814,10.219-12.8,4.261-6.136,3.077-10.309,4.423-11.226,3.472-25.2,6.634-38.05,7.5C1483.7,1323.433,1483.708,1323.253,1483.713,1323.075Z" transform="translate(-1355.766 -1034.786)"/><g transform="translate(213.138 124.237)"><g transform="translate(-3.44 4.324)"><path class="p" d="M68.8,28.5V11.8H52.106L40.3,0,28.5,11.8H11.8V28.5L0,40.3l11.8,11.8V68.8H28.5L40.3,80.6l11.8-11.8H68.8V52.106L80.6,40.3ZM64.075,50.149V64.075H50.149L40.3,73.922l-9.847-9.847H16.528V50.149L6.681,40.3l9.847-9.847V16.528H30.454L40.3,6.681l9.847,9.847H64.075V30.454L73.922,40.3Z"/></g><path class="p" d="M122.626,161.906c7.663,0,13.9,6.983,13.9,15.566a2.776,2.776,0,0,0,2.606,2.919h68.648a2.776,2.776,0,0,0,2.606-2.919c0-8.583,6.235-15.566,13.9-15.566a2.776,2.776,0,0,0,2.606-2.919V61.4a2.776,2.776,0,0,0-2.606-2.919c-7.663,0-13.9-6.983-13.9-15.566A2.776,2.776,0,0,0,207.778,40H139.13a2.776,2.776,0,0,0-2.606,2.919c0,8.583-6.235,15.566-13.9,15.566A2.776,2.776,0,0,0,120.02,61.4V75.187a2.623,2.623,0,1,0,5.212,0V64.124c8.457-1.3,15.169-8.815,16.327-18.287h63.791c1.158,9.472,7.87,16.99,16.327,18.287v92.142c-8.457,1.3-15.169,8.815-16.327,18.287H141.559c-1.158-9.472-7.87-16.99-16.327-18.287v-69.4a2.623,2.623,0,1,0-5.212,0v72.125a2.776,2.776,0,0,0,2.606,2.919Z" transform="translate(-139.158 -67.236)"/></g></g></g></g></svg>