<svg xmlns="http://www.w3.org/2000/svg" width="36.976" height="35.663" viewBox="0 0 36.976 35.663"><defs><style>.a,.b{fill:#fff;}.c,.d{stroke:none;}.d{fill:#1c635d;}</style></defs><g transform="translate(0 7.282)"><g transform="translate(0 0.104)"><path class="a" d="M204.5,258.762l1.7-1.57-1.7-1.57a4.621,4.621,0,0,0-3.147-1.233h-1l.017.016,3.012,2.787-3.012,2.787-.017.016h1A4.621,4.621,0,0,0,204.5,258.762Z" transform="translate(-189.281 -240.34)"/><path class="a" d="M175.439,173.355a6.274,6.274,0,0,1,4.274,1.674l3.012,2.787-3.012,2.787a6.274,6.274,0,0,1-4.274,1.674h-2.515v2.566q.016.207.016.418h8.966a3.934,3.934,0,0,1,3-3v-8.882a3.934,3.934,0,0,1-3-3h-8.982v2.984Z" transform="translate(-163.37 -160.963)"/><path class="a" d="M172.924,270.642v3.809c.142-.1,2.1-1.9,2.1-1.9S173.066,270.746,172.924,270.642Z" transform="translate(-163.37 -255.694)"/><path class="a" d="M163.709,101.09V99.432l-18.735-.007V101.7h10.552v.829a2.265,2.265,0,0,0,2.263,2.263h.829v12.022h-.829a2.265,2.265,0,0,0-2.263,2.263v.829H144.743a5.585,5.585,0,0,1-1.4,2.311l20.369-.044v-1.658h-2.447v-1.855h2.447V117h-2.447v-1.855h2.447v-1.658h-2.447v-1.855h2.447v-1.658h-2.447v-1.855h2.447v-1.658h-2.447V104.6h2.447v-1.658h-2.447V101.09h2.447Z" transform="translate(-135.42 -93.937)"/><path class="a" d="M3.968,82.922A3.98,3.98,0,0,0,0,86.669v7.715a5.568,5.568,0,0,1,7.953-.033V86.679A4,4,0,0,0,3.968,82.922Z" transform="translate(0 -78.346)"/><path class="a" d="M3.968,3.078A5.561,5.561,0,0,1,7.953,4.757V4.08A3.976,3.976,0,0,0,0,4.08V4.74A5.561,5.561,0,0,1,3.968,3.078Z" transform="translate(0 -0.104)"/><path class="a" d="M7.936,292.444a3.976,3.976,0,1,0-7.911.8,5.569,5.569,0,0,1,7.9,0c0-.032.007-.063.009-.1v-.7Z" transform="translate(0 -272.866)"/></g><g class="b" transform="translate(18.442 -8.657)"><path class="c" d="M 9.95477294921875 17.53454208374023 C 5.775272846221924 17.53454208374023 2.375002861022949 14.13427257537842 2.375002861022949 9.95477294921875 C 2.375002861022949 5.775272846221924 5.775272846221924 2.375002861022949 9.95477294921875 2.375002861022949 C 14.13427257537842 2.375002861022949 17.53454208374023 5.775272846221924 17.53454208374023 9.95477294921875 C 17.53454208374023 14.13427257537842 14.13427257537842 17.53454208374023 9.95477294921875 17.53454208374023 Z"/><path class="d" d="M 9.95477294921875 3.375003814697266 C 6.320082664489746 3.375003814697266 3.375003814697266 6.320082664489746 3.375003814697266 9.95477294921875 C 3.375003814697266 13.58946228027344 6.320082664489746 16.53454208374023 9.95477294921875 16.53454208374023 C 13.58946228027344 16.53454208374023 16.53454208374023 13.58946228027344 16.53454208374023 9.95477294921875 C 16.53454208374023 6.320082664489746 13.58946228027344 3.375003814697266 9.95477294921875 3.375003814697266 M 9.95477294921875 10.96704292297363 L 6.917952537536621 10.96704292297363 C 6.674372673034668 10.96704292297363 6.475083351135254 10.7677526473999 6.475083351135254 10.52417278289795 C 6.475083351135254 10.28060340881348 6.674372673034668 10.08130264282227 6.917952537536621 10.08130264282227 L 9.511902809143066 10.08130264282227 L 9.511902809143066 5.905682563781738 C 9.511902809143066 5.662102699279785 9.711193084716797 5.462813377380371 9.95477294921875 5.462813377380371 C 10.1983528137207 5.462813377380371 10.39764308929443 5.662102699279785 10.39764308929443 5.905682563781738 L 10.39764308929443 10.52417278289795 C 10.39764308929443 10.7677526473999 10.1983528137207 10.96704292297363 9.95477294921875 10.96704292297363 M 9.95477294921875 1.375003814697266 C 14.68567276000977 1.375003814697266 18.53454208374023 5.223873138427734 18.53454208374023 9.95477294921875 C 18.53454208374023 14.68567276000977 14.68567276000977 18.53454208374023 9.95477294921875 18.53454208374023 C 5.223873138427734 18.53454208374023 1.375003814697266 14.68567276000977 1.375003814697266 9.95477294921875 C 1.375003814697266 5.223873138427734 5.223873138427734 1.375003814697266 9.95477294921875 1.375003814697266 Z"/></g><circle class="a" cx="3.976" cy="3.976" r="3.976" transform="translate(0 20.429)"/></g></svg>