<svg xmlns="http://www.w3.org/2000/svg" width="25.904" height="18.213" viewBox="0 0 25.904 18.213"><defs><style>.a{fill:#fff;}</style></defs><path class="a" d="M26.412,7.35a3.255,3.255,0,0,0-2.29-2.305C22.1,4.5,14,4.5,14,4.5s-8.1,0-10.12.545A3.255,3.255,0,0,0,1.591,7.35a34.144,34.144,0,0,0-.541,6.275A34.144,34.144,0,0,0,1.591,19.9a3.206,3.206,0,0,0,2.29,2.268c2.02.545,10.12.545,10.12.545s8.1,0,10.12-.545a3.206,3.206,0,0,0,2.29-2.268,34.144,34.144,0,0,0,.541-6.275,34.144,34.144,0,0,0-.541-6.275ZM11.353,17.477v-7.7l6.77,3.852-6.77,3.851Z" transform="translate(-1.05 -4.5)"/></svg>