<svg xmlns="http://www.w3.org/2000/svg" width="21.52" height="21.515" viewBox="0 0 21.52 21.515"><defs><style>.a{fill:#fff;}</style></defs><path class="a" d="M10.757,7.479A5.516,5.516,0,1,0,16.273,13,5.507,5.507,0,0,0,10.757,7.479Zm0,9.1A3.586,3.586,0,1,1,14.343,13a3.593,3.593,0,0,1-3.586,3.586Zm7.029-9.328A1.287,1.287,0,1,1,16.5,5.967,1.284,1.284,0,0,1,17.786,7.253Zm3.653,1.306A6.367,6.367,0,0,0,19.7,4.051a6.409,6.409,0,0,0-4.508-1.738c-1.776-.1-7.1-.1-8.877,0A6.4,6.4,0,0,0,1.808,4.046,6.388,6.388,0,0,0,.07,8.554c-.1,1.776-.1,7.1,0,8.877a6.367,6.367,0,0,0,1.738,4.508,6.417,6.417,0,0,0,4.508,1.738c1.776.1,7.1.1,8.877,0A6.367,6.367,0,0,0,19.7,21.939a6.409,6.409,0,0,0,1.738-4.508c.1-1.776.1-7.1,0-8.872ZM19.144,19.337A3.631,3.631,0,0,1,17.1,21.382c-1.416.562-4.777.432-6.342.432s-4.931.125-6.342-.432A3.631,3.631,0,0,1,2.37,19.337C1.808,17.921,1.938,14.56,1.938,13s-.125-4.931.432-6.342A3.631,3.631,0,0,1,4.415,4.608c1.416-.562,4.777-.432,6.342-.432s4.931-.125,6.342.432a3.631,3.631,0,0,1,2.045,2.045c.562,1.416.432,4.777.432,6.342S19.706,17.926,19.144,19.337Z" transform="translate(0.005 -2.238)"/></svg>