<svg xmlns="http://www.w3.org/2000/svg" width="12" height="12" viewBox="0 0 12 12"><defs><style>.a{fill:#297770;}</style></defs><path class="a" d="M8.571,1.928a6,6,0,1,0,6,6,6,6,0,0,0-6-6Zm0,11.25a5.232,5.232,0,0,1-2.077-.427L9.226,9.677a.375.375,0,0,0,.095-.249V8.3a.375.375,0,0,0-.375-.375,4.893,4.893,0,0,1-2.735-1.39.375.375,0,0,0-.265-.11h-1.5a.375.375,0,0,0-.375.375v2.25a.375.375,0,0,0,.207.335l1.293.646v2.2A5.253,5.253,0,0,1,3.826,5.678H5.2a.375.375,0,0,0,.265-.11l1.5-1.5a.375.375,0,0,0,.11-.265V2.9a5.265,5.265,0,0,1,3.8.312c-.049.041-.1.084-.141.129a2.25,2.25,0,0,0,1.589,3.841l.112,0a8.806,8.806,0,0,1-.1,4.363.374.374,0,0,0-.01.061,5.234,5.234,0,0,1-3.752,1.578Z" transform="translate(-2.571 -1.928)"/></svg>