<svg xmlns="http://www.w3.org/2000/svg" width="21" height="21" viewBox="0 0 21 21"><defs><style>.a{fill:#fff;}</style></defs><path class="a" d="M21,11.063A10.5,10.5,0,0,1,7.392,21.093a11.8,11.8,0,0,0,1.3-2.752c.127-.491.652-2.5.652-2.5a2.812,2.812,0,0,0,2.4,1.207c3.167,0,5.449-2.913,5.449-6.533a6.163,6.163,0,0,0-6.474-6.063c-4.53,0-6.939,3.04-6.939,6.355,0,1.541.821,3.459,2.13,4.069.2.093.3.051.351-.14.034-.144.212-.859.292-1.19a.314.314,0,0,0-.072-.3,4.135,4.135,0,0,1-.775-2.4A4.544,4.544,0,0,1,10.458,6.3a4.145,4.145,0,0,1,4.386,4.272c0,2.841-1.435,4.81-3.3,4.81a1.523,1.523,0,0,1-1.554-1.9,21.1,21.1,0,0,0,.868-3.5A1.319,1.319,0,0,0,9.526,8.505c-1.054,0-1.9,1.088-1.9,2.549a3.783,3.783,0,0,0,.313,1.558S6.9,17.007,6.711,17.828a10.164,10.164,0,0,0-.038,3.015A10.5,10.5,0,1,1,21,11.063Z" transform="translate(0 -0.563)"/></svg>