<svg xmlns="http://www.w3.org/2000/svg" width="19.182" height="19.183" viewBox="0 0 19.182 19.183"><defs><style>.a{fill:#fff;}</style></defs><path class="a" d="M22.623,4.5H5.559A1.06,1.06,0,0,0,4.5,5.559V22.623a1.06,1.06,0,0,0,1.059,1.059h8.532V16.089H11.8v-2.8h2.293V11.224A3.644,3.644,0,0,1,18.023,7.4c1.059,0,2.2.08,2.463.115V10.1H18.722c-1.2,0-1.434.569-1.434,1.409v1.783h2.867l-.375,2.8H17.288v7.593h5.335a1.06,1.06,0,0,0,1.059-1.059V5.559A1.06,1.06,0,0,0,22.623,4.5Z" transform="translate(-4.5 -4.5)"/></svg>