<svg xmlns="http://www.w3.org/2000/svg" width="24.285" height="19.724" viewBox="0 0 24.285 19.724"><defs><style>.a{fill:#fff;}</style></defs><path class="a" d="M21.788,8.3c.015.216.015.431.015.647A14.064,14.064,0,0,1,7.643,23.1,14.065,14.065,0,0,1,0,20.87a10.3,10.3,0,0,0,1.2.062,9.968,9.968,0,0,0,6.179-2.126,4.986,4.986,0,0,1-4.654-3.452,6.277,6.277,0,0,0,.94.077,5.264,5.264,0,0,0,1.31-.169A4.978,4.978,0,0,1,.986,10.376v-.062a5.012,5.012,0,0,0,2.25.632A4.985,4.985,0,0,1,1.695,4.29,14.147,14.147,0,0,0,11.957,9.5a5.619,5.619,0,0,1-.123-1.14,4.982,4.982,0,0,1,8.614-3.405,9.8,9.8,0,0,0,3.159-1.2,4.964,4.964,0,0,1-2.188,2.743,9.978,9.978,0,0,0,2.866-.77,10.7,10.7,0,0,1-2.5,2.573Z" transform="translate(0 -3.381)"/></svg>