<svg xmlns="http://www.w3.org/2000/svg" width="16.787" height="36.675" viewBox="0 0 16.787 36.675"><defs><style>.a{fill:#fff;}</style></defs><path class="a" d="M123.632,79.478a.139.139,0,0,0,.139-.139v-.425h.412a.139.139,0,0,0,.139-.139v-.9a.139.139,0,0,0-.139-.139h-2.233c-.355-2.587-3.713-4.168-5.254-4.763a.745.745,0,0,0,.037-.233.775.775,0,0,0-.475-.707.466.466,0,0,0,.163-.352.473.473,0,0,0-.269-.423l-.072-.574a.693.693,0,0,0,.542-.676v-.046a.694.694,0,0,0-1.387,0v.046a.693.693,0,0,0,.542.676l-.072.574a.473.473,0,0,0-.269.423.466.466,0,0,0,.163.352.775.775,0,0,0-.475.707.746.746,0,0,0,.037.233c-1.542.6-4.9,2.177-5.254,4.763h-2.233a.139.139,0,0,0-.139.139v.9a.139.139,0,0,0,.139.139h.412v.425a.139.139,0,0,0,.139.139h.3V94.486h-.3a.139.139,0,0,0-.139.139v.425h-.412a.139.139,0,0,0-.139.139v.9a.139.139,0,0,0,.139.139h2.961c1.625,2.219,5.294,3.317,5.294,3.317s3.669-1.1,5.294-3.317h2.961a.139.139,0,0,0,.139-.139v-.9a.139.139,0,0,0-.139-.139h-.412v-.425a.139.139,0,0,0-.139-.139h-.3V79.478ZM112.51,93.536h-2.478V84a6.374,6.374,0,0,1,1.239-3.785A6.373,6.373,0,0,1,112.51,84v9.531Zm5.577,0h-4.319V84a5.2,5.2,0,0,1,2.16-3.785A5.2,5.2,0,0,1,118.087,84v9.531Zm3.736,0h-2.478V84a6.374,6.374,0,0,1,1.239-3.785A6.373,6.373,0,0,1,121.822,84v9.531Z" transform="translate(-107.534 -62.866)"/><path class="a" d="M191.488,24.567a.694.694,0,0,0,.694-.694v-.089a.694.694,0,1,0-1.387,0v.089A.694.694,0,0,0,191.488,24.567Z" transform="translate(-183.094 -20.956)"/><path class="a" d="M191.488,1.476a.693.693,0,0,0,.694-.694V.694a.694.694,0,1,0-1.387,0V.783A.694.694,0,0,0,191.488,1.476Z" transform="translate(-183.094)"/><path class="a" d="M191.488,47.659a.694.694,0,0,0,.694-.694v-.089a.694.694,0,1,0-1.387,0v.089A.694.694,0,0,0,191.488,47.659Z" transform="translate(-183.094 -41.912)"/></svg>