<svg xmlns="http://www.w3.org/2000/svg" xmlns:xlink="http://www.w3.org/1999/xlink" width="1366" height="430.239" viewBox="0 0 1366 430.239"><defs><style>.a{fill:none;}.b{clip-path:url(#a);}.c{fill:url(#b);}.d{fill:#297770;}</style><clipPath id="a"><rect class="a" width="1366" height="430.239" transform="translate(0 156)"/></clipPath><linearGradient id="b" x1="0.47" y1="1.217" x2="0.55" y2="-0.696" gradientUnits="objectBoundingBox"><stop offset="0" stop-color="#986609"/><stop offset="0.04" stop-color="#ac8322"/><stop offset="0.11" stop-color="#c9af48"/><stop offset="0.18" stop-color="#e1d265"/><stop offset="0.25" stop-color="#f1eb7b"/><stop offset="0.31" stop-color="#fbfa88"/><stop offset="0.36" stop-color="#ffff8c"/><stop offset="0.56" stop-color="#ffa"/><stop offset="0.59" stop-color="#ffffa5"/><stop offset="0.63" stop-color="#ffff96"/><stop offset="0.65" stop-color="#ffff8c"/><stop offset="0.8" stop-color="#c8ae47"/><stop offset="0.94" stop-color="#986609"/></linearGradient></defs><g transform="translate(-8.89 -71.44)"><g transform="translate(8.89 -84.56)"><g class="b" transform="translate(0)"><path class="c" d="M1379.945,182.812v186.56H0V174.48c54.956,34.024,173.074,87.083,342.069,55.51,134.877-25.154,259.508-105.391,660.407-6.324C1169.464,264.867,1290.585,245.468,1379.945,182.812Z" transform="translate(-14.055 101.376)"/><path class="d" d="M1379.945,200.928v441.58H0V210.414c43.984,18.071,235.922,65.371,384.855,38.873,206.18-38.87,236.311-90.367,460.689-39.411C1123.646,273.022,1282.728,248.627,1379.945,200.928Z" transform="translate(-14.055 108.272)"/></g><path class="d" d="M189.925,280.8H799.634v-3.371H796.05a10.142,10.142,0,0,0-6.33-12.781s0-.107,0-.153a3.523,3.523,0,0,0-2.334-3.31l-.488-1.525a.841.841,0,0,0,.152-.473.854.854,0,0,0-.5-.778l-.3-4.774h0l-.305,4.774a.854.854,0,0,0-.5.778.825.825,0,0,0,.168.473l-.5,1.525a3.523,3.523,0,0,0-2.333,3.31v.153a10.371,10.371,0,0,0-6.421,6.863V259.48h.183a.808.808,0,0,0,.808-.824v-.473a.808.808,0,0,0-.808-.824h-1.113a5.723,5.723,0,0,0,.076-.93,6.1,6.1,0,0,0-2.9-5.186,9.653,9.653,0,0,1-2.73-2.547.717.717,0,0,0-.2-1.159l-.183-2.76h-.214l-.183,2.761a.7.7,0,0,0-.2,1.159,9.38,9.38,0,0,1-2.73,2.547,6.1,6.1,0,0,0-2.9,5.186,6.311,6.311,0,0,0,0,.93h-1.068a.824.824,0,0,0-.823.823v.473a.824.824,0,0,0,.823.824h.152v11.469h-2.669a8.664,8.664,0,0,0,1.068-4.1c0-4.987-4.576-9.349-11.347-11.789a36.083,36.083,0,0,1-11.149-6.223,1.6,1.6,0,0,0-.763-2.242l-.412-6.284H736.6l-.412,6.284a1.635,1.635,0,0,0-.778,2.242,35.611,35.611,0,0,1-11.149,6.223,22.618,22.618,0,0,0-7.5,4.3v-2.913h.473V254.28h.808V251.5h-1.266V229.74h.473v-2.166h.808V224.8h-1.327a68.021,68.021,0,0,0-.519-7.138S713.3,198.52,712.731,198.5s-3.584,18.927-3.584,18.927a67.462,67.462,0,0,0-.58,7.367h-1.342v2.776h.808v2.166h.565V251.5h-1.266a27.8,27.8,0,0,0-24.707-18.668v-.991a.656.656,0,0,0-.656-.656h-.5l-.412-10.417a7.443,7.443,0,0,0,3.691.32,7.52,7.52,0,0,0,4.911-3.142,7.534,7.534,0,0,1-10.173-10.676,7.519,7.519,0,0,0,1.1,13.345l-.4,10.585h-.564a.625.625,0,0,0-.625.625v1.037a27.819,27.819,0,0,0-24.4,19.125V229.618h.595v-2.776h1.037v-3.554h-1.632V195.348h.595v-2.776h1.037v-3.6h-1.708a87.487,87.487,0,0,0-.671-9.151s-3.737-24.555-4.454-24.555-4.575,24.28-4.575,24.28a86.581,86.581,0,0,0-.732,9.441h-1.723v3.554H643.4v2.776h.595v27.925h-1.632V226.8H643.4v2.776h.595v10.539c-7.351-14.489-20.742-24.738-36.421-26.629v-2.15c0-1.037-.5-1.876-1.144-1.876h-2.166l-1.525-15.816h-.686l-1.525,15.816h-2.349c-.625,0-1.129.839-1.129,1.876v2.15A46.394,46.394,0,0,0,566.3,231.235c-2.044-18.9-12.933-34.514-41.713-46.075-18.82-7.626-25.134-18.729-27.148-23.975,3.05-.336,5.307-1.815,5.307-3.584s-2.013-3.05-4.774-3.493l-.442-11.927c.915-.275,1.525-.808,1.525-1.418s-.671-1.19-1.632-1.525L497,127.555a24.707,24.707,0,0,0,27.453-13.406A24.8,24.8,0,0,1,486.033,84.5a24.768,24.768,0,0,0,9.868,42.826l-.717,11.82c-1.19.214-2.074.824-2.074,1.525s.778,1.281,1.891,1.525l-.717,11.82c-2.791.427-4.85,1.83-4.85,3.508s2.455,3.34,5.628,3.6c-2.013,5.262-8.343,16.4-27.148,23.96-30.64,12.323-41.011,29.222-42,49.766A47.02,47.02,0,0,0,392.5,213.406v-2.15c0-1.037-.5-1.876-1.144-1.876h-2.12l-1.525-15.816h-.686L385.5,209.379h-2.181c-.625,0-1.129.839-1.129,1.876v2.15c-17.3,2.074-31.815,14.336-38.51,31.235V229.5h.595V226.72h1.037v-3.554h-1.632V195.348h.595v-2.776h1.037v-3.6H343.6a87.347,87.347,0,0,0-.671-9.151s-3.737-24.555-4.453-24.555-4.575,24.28-4.575,24.28a86.926,86.926,0,0,0-.732,9.441h-1.723v3.554h1.037v2.776h.595v27.925h-1.632V226.8h1.037v2.776h.595v19.11a27.788,27.788,0,0,0-23.548-15.862v-.991a.656.656,0,0,0-.656-.656h-.5l-.412-10.417a7.443,7.443,0,0,0,3.691.32,7.519,7.519,0,0,0,4.911-3.142,7.534,7.534,0,0,1-10.173-10.676,7.519,7.519,0,0,0,1.1,13.345l-.412,10.585h-.519a.625.625,0,0,0-.625.625v1.037A27.8,27.8,0,0,0,281.556,251.5h-.93V229.74h.473v-2.166h.808V224.8H280.58a68.246,68.246,0,0,0-.519-7.138s-2.913-19.141-3.477-19.156S273,217.432,273,217.432a67.725,67.725,0,0,0-.564,7.366h-1.342v2.776h.808v2.166h.5V251.5h-1.266v2.776h.808v2.166h.458v2.562a23.152,23.152,0,0,0-7.122-3.95,35.611,35.611,0,0,1-11.149-6.223,1.635,1.635,0,0,0-.778-2.242l-.4-6.284h-.473l-.412,6.284a1.6,1.6,0,0,0-.763,2.242,36.084,36.084,0,0,1-11.149,6.223c-6.8,2.44-11.347,6.8-11.347,11.789a8.663,8.663,0,0,0,1.068,4.1h-2.669V259.48h.153a.824.824,0,0,0,.824-.824v-.473a.824.824,0,0,0-.824-.824H226.3a6.327,6.327,0,0,0,0-.93,6.1,6.1,0,0,0-2.9-5.185,9.38,9.38,0,0,1-2.73-2.547.7.7,0,0,0-.2-1.159l-.183-2.76h-.214l-.183,2.761a.717.717,0,0,0-.2,1.159,9.654,9.654,0,0,1-2.73,2.547,6.1,6.1,0,0,0-2.9,5.185,5.725,5.725,0,0,0,.076.93h-1.113a.808.808,0,0,0-.808.824v.473a.808.808,0,0,0,.808.824h.183v12.033a10.371,10.371,0,0,0-6.421-6.863V264.5a3.523,3.523,0,0,0-2.333-3.31l-.5-1.525a.823.823,0,0,0,.168-.473.854.854,0,0,0-.5-.778l-.3-4.774h0l-.305,4.774a.854.854,0,0,0-.5.778.839.839,0,0,0,.153.473l-.5,1.525a3.523,3.523,0,0,0-2.333,3.31s0,.107,0,.153a10.142,10.142,0,0,0-6.329,12.781H189.91Zm583.187-16.09a1.876,1.876,0,1,1,2.257,0v6.345h-2.257Zm-6.665-.671a2.959,2.959,0,1,1,5.689,0v7.016H767.82v-.107h-1.373Zm-3.2.671a1.876,1.876,0,1,1,2.242,0v6.238h-2.242Zm-539.217,0a4.286,4.286,0,0,1,1.129-3.386,4.286,4.286,0,0,1,1.129,3.386v6.238h-2.242Zm-6.634-.671a2.959,2.959,0,1,1,5.689,0v6.909h-1.373v.107h-4.316Zm-3.218.671a4.285,4.285,0,0,1,1.129-3.386,4.27,4.27,0,0,1,1.129,3.386v6.345h-2.257Z" transform="translate(188.09 77.92)"/></g></g></svg>