<svg xmlns="http://www.w3.org/2000/svg" width="114.858" height="86.45" viewBox="0 0 114.858 86.45"><defs><style>.a{fill:#eb4833;}.b{fill:#b03626;}.c{fill:#34595f;}.d{fill:#274347;}.e{fill:#3b120d;}.f{fill:#631f15;}.g{fill:#ebc218;}.h{fill:#e29c00;}</style></defs><path class="a" d="M44.757,73.047,100.89,40.6,78.7,27.9,29,64.039Z" transform="translate(9.758 9.388)"/><path class="b" d="M87.5,31.818l-56.681,32.1L23.55,59.738,43.584,41.7,81.313,28.25Z" transform="translate(7.924 9.506)"/><path class="a" d="M39.744,69.244,87.336,41.672a6.388,6.388,0,0,0,2.339-2.339l.454-.789a15.236,15.236,0,0,0,2.045-7.618V24.966a8.019,8.019,0,0,0-4.009-6.883L55.194,0,1.4,30.98l5.466,1.6L36.389,48.822l3.355,5.8Z" transform="translate(0.471)"/><path class="b" d="M40.8,69.85,96.893,37.4v2.219L40.76,72.135Z" transform="translate(13.715 12.585)"/><path class="c" d="M32.611,59.352l14.675,8.54L95.2,40.374l-15.69-9.1,3.167-2.432,20.007,11.44L46.591,72.73,23.55,59.539Z" transform="translate(7.924 9.704)"/><path class="c" d="M41.694,37.547,7.453,20.48,2,23.728a3.822,3.822,0,0,1,3.715.214L34.5,39.338a13.164,13.164,0,0,1,6.95,11.6v7.872a4.41,4.41,0,0,1-1.8,3.555L44.5,59.519c1.336-1.684,1.069-5.493,1.069-8.166,0,0,0-5.346-.107-6.8a8.233,8.233,0,0,0-3.769-7Z" transform="translate(0.673 6.891)"/><path class="c" d="M20.746,38.335,69.928,10.189,65.852,7.85,16.99,35.863Z" transform="translate(5.717 2.641)"/><path class="d" d="M35.5,53.381,30.78,56.04l-7.11-4.183,8.9-.187Z" transform="translate(7.965 17.386)"/><path class="e" d="M37.488,62.129l-6.081-.668L5.172,46.96,1.55,41.8.2,28.1,4.3,23.13,37.916,41.721l3.662,5.934L41.19,58.574Z" transform="translate(0.067 7.783)"/><g transform="translate(0 30.215)"><path class="f" d="M54.475,77.113,6.776,49.728A13.552,13.552,0,0,1,0,37.994V27.008a4.464,4.464,0,0,1,6.562-3.876L35.35,38.448a13.164,13.164,0,0,1,6.95,11.6v7.832a4.4,4.4,0,0,1-6.6,3.809L5.132,44.075A3.555,3.555,0,0,1,3.355,41V31.98A3.555,3.555,0,0,1,8.7,28.906L34.749,44.061a8.567,8.567,0,0,1,4.237,7.377v2.833a3.154,3.154,0,0,1-4.731,2.673L8.9,42.391a4.41,4.41,0,0,1-2.219-3.809v-.347A2.058,2.058,0,0,1,7.725,36.5l2.339-1.336a2.058,2.058,0,0,1,2.058,0l20.047,11.6A6.976,6.976,0,0,1,35.7,52.535v.628H33.6v-.628a4.865,4.865,0,0,0-2.419-4.009l-20.047-11.6-2.3,1.336v.307a2.312,2.312,0,0,0,1.109,1.938l25.327,14.7a1.056,1.056,0,0,0,1.59-.922V51.439a6.469,6.469,0,0,0-3.194-5.587L7.645,30.71a1.457,1.457,0,0,0-2.192,1.256v9.021a1.457,1.457,0,0,0,.722,1.256L36.754,59.926a2.3,2.3,0,0,0,3.462-2.045V50.049a11.066,11.066,0,0,0-5.854-9.756L5.573,24.909a2.366,2.366,0,0,0-3.475,2.1V37.994a11.467,11.467,0,0,0,5.733,9.93l46.684,26.9Z" transform="translate(0 -22.608)"/></g><path class="d" d="M69.694,33.745l3.756-2.125-4.825-2.78L65.31,31.165Z" transform="translate(21.976 9.704)"/><path class="c" d="M75.89,18.083,42.878,0,38,2.82,71.586,21.25A8.126,8.126,0,0,1,75.6,28.28v6.081a15.583,15.583,0,0,1-2.085,7.792l-.307.535,1.764-1.029a6.388,6.388,0,0,0,2.339-2.339l.454-.789a15.236,15.236,0,0,0,2.045-7.618V24.966a8.019,8.019,0,0,0-3.916-6.883Z" transform="translate(12.787)"/><path class="c" d="M45.478,19.06l-7.5,4.357,7.538,4.344,7.5-4.344Z" transform="translate(12.78 6.414)"/><path class="g" d="M44.424,20.9,41.15,22.8l3.288,1.9L47.7,22.8Z" transform="translate(13.847 7.033)"/><path class="c" d="M58,41.53,50.52,45.887l7.538,4.357,7.484-4.357Z" transform="translate(17 13.974)"/><path class="c" d="M33.024,12.18,25.54,16.537l7.538,4.344,7.484-4.344Z" transform="translate(8.594 4.098)"/><path class="g" d="M31.971,14.02l-3.261,1.9L32,17.816l3.261-1.9Z" transform="translate(9.661 4.718)"/><path class="g" d="M56.951,43.3,53.69,45.2l3.288,1.9,3.261-1.9Z" transform="translate(18.066 14.57)"/><path class="g" d="M37.714,24.76l-3.274,1.9,3.288,1.9,3.261-1.9Z" transform="translate(11.589 8.331)"/><path class="g" d="M25.261,17.88,22,19.778l3.288,1.9,3.261-1.9Z" transform="translate(7.403 6.016)"/><path class="g" d="M50.241,47.16l-3.261,1.9,3.288,1.9,3.261-1.9Z" transform="translate(15.808 15.869)"/><path class="g" d="M51.131,17.15l-3.261,1.9,3.288,1.9,3.261-1.9Z" transform="translate(16.108 5.771)"/><path class="g" d="M38.691,10.27l-3.261,1.9,3.274,1.9,3.274-1.9Z" transform="translate(11.922 3.456)"/><path class="g" d="M63.671,39.55l-3.261,1.9,3.274,1.9,3.274-1.9Z" transform="translate(20.327 13.308)"/><path class="h" d="M55.786,61.141,49.331,59.27,44.72,60.606v.976l3.462,4.183a5.533,5.533,0,0,0,5.533,0l2.085-1.2a2,2,0,0,0-.013-3.421Z" transform="translate(15.048 19.944)"/><path class="h" d="M54.133,62.507V60.97l-1.443.361.936,1.336Z" transform="translate(17.73 20.516)"/><path class="g" d="M55.8,60.452,49.117,58.34,44.68,60.933l3.462,4.183a5.533,5.533,0,0,0,5.533,0l2.085-1.2a2,2,0,0,0,.04-3.462Z" transform="translate(15.034 19.631)"/><path class="h" d="M87.986,42.561,81.531,40.69,76.92,42.026v1l3.462,4.183a5.533,5.533,0,0,0,5.533,0L88,46.009a2,2,0,0,0-.013-3.448Z" transform="translate(25.883 13.692)"/><path class="h" d="M86.3,43.927V42.39l-1.443.361.936,1.336Z" transform="translate(28.555 14.264)"/><path class="g" d="M87.99,41.868,81.307,39.81l-4.4,2.526,3.462,4.183a5.533,5.533,0,0,0,5.533,0l2.085-1.2a2,2,0,0,0,0-3.448Z" transform="translate(25.88 13.396)"/><path class="h" d="M66.946,54.681,60.491,52.81,55.88,54.146v1l3.462,4.183a5.533,5.533,0,0,0,5.533,0l2.085-1.2a2,2,0,0,0-.013-3.448Z" transform="translate(18.803 17.77)"/><path class="h" d="M65.273,56.037V54.5l-1.443.361.936,1.336Z" transform="translate(21.478 18.339)"/><path class="g" d="M66.946,53.978,60.357,51.92,55.88,54.459l3.462,4.183a5.533,5.533,0,0,0,5.533,0l2.085-1.2a2,2,0,0,0-.013-3.462Z" transform="translate(18.803 17.471)"/><path class="h" d="M77.786,48.471,71.331,46.6,66.72,47.936v1l3.448,4.183a5.533,5.533,0,0,0,5.533,0l2.085-1.176a2,2,0,0,0,0-3.475Z" transform="translate(22.451 15.68)"/><path class="h" d="M76.063,49.847V48.31l-1.443.361.936,1.336Z" transform="translate(25.109 16.256)"/><path class="g" d="M77.793,47.788l-6.682-2.1L66.7,48.269l3.448,4.183a5.533,5.533,0,0,0,5.533,0l2.085-1.2a2,2,0,0,0,.027-3.462Z" transform="translate(22.444 15.374)"/></svg>