<svg xmlns="http://www.w3.org/2000/svg" xmlns:xlink="http://www.w3.org/1999/xlink" width="20.776" height="37.682" viewBox="0 0 20.776 37.682"><defs><style>.a{fill:#42423c;}.b{fill:#b7b7b2;}.c,.z{opacity:0.3;}.d{fill:#60605b;}.e{fill:url(#a);}.f{fill:url(#b);}.g{opacity:0.2;}.h,.i,.j,.k,.l,.m,.n,.o,.p,.q,.r,.s,.t,.u,.v,.w,.x,.y{fill:#0e0e0e;}.h{opacity:0.5;}.i{opacity:0.47;}.j{opacity:0.44;}.k{opacity:0.41;}.l{opacity:0.38;}.m{opacity:0.35;}.n{opacity:0.32;}.o{opacity:0.29;}.ab,.p{opacity:0.26;}.q{opacity:0.24;}.ae,.r{opacity:0.21;}.ag,.s{opacity:0.18;}.t{opacity:0.15;}.aj,.u{opacity:0.12;}.al,.v{opacity:0.09;}.w{opacity:0.06;}.x{opacity:0.03;}.aq,.y{opacity:0;}.aa,.ab,.ac,.ad,.ae,.af,.ag,.ah,.ai,.aj,.ak,.al,.am,.an,.ao,.ap,.aq,.z{fill:#4c4c4c;}.aa{opacity:0.28;}.ac{opacity:0.25;}.ad{opacity:0.23;}.af{opacity:0.19;}.ah{opacity:0.16;}.ai{opacity:0.14;}.ak{opacity:0.11;}.am{opacity:0.07;}.an{opacity:0.05;}.ao{opacity:0.04;}.ap{opacity:0.02;}.ar{fill:#fff;}.as{fill:#297770;}</style><linearGradient id="a" x1="0.499" y1="-0.145" x2="0.499" y2="1.305" gradientUnits="objectBoundingBox"><stop offset="0.11" stop-color="#fff"/><stop offset="0.47" stop-color="#f8f6f5"/><stop offset="1" stop-color="#e8e3de"/></linearGradient><linearGradient id="b" x1="0.5" y1="-0.525" x2="0.5" y2="1.242" gradientUnits="objectBoundingBox"><stop offset="0.16" stop-color="#fff"/><stop offset="0.4" stop-color="#fbfaf9"/><stop offset="0.72" stop-color="#efece8"/><stop offset="0.87" stop-color="#e8e3de"/></linearGradient></defs><g transform="translate(0 0)"><path class="a" d="M20.776,18.657V1a1,1,0,0,0-1-1H1.016A1,1,0,0,0,0,1V36.685a1,1,0,0,0,1,1H19.76a1,1,0,0,0,1-1V18.657Z" transform="translate(0 0)"/><path class="b" d="M2.19,49.16V65.742a.934.934,0,0,0,.93.946h17.2a.934.934,0,0,0,.95-.946V49.16" transform="translate(-1.334 -29.944)"/><g class="c" transform="translate(0.684 18.947)"><path class="d" d="M1.922,48.47,1.75,65.095a.922.922,0,0,0,.923.938H20.219a.923.923,0,0,0,.934-.938L21,48.47" transform="translate(-1.75 -48.47)"/></g><path class="b" d="M21.2,19.94V3.55a.934.934,0,0,0-.93-.93H3.07a.934.934,0,0,0-.93.93V19.968" transform="translate(-1.303 -1.596)"/><g class="c" transform="translate(0.664 1.255)"><path class="d" d="M20.932,20.48,21.1,4.14a.923.923,0,0,0-.915-.93H2.622a.923.923,0,0,0-.923.93L1.872,20.48" transform="translate(-1.7 -3.21)"/></g><path class="e" d="M2.19,48.316V64.733a.934.934,0,0,0,.93.93h17.2a.934.934,0,0,0,.95-.946V48.3" transform="translate(-1.334 -29.42)"/><path class="f" d="M21.2,21.048V4.63a.934.934,0,0,0-.93-.93H3.07a.934.934,0,0,0-.93.946V21.063" transform="translate(-1.303 -2.254)"/><g class="g" transform="translate(0.837 5.86)"><rect class="h" width="19.052" height="4.351" transform="translate(0 8.412)"/><rect class="i" width="19.052" height="4.136" transform="translate(0 7.919)"/><rect class="j" width="19.052" height="3.917" transform="translate(0 7.423)"/><rect class="k" width="19.052" height="3.702" transform="translate(0 6.93)"/><rect class="l" width="19.052" height="3.487" transform="translate(0 6.434)"/><rect class="m" width="19.052" height="3.272" transform="translate(0 5.938)"/><rect class="n" width="19.052" height="3.057" transform="translate(0 5.445)"/><rect class="o" width="19.052" height="2.842" transform="translate(0 4.949)"/><rect class="p" width="19.052" height="2.623" transform="translate(0 4.452)"/><rect class="q" width="19.052" height="2.408" transform="translate(0 3.96)"/><rect class="r" width="19.052" height="2.193" transform="translate(0 3.463)"/><rect class="s" width="19.052" height="1.978" transform="translate(0 2.967)"/><rect class="t" width="19.052" height="1.763" transform="translate(0 2.474)"/><rect class="u" width="19.052" height="1.544" transform="translate(0 1.978)"/><rect class="v" width="19.052" height="1.329" transform="translate(0 1.485)"/><rect class="w" width="19.052" height="1.114" transform="translate(0 0.989)"/><rect class="x" width="19.052" height="0.899" transform="translate(0 0.493)"/><rect class="y" width="19.052" height="0.684"/></g><rect class="z" width="19.052" height="0.195" transform="translate(0.848 18.974)"/><rect class="aa" width="19.052" height="0.223" transform="translate(0.848 18.997)"/><rect class="ab" width="19.052" height="0.254" transform="translate(0.848 19.021)"/><rect class="ac" width="19.052" height="0.281" transform="translate(0.848 19.048)"/><rect class="ad" width="19.052" height="0.309" transform="translate(0.848 19.072)"/><rect class="ae" width="19.052" height="0.34" transform="translate(0.848 19.095)"/><rect class="af" width="19.052" height="0.367" transform="translate(0.848 19.119)"/><rect class="ag" width="19.052" height="0.395" transform="translate(0.848 19.142)"/><rect class="ah" width="19.052" height="0.426" transform="translate(0.848 19.165)"/><rect class="ai" width="19.052" height="0.453" transform="translate(0.848 19.189)"/><rect class="aj" width="19.052" height="0.481" transform="translate(0.848 19.212)"/><rect class="ak" width="19.052" height="0.512" transform="translate(0.848 19.236)"/><rect class="al" width="19.052" height="0.539" transform="translate(0.848 19.259)"/><rect class="am" width="19.052" height="0.567" transform="translate(0.848 19.283)"/><rect class="an" width="19.052" height="0.598" transform="translate(0.848 19.306)"/><rect class="ao" width="19.052" height="0.625" transform="translate(0.848 19.33)"/><rect class="ap" width="19.052" height="0.653" transform="translate(0.848 19.353)"/><rect class="aq" width="19.052" height="0.684" transform="translate(0.848 19.38)"/><rect class="ar" width="16.926" height="0.821" transform="translate(1.915 19.107)"/><path class="as" d="M18.086,48.07,14.38,61.087H18.4L22.186,48.07Z" transform="translate(-8.759 -29.28)"/><path class="as" d="M15.56,17.623h3.792l-2.768,9.721h4.1L23.6,17.322V13.87H11.96v6.6h3.6Z" transform="translate(-7.285 -8.448)"/><rect class="a" width="18.169" height="0.493" transform="translate(1.88 18.638)"/></g></svg>