<svg xmlns="http://www.w3.org/2000/svg" width="79.006" height="51.593" viewBox="0 0 79.006 51.593"><defs><style>.a{fill:#18979e;}.b{fill:#1b9ba0;}.c{fill:#1f9fa3;}.d{fill:#22a3a5;}.e{fill:#26a6a7;}.f{fill:#29aaaa;}.g{fill:#2daeac;}.h{fill:#30b2ae;}.i{fill:#34b6b1;}.j{fill:#37bab3;}.k{fill:#3bbeb5;}.l{fill:#3ec1b8;}.m{fill:#42c5ba;}.n{fill:#45c9bc;}.o{fill:#49cdbf;}.p{fill:#4cd1c1;}.q{fill:#50d5c3;}.r{fill:#53d9c6;}.s{fill:#57dcc8;}.t{fill:#5ae0ca;}.u{fill:#5ee4cd;}.v{fill:#61e8cf;}.w{fill:#e29c00;}.x{fill:#e39f02;}.y{fill:#e5a104;}.z{fill:#e6a406;}.aa{fill:#e8a708;}.ab{fill:#e9a90a;}.ac{fill:#eaac0c;}.ad{fill:#ecaf0e;}.ae{fill:#edb110;}.af{fill:#eeb412;}.ag{fill:#f0b714;}.ah{fill:#f1b916;}.ai{fill:#f3bc18;}.aj{fill:#f4bf1a;}.ak{fill:#f5c11c;}.al{fill:#f7c41e;}.am{fill:#f8c720;}.an{fill:#f9c922;}.ao{fill:#fbcc24;}.ap{fill:#fccf26;}.aq{fill:#fed128;}.ar{fill:#ffd42a;}.as{fill:#ebc218;}</style></defs><g transform="translate(0 0)"><ellipse class="a" cx="5.561" cy="5.561" rx="5.561" ry="5.561" transform="translate(54.053)"/><ellipse class="b" cx="5.362" cy="5.362" rx="5.362" ry="5.362" transform="translate(54.17 0.105)"/><ellipse class="c" cx="5.175" cy="5.175" rx="5.175" ry="5.175" transform="translate(54.275 0.187)"/><ellipse class="d" cx="4.977" cy="4.977" rx="4.977" ry="4.977" transform="translate(54.392 0.292)"/><ellipse class="e" cx="4.778" cy="4.778" rx="4.778" ry="4.778" transform="translate(54.497 0.386)"/><ellipse class="f" cx="4.591" cy="4.591" rx="4.591" ry="4.591" transform="translate(54.602 0.479)"/><ellipse class="g" cx="4.392" cy="4.392" rx="4.392" ry="4.392" transform="translate(54.719 0.572)"/><ellipse class="h" cx="4.194" cy="4.194" rx="4.194" ry="4.194" transform="translate(54.835 0.678)"/><ellipse class="i" cx="3.995" cy="3.995" rx="3.995" ry="3.995" transform="translate(54.952 0.771)"/><ellipse class="j" cx="3.808" cy="3.808" rx="3.808" ry="3.808" transform="translate(55.057 0.864)"/><ellipse class="k" cx="3.61" cy="3.61" rx="3.61" ry="3.61" transform="translate(55.174 0.97)"/><ellipse class="l" cx="3.411" cy="3.411" rx="3.411" ry="3.411" transform="translate(55.291 1.063)"/><ellipse class="m" cx="3.213" cy="3.213" rx="3.213" ry="3.213" transform="translate(55.396 1.168)"/><ellipse class="n" cx="3.026" cy="3.026" rx="3.026" ry="3.026" transform="translate(55.501 1.25)"/><ellipse class="o" cx="2.827" cy="2.827" rx="2.827" ry="2.827" transform="translate(55.618 1.355)"/><ellipse class="p" cx="2.628" cy="2.628" rx="2.628" ry="2.628" transform="translate(55.735 1.449)"/><ellipse class="q" cx="2.442" cy="2.442" rx="2.442" ry="2.442" transform="translate(55.84 1.542)"/><ellipse class="r" cx="2.243" cy="2.243" rx="2.243" ry="2.243" transform="translate(55.957 1.635)"/><ellipse class="s" cx="2.044" cy="2.044" rx="2.044" ry="2.044" transform="translate(56.074 1.741)"/><ellipse class="t" cx="1.846" cy="1.846" rx="1.846" ry="1.846" transform="translate(56.179 1.834)"/><ellipse class="u" cx="1.659" cy="1.659" rx="1.659" ry="1.659" transform="translate(56.284 1.928)"/><ellipse class="v" cx="1.46" cy="1.46" rx="1.46" ry="1.46" transform="translate(56.401 2.021)"/><ellipse class="a" cx="5.561" cy="5.561" rx="5.561" ry="5.561" transform="translate(61.377 1.063)"/><ellipse class="b" cx="5.362" cy="5.362" rx="5.362" ry="5.362" transform="translate(61.494 1.157)"/><ellipse class="c" cx="5.175" cy="5.175" rx="5.175" ry="5.175" transform="translate(61.599 1.25)"/><ellipse class="d" cx="4.977" cy="4.977" rx="4.977" ry="4.977" transform="translate(61.716 1.343)"/><ellipse class="e" cx="4.778" cy="4.778" rx="4.778" ry="4.778" transform="translate(61.821 1.449)"/><ellipse class="f" cx="4.591" cy="4.591" rx="4.591" ry="4.591" transform="translate(61.926 1.53)"/><ellipse class="g" cx="4.392" cy="4.392" rx="4.392" ry="4.392" transform="translate(62.043 1.635)"/><ellipse class="h" cx="4.194" cy="4.194" rx="4.194" ry="4.194" transform="translate(62.16 1.741)"/><ellipse class="i" cx="3.995" cy="3.995" rx="3.995" ry="3.995" transform="translate(62.277 1.834)"/><ellipse class="j" cx="3.808" cy="3.808" rx="3.808" ry="3.808" transform="translate(62.382 1.928)"/><ellipse class="k" cx="3.61" cy="3.61" rx="3.61" ry="3.61" transform="translate(62.499 2.021)"/><ellipse class="l" cx="3.411" cy="3.411" rx="3.411" ry="3.411" transform="translate(62.616 2.126)"/><ellipse class="m" cx="3.213" cy="3.213" rx="3.213" ry="3.213" transform="translate(62.721 2.22)"/><ellipse class="n" cx="3.026" cy="3.026" rx="3.026" ry="3.026" transform="translate(62.826 2.313)"/><ellipse class="o" cx="2.827" cy="2.827" rx="2.827" ry="2.827" transform="translate(62.943 2.406)"/><ellipse class="p" cx="2.628" cy="2.628" rx="2.628" ry="2.628" transform="translate(63.06 2.512)"/><ellipse class="q" cx="2.442" cy="2.442" rx="2.442" ry="2.442" transform="translate(63.165 2.593)"/><ellipse class="r" cx="2.243" cy="2.243" rx="2.243" ry="2.243" transform="translate(63.282 2.699)"/><ellipse class="s" cx="2.044" cy="2.044" rx="2.044" ry="2.044" transform="translate(63.398 2.792)"/><ellipse class="t" cx="1.846" cy="1.846" rx="1.846" ry="1.846" transform="translate(63.515 2.897)"/><ellipse class="u" cx="1.659" cy="1.659" rx="1.659" ry="1.659" transform="translate(63.609 2.991)"/><ellipse class="v" cx="1.46" cy="1.46" rx="1.46" ry="1.46" transform="translate(63.726 3.084)"/><ellipse class="a" cx="5.561" cy="5.561" rx="5.561" ry="5.561" transform="translate(45.385 0.607)"/><ellipse class="b" cx="5.362" cy="5.362" rx="5.362" ry="5.362" transform="translate(45.502 0.701)"/><ellipse class="c" cx="5.175" cy="5.175" rx="5.175" ry="5.175" transform="translate(45.607 0.794)"/><ellipse class="d" cx="4.977" cy="4.977" rx="4.977" ry="4.977" transform="translate(45.723 0.888)"/><ellipse class="e" cx="4.778" cy="4.778" rx="4.778" ry="4.778" transform="translate(45.84 0.993)"/><ellipse class="f" cx="4.591" cy="4.591" rx="4.591" ry="4.591" transform="translate(45.945 1.086)"/><ellipse class="g" cx="4.392" cy="4.392" rx="4.392" ry="4.392" transform="translate(46.051 1.18)"/><ellipse class="h" cx="4.194" cy="4.194" rx="4.194" ry="4.194" transform="translate(46.167 1.285)"/><ellipse class="i" cx="3.995" cy="3.995" rx="3.995" ry="3.995" transform="translate(46.284 1.378)"/><ellipse class="j" cx="3.808" cy="3.808" rx="3.808" ry="3.808" transform="translate(46.389 1.472)"/><ellipse class="k" cx="3.61" cy="3.61" rx="3.61" ry="3.61" transform="translate(46.506 1.565)"/><ellipse class="l" cx="3.411" cy="3.411" rx="3.411" ry="3.411" transform="translate(46.623 1.671)"/><ellipse class="m" cx="3.224" cy="3.224" rx="3.224" ry="3.224" transform="translate(46.728 1.752)"/><ellipse class="n" cx="3.026" cy="3.026" rx="3.026" ry="3.026" transform="translate(46.845 1.857)"/><ellipse class="o" cx="2.827" cy="2.827" rx="2.827" ry="2.827" transform="translate(46.95 1.951)"/><ellipse class="p" cx="2.628" cy="2.628" rx="2.628" ry="2.628" transform="translate(47.067 2.056)"/><ellipse class="q" cx="2.442" cy="2.442" rx="2.442" ry="2.442" transform="translate(47.172 2.138)"/><ellipse class="r" cx="2.243" cy="2.243" rx="2.243" ry="2.243" transform="translate(47.289 2.243)"/><ellipse class="s" cx="2.044" cy="2.044" rx="2.044" ry="2.044" transform="translate(47.406 2.348)"/><ellipse class="t" cx="1.846" cy="1.846" rx="1.846" ry="1.846" transform="translate(47.523 2.442)"/><ellipse class="u" cx="1.659" cy="1.659" rx="1.659" ry="1.659" transform="translate(47.628 2.535)"/><ellipse class="v" cx="1.46" cy="1.46" rx="1.46" ry="1.46" transform="translate(47.733 2.628)"/><ellipse class="a" cx="5.561" cy="5.561" rx="5.561" ry="5.561" transform="translate(36.366 1.682)"/><ellipse class="b" cx="5.362" cy="5.362" rx="5.362" ry="5.362" transform="translate(36.483 1.776)"/><ellipse class="c" cx="5.175" cy="5.175" rx="5.175" ry="5.175" transform="translate(36.588 1.869)"/><ellipse class="d" cx="4.977" cy="4.977" rx="4.977" ry="4.977" transform="translate(36.693 1.963)"/><ellipse class="e" cx="4.778" cy="4.778" rx="4.778" ry="4.778" transform="translate(36.81 2.068)"/><ellipse class="f" cx="4.591" cy="4.591" rx="4.591" ry="4.591" transform="translate(36.915 2.149)"/><ellipse class="g" cx="4.392" cy="4.392" rx="4.392" ry="4.392" transform="translate(37.032 2.255)"/><ellipse class="h" cx="4.194" cy="4.194" rx="4.194" ry="4.194" transform="translate(37.149 2.348)"/><ellipse class="i" cx="3.995" cy="3.995" rx="3.995" ry="3.995" transform="translate(37.266 2.453)"/><ellipse class="j" cx="3.808" cy="3.808" rx="3.808" ry="3.808" transform="translate(37.371 2.535)"/><ellipse class="k" cx="3.61" cy="3.61" rx="3.61" ry="3.61" transform="translate(37.488 2.64)"/><ellipse class="l" cx="3.411" cy="3.411" rx="3.411" ry="3.411" transform="translate(37.593 2.734)"/><ellipse class="m" cx="3.224" cy="3.224" rx="3.224" ry="3.224" transform="translate(37.698 2.827)"/><ellipse class="n" cx="3.026" cy="3.026" rx="3.026" ry="3.026" transform="translate(37.815 2.932)"/><ellipse class="o" cx="2.827" cy="2.827" rx="2.827" ry="2.827" transform="translate(37.932 3.026)"/><ellipse class="p" cx="2.628" cy="2.628" rx="2.628" ry="2.628" transform="translate(38.048 3.131)"/><ellipse class="q" cx="2.442" cy="2.442" rx="2.442" ry="2.442" transform="translate(38.154 3.213)"/><ellipse class="r" cx="2.243" cy="2.243" rx="2.243" ry="2.243" transform="translate(38.27 3.318)"/><ellipse class="s" cx="2.044" cy="2.044" rx="2.044" ry="2.044" transform="translate(38.375 3.411)"/><ellipse class="t" cx="1.846" cy="1.846" rx="1.846" ry="1.846" transform="translate(38.492 3.516)"/><ellipse class="u" cx="1.659" cy="1.659" rx="1.659" ry="1.659" transform="translate(38.597 3.598)"/><ellipse class="v" cx="1.46" cy="1.46" rx="1.46" ry="1.46" transform="translate(38.714 3.703)"/><ellipse class="a" cx="5.561" cy="5.561" rx="5.561" ry="5.561" transform="translate(27.348 2.021)"/><ellipse class="b" cx="5.362" cy="5.362" rx="5.362" ry="5.362" transform="translate(27.453 2.126)"/><ellipse class="c" cx="5.175" cy="5.175" rx="5.175" ry="5.175" transform="translate(27.558 2.208)"/><ellipse class="d" cx="4.977" cy="4.977" rx="4.977" ry="4.977" transform="translate(27.675 2.313)"/><ellipse class="e" cx="4.778" cy="4.778" rx="4.778" ry="4.778" transform="translate(27.792 2.406)"/><ellipse class="f" cx="4.591" cy="4.591" rx="4.591" ry="4.591" transform="translate(27.897 2.5)"/><ellipse class="g" cx="4.392" cy="4.392" rx="4.392" ry="4.392" transform="translate(28.014 2.593)"/><ellipse class="h" cx="4.194" cy="4.194" rx="4.194" ry="4.194" transform="translate(28.13 2.699)"/><ellipse class="i" cx="3.995" cy="3.995" rx="3.995" ry="3.995" transform="translate(28.235 2.792)"/><ellipse class="j" cx="3.808" cy="3.808" rx="3.808" ry="3.808" transform="translate(28.341 2.885)"/><ellipse class="k" cx="3.61" cy="3.61" rx="3.61" ry="3.61" transform="translate(28.457 2.979)"/><ellipse class="l" cx="3.411" cy="3.411" rx="3.411" ry="3.411" transform="translate(28.574 3.084)"/><ellipse class="m" cx="3.213" cy="3.213" rx="3.213" ry="3.213" transform="translate(28.691 3.178)"/><ellipse class="n" cx="3.026" cy="3.026" rx="3.026" ry="3.026" transform="translate(28.796 3.271)"/><ellipse class="o" cx="2.827" cy="2.827" rx="2.827" ry="2.827" transform="translate(28.913 3.376)"/><ellipse class="p" cx="2.628" cy="2.628" rx="2.628" ry="2.628" transform="translate(29.03 3.47)"/><ellipse class="q" cx="2.442" cy="2.442" rx="2.442" ry="2.442" transform="translate(29.123 3.563)"/><ellipse class="r" cx="2.243" cy="2.243" rx="2.243" ry="2.243" transform="translate(29.24 3.656)"/><ellipse class="s" cx="2.044" cy="2.044" rx="2.044" ry="2.044" transform="translate(29.357 3.762)"/><ellipse class="t" cx="1.846" cy="1.846" rx="1.846" ry="1.846" transform="translate(29.474 3.855)"/><ellipse class="u" cx="1.659" cy="1.659" rx="1.659" ry="1.659" transform="translate(29.579 3.949)"/><ellipse class="v" cx="1.46" cy="1.46" rx="1.46" ry="1.46" transform="translate(29.696 4.042)"/><ellipse class="a" cx="5.561" cy="5.561" rx="5.561" ry="5.561" transform="translate(17.511 5.21)"/><ellipse class="b" cx="5.362" cy="5.362" rx="5.362" ry="5.362" transform="translate(17.628 5.315)"/><ellipse class="c" cx="5.175" cy="5.175" rx="5.175" ry="5.175" transform="translate(17.733 5.397)"/><ellipse class="d" cx="4.977" cy="4.977" rx="4.977" ry="4.977" transform="translate(17.85 5.502)"/><ellipse class="e" cx="4.778" cy="4.778" rx="4.778" ry="4.778" transform="translate(17.967 5.596)"/><ellipse class="f" cx="4.591" cy="4.591" rx="4.591" ry="4.591" transform="translate(18.072 5.689)"/><ellipse class="g" cx="4.392" cy="4.392" rx="4.392" ry="4.392" transform="translate(18.189 5.794)"/><ellipse class="h" cx="4.194" cy="4.194" rx="4.194" ry="4.194" transform="translate(18.294 5.888)"/><ellipse class="i" cx="3.995" cy="3.995" rx="3.995" ry="3.995" transform="translate(18.411 5.993)"/><ellipse class="j" cx="3.808" cy="3.808" rx="3.808" ry="3.808" transform="translate(18.516 6.075)"/><ellipse class="k" cx="3.61" cy="3.61" rx="3.61" ry="3.61" transform="translate(18.633 6.18)"/><ellipse class="l" cx="3.411" cy="3.411" rx="3.411" ry="3.411" transform="translate(18.75 6.273)"/><ellipse class="m" cx="3.213" cy="3.213" rx="3.213" ry="3.213" transform="translate(18.866 6.378)"/><ellipse class="n" cx="3.026" cy="3.026" rx="3.026" ry="3.026" transform="translate(18.972 6.46)"/><ellipse class="o" cx="2.827" cy="2.827" rx="2.827" ry="2.827" transform="translate(19.088 6.565)"/><ellipse class="p" cx="2.628" cy="2.628" rx="2.628" ry="2.628" transform="translate(19.194 6.659)"/><ellipse class="q" cx="2.442" cy="2.442" rx="2.442" ry="2.442" transform="translate(19.299 6.752)"/><ellipse class="r" cx="2.243" cy="2.243" rx="2.243" ry="2.243" transform="translate(19.416 6.846)"/><ellipse class="s" cx="2.044" cy="2.044" rx="2.044" ry="2.044" transform="translate(19.532 6.951)"/><ellipse class="t" cx="1.846" cy="1.846" rx="1.846" ry="1.846" transform="translate(19.649 7.056)"/><ellipse class="u" cx="1.659" cy="1.659" rx="1.659" ry="1.659" transform="translate(19.754 7.138)"/><ellipse class="v" cx="1.46" cy="1.46" rx="1.46" ry="1.46" transform="translate(19.871 7.243)"/><ellipse class="a" cx="5.561" cy="5.561" rx="5.561" ry="5.561" transform="translate(7.64 5.21)"/><ellipse class="b" cx="5.362" cy="5.362" rx="5.362" ry="5.362" transform="translate(7.745 5.315)"/><ellipse class="c" cx="5.175" cy="5.175" rx="5.175" ry="5.175" transform="translate(7.85 5.397)"/><ellipse class="d" cx="4.977" cy="4.977" rx="4.977" ry="4.977" transform="translate(7.967 5.502)"/><ellipse class="e" cx="4.778" cy="4.778" rx="4.778" ry="4.778" transform="translate(8.084 5.596)"/><ellipse class="f" cx="4.591" cy="4.591" rx="4.591" ry="4.591" transform="translate(8.189 5.689)"/><ellipse class="g" cx="4.392" cy="4.392" rx="4.392" ry="4.392" transform="translate(8.306 5.794)"/><ellipse class="h" cx="4.194" cy="4.194" rx="4.194" ry="4.194" transform="translate(8.423 5.888)"/><ellipse class="i" cx="3.995" cy="3.995" rx="3.995" ry="3.995" transform="translate(8.54 5.993)"/><ellipse class="j" cx="3.808" cy="3.808" rx="3.808" ry="3.808" transform="translate(8.633 6.075)"/><ellipse class="k" cx="3.61" cy="3.61" rx="3.61" ry="3.61" transform="translate(8.75 6.18)"/><ellipse class="l" cx="3.411" cy="3.411" rx="3.411" ry="3.411" transform="translate(8.867 6.273)"/><ellipse class="m" cx="3.213" cy="3.213" rx="3.213" ry="3.213" transform="translate(8.983 6.378)"/><ellipse class="n" cx="3.026" cy="3.026" rx="3.026" ry="3.026" transform="translate(9.089 6.46)"/><ellipse class="o" cx="2.827" cy="2.827" rx="2.827" ry="2.827" transform="translate(9.205 6.565)"/><ellipse class="p" cx="2.628" cy="2.628" rx="2.628" ry="2.628" transform="translate(9.322 6.659)"/><ellipse class="q" cx="2.442" cy="2.442" rx="2.442" ry="2.442" transform="translate(9.416 6.752)"/><ellipse class="r" cx="2.243" cy="2.243" rx="2.243" ry="2.243" transform="translate(9.533 6.846)"/><ellipse class="s" cx="2.044" cy="2.044" rx="2.044" ry="2.044" transform="translate(9.649 6.951)"/><ellipse class="t" cx="1.846" cy="1.846" rx="1.846" ry="1.846" transform="translate(9.766 7.056)"/><ellipse class="u" cx="1.659" cy="1.659" rx="1.659" ry="1.659" transform="translate(9.871 7.138)"/><ellipse class="v" cx="1.46" cy="1.46" rx="1.46" ry="1.46" transform="translate(9.988 7.243)"/><ellipse class="a" cx="5.561" cy="5.561" rx="5.561" ry="5.561" transform="translate(0 9.497)"/><ellipse class="b" cx="5.362" cy="5.362" rx="5.362" ry="5.362" transform="translate(0.117 9.603)"/><ellipse class="c" cx="5.175" cy="5.175" rx="5.175" ry="5.175" transform="translate(0.222 9.684)"/><ellipse class="d" cx="4.977" cy="4.977" rx="4.977" ry="4.977" transform="translate(0.327 9.79)"/><ellipse class="e" cx="4.778" cy="4.778" rx="4.778" ry="4.778" transform="translate(0.444 9.895)"/><ellipse class="f" cx="4.591" cy="4.591" rx="4.591" ry="4.591" transform="translate(0.549 9.976)"/><ellipse class="g" cx="4.392" cy="4.392" rx="4.392" ry="4.392" transform="translate(0.666 10.082)"/><ellipse class="h" cx="4.194" cy="4.194" rx="4.194" ry="4.194" transform="translate(0.783 10.175)"/><ellipse class="i" cx="3.995" cy="3.995" rx="3.995" ry="3.995" transform="translate(0.9 10.28)"/><ellipse class="j" cx="3.808" cy="3.808" rx="3.808" ry="3.808" transform="translate(1.005 10.362)"/><ellipse class="k" cx="3.61" cy="3.61" rx="3.61" ry="3.61" transform="translate(1.11 10.467)"/><ellipse class="l" cx="3.411" cy="3.411" rx="3.411" ry="3.411" transform="translate(1.227 10.561)"/><ellipse class="m" cx="3.224" cy="3.224" rx="3.224" ry="3.224" transform="translate(1.332 10.654)"/><ellipse class="n" cx="3.026" cy="3.026" rx="3.026" ry="3.026" transform="translate(1.449 10.747)"/><ellipse class="o" cx="2.827" cy="2.827" rx="2.827" ry="2.827" transform="translate(1.565 10.853)"/><ellipse class="p" cx="2.628" cy="2.628" rx="2.628" ry="2.628" transform="translate(1.682 10.946)"/><ellipse class="q" cx="2.442" cy="2.442" rx="2.442" ry="2.442" transform="translate(1.787 11.04)"/><ellipse class="r" cx="2.243" cy="2.243" rx="2.243" ry="2.243" transform="translate(1.904 11.145)"/><ellipse class="s" cx="2.044" cy="2.044" rx="2.044" ry="2.044" transform="translate(2.009 11.238)"/><ellipse class="t" cx="1.846" cy="1.846" rx="1.846" ry="1.846" transform="translate(2.126 11.343)"/><ellipse class="u" cx="1.659" cy="1.659" rx="1.659" ry="1.659" transform="translate(2.231 11.425)"/><ellipse class="v" cx="1.46" cy="1.46" rx="1.46" ry="1.46" transform="translate(2.348 11.53)"/><ellipse class="a" cx="5.561" cy="5.561" rx="5.561" ry="5.561" transform="translate(1.484 14.451)"/><ellipse class="b" cx="5.362" cy="5.362" rx="5.362" ry="5.362" transform="translate(1.6 14.544)"/><ellipse class="c" cx="5.175" cy="5.175" rx="5.175" ry="5.175" transform="translate(1.706 14.638)"/><ellipse class="d" cx="4.977" cy="4.977" rx="4.977" ry="4.977" transform="translate(1.822 14.731)"/><ellipse class="e" cx="4.778" cy="4.778" rx="4.778" ry="4.778" transform="translate(1.928 14.836)"/><ellipse class="f" cx="4.591" cy="4.591" rx="4.591" ry="4.591" transform="translate(2.033 14.918)"/><ellipse class="g" cx="4.392" cy="4.392" rx="4.392" ry="4.392" transform="translate(2.149 15.023)"/><ellipse class="h" cx="4.194" cy="4.194" rx="4.194" ry="4.194" transform="translate(2.266 15.117)"/><ellipse class="i" cx="3.995" cy="3.995" rx="3.995" ry="3.995" transform="translate(2.383 15.222)"/><ellipse class="j" cx="3.808" cy="3.808" rx="3.808" ry="3.808" transform="translate(2.488 15.315)"/><ellipse class="k" cx="3.61" cy="3.61" rx="3.61" ry="3.61" transform="translate(2.605 15.409)"/><ellipse class="l" cx="3.411" cy="3.411" rx="3.411" ry="3.411" transform="translate(2.722 15.514)"/><ellipse class="m" cx="3.213" cy="3.213" rx="3.213" ry="3.213" transform="translate(2.827 15.607)"/><ellipse class="n" cx="3.026" cy="3.026" rx="3.026" ry="3.026" transform="translate(2.932 15.701)"/><ellipse class="o" cx="2.827" cy="2.827" rx="2.827" ry="2.827" transform="translate(3.049 15.794)"/><ellipse class="p" cx="2.628" cy="2.628" rx="2.628" ry="2.628" transform="translate(3.166 15.899)"/><ellipse class="q" cx="2.442" cy="2.442" rx="2.442" ry="2.442" transform="translate(3.271 15.981)"/><ellipse class="r" cx="2.243" cy="2.243" rx="2.243" ry="2.243" transform="translate(3.388 16.086)"/><ellipse class="s" cx="2.044" cy="2.044" rx="2.044" ry="2.044" transform="translate(3.505 16.18)"/><ellipse class="t" cx="1.846" cy="1.846" rx="1.846" ry="1.846" transform="translate(3.61 16.285)"/><ellipse class="u" cx="1.659" cy="1.659" rx="1.659" ry="1.659" transform="translate(3.715 16.367)"/><ellipse class="v" cx="1.46" cy="1.46" rx="1.46" ry="1.46" transform="translate(3.832 16.472)"/><ellipse class="a" cx="5.561" cy="5.561" rx="5.561" ry="5.561" transform="translate(7.348 19.392)"/><ellipse class="b" cx="5.362" cy="5.362" rx="5.362" ry="5.362" transform="translate(7.465 19.497)"/><ellipse class="c" cx="5.175" cy="5.175" rx="5.175" ry="5.175" transform="translate(7.57 19.579)"/><ellipse class="d" cx="4.977" cy="4.977" rx="4.977" ry="4.977" transform="translate(7.675 19.684)"/><ellipse class="e" cx="4.778" cy="4.778" rx="4.778" ry="4.778" transform="translate(7.792 19.778)"/><ellipse class="f" cx="4.591" cy="4.591" rx="4.591" ry="4.591" transform="translate(7.897 19.871)"/><ellipse class="g" cx="4.392" cy="4.392" rx="4.392" ry="4.392" transform="translate(8.014 19.965)"/><ellipse class="h" cx="4.194" cy="4.194" rx="4.194" ry="4.194" transform="translate(8.131 20.07)"/><ellipse class="i" cx="3.995" cy="3.995" rx="3.995" ry="3.995" transform="translate(8.248 20.163)"/><ellipse class="j" cx="3.808" cy="3.808" rx="3.808" ry="3.808" transform="translate(8.353 20.257)"/><ellipse class="k" cx="3.61" cy="3.61" rx="3.61" ry="3.61" transform="translate(8.458 20.35)"/><ellipse class="l" cx="3.411" cy="3.411" rx="3.411" ry="3.411" transform="translate(8.575 20.455)"/><ellipse class="m" cx="3.213" cy="3.213" rx="3.213" ry="3.213" transform="translate(8.691 20.56)"/><ellipse class="n" cx="3.026" cy="3.026" rx="3.026" ry="3.026" transform="translate(8.797 20.642)"/><ellipse class="o" cx="2.827" cy="2.827" rx="2.827" ry="2.827" transform="translate(8.913 20.747)"/><ellipse class="p" cx="2.628" cy="2.628" rx="2.628" ry="2.628" transform="translate(9.03 20.841)"/><ellipse class="q" cx="2.442" cy="2.442" rx="2.442" ry="2.442" transform="translate(9.135 20.934)"/><ellipse class="r" cx="2.243" cy="2.243" rx="2.243" ry="2.243" transform="translate(9.252 21.028)"/><ellipse class="s" cx="2.044" cy="2.044" rx="2.044" ry="2.044" transform="translate(9.357 21.133)"/><ellipse class="t" cx="1.846" cy="1.846" rx="1.846" ry="1.846" transform="translate(9.474 21.226)"/><ellipse class="u" cx="1.659" cy="1.659" rx="1.659" ry="1.659" transform="translate(9.579 21.32)"/><ellipse class="v" cx="1.46" cy="1.46" rx="1.46" ry="1.46" transform="translate(9.696 21.413)"/><ellipse class="a" cx="5.561" cy="5.561" rx="5.561" ry="5.561" transform="translate(14.31 25.747)"/><ellipse class="b" cx="5.362" cy="5.362" rx="5.362" ry="5.362" transform="translate(14.427 25.852)"/><ellipse class="c" cx="5.175" cy="5.175" rx="5.175" ry="5.175" transform="translate(14.521 25.946)"/><ellipse class="d" cx="4.977" cy="4.977" rx="4.977" ry="4.977" transform="translate(14.638 26.039)"/><ellipse class="e" cx="4.778" cy="4.778" rx="4.778" ry="4.778" transform="translate(14.754 26.144)"/><ellipse class="f" cx="4.591" cy="4.591" rx="4.591" ry="4.591" transform="translate(14.86 26.226)"/><ellipse class="g" cx="4.392" cy="4.392" rx="4.392" ry="4.392" transform="translate(14.976 26.331)"/><ellipse class="h" cx="4.194" cy="4.194" rx="4.194" ry="4.194" transform="translate(15.093 26.425)"/><ellipse class="i" cx="3.995" cy="3.995" rx="3.995" ry="3.995" transform="translate(15.21 26.53)"/><ellipse class="j" cx="3.808" cy="3.808" rx="3.808" ry="3.808" transform="translate(15.303 26.612)"/><ellipse class="k" cx="3.61" cy="3.61" rx="3.61" ry="3.61" transform="translate(15.42 26.717)"/><ellipse class="l" cx="3.411" cy="3.411" rx="3.411" ry="3.411" transform="translate(15.537 26.81)"/><ellipse class="m" cx="3.213" cy="3.213" rx="3.213" ry="3.213" transform="translate(15.654 26.915)"/><ellipse class="n" cx="3.026" cy="3.026" rx="3.026" ry="3.026" transform="translate(15.759 26.997)"/><ellipse class="o" cx="2.827" cy="2.827" rx="2.827" ry="2.827" transform="translate(15.876 27.102)"/><ellipse class="p" cx="2.628" cy="2.628" rx="2.628" ry="2.628" transform="translate(15.993 27.196)"/><ellipse class="q" cx="2.442" cy="2.442" rx="2.442" ry="2.442" transform="translate(16.098 27.289)"/><ellipse class="r" cx="2.243" cy="2.243" rx="2.243" ry="2.243" transform="translate(16.203 27.394)"/><ellipse class="s" cx="2.044" cy="2.044" rx="2.044" ry="2.044" transform="translate(16.32 27.488)"/><ellipse class="t" cx="1.846" cy="1.846" rx="1.846" ry="1.846" transform="translate(16.437 27.593)"/><ellipse class="u" cx="1.659" cy="1.659" rx="1.659" ry="1.659" transform="translate(16.542 27.675)"/><ellipse class="v" cx="1.46" cy="1.46" rx="1.46" ry="1.46" transform="translate(16.659 27.78)"/><ellipse class="a" cx="5.561" cy="5.561" rx="5.561" ry="5.561" transform="translate(67.884 5.561)"/><ellipse class="b" cx="5.362" cy="5.362" rx="5.362" ry="5.362" transform="translate(68.001 5.666)"/><ellipse class="c" cx="5.175" cy="5.175" rx="5.175" ry="5.175" transform="translate(68.106 5.748)"/><ellipse class="d" cx="4.977" cy="4.977" rx="4.977" ry="4.977" transform="translate(68.211 5.853)"/><ellipse class="e" cx="4.778" cy="4.778" rx="4.778" ry="4.778" transform="translate(68.328 5.946)"/><ellipse class="f" cx="4.591" cy="4.591" rx="4.591" ry="4.591" transform="translate(68.433 6.04)"/><ellipse class="g" cx="4.392" cy="4.392" rx="4.392" ry="4.392" transform="translate(68.55 6.145)"/><ellipse class="h" cx="4.194" cy="4.194" rx="4.194" ry="4.194" transform="translate(68.667 6.238)"/><ellipse class="i" cx="3.995" cy="3.995" rx="3.995" ry="3.995" transform="translate(68.784 6.343)"/><ellipse class="j" cx="3.808" cy="3.808" rx="3.808" ry="3.808" transform="translate(68.889 6.425)"/><ellipse class="k" cx="3.61" cy="3.61" rx="3.61" ry="3.61" transform="translate(68.994 6.53)"/><ellipse class="l" cx="3.411" cy="3.411" rx="3.411" ry="3.411" transform="translate(69.111 6.624)"/><ellipse class="m" cx="3.213" cy="3.213" rx="3.213" ry="3.213" transform="translate(69.228 6.729)"/><ellipse class="n" cx="3.026" cy="3.026" rx="3.026" ry="3.026" transform="translate(69.333 6.811)"/><ellipse class="o" cx="2.827" cy="2.827" rx="2.827" ry="2.827" transform="translate(69.45 6.916)"/><ellipse class="p" cx="2.628" cy="2.628" rx="2.628" ry="2.628" transform="translate(69.567 7.009)"/><ellipse class="q" cx="2.442" cy="2.442" rx="2.442" ry="2.442" transform="translate(69.672 7.103)"/><ellipse class="r" cx="2.243" cy="2.243" rx="2.243" ry="2.243" transform="translate(69.788 7.196)"/><ellipse class="s" cx="2.044" cy="2.044" rx="2.044" ry="2.044" transform="translate(69.894 7.301)"/><ellipse class="t" cx="1.846" cy="1.846" rx="1.846" ry="1.846" transform="translate(70.01 7.406)"/><ellipse class="u" cx="1.659" cy="1.659" rx="1.659" ry="1.659" transform="translate(70.116 7.488)"/><ellipse class="v" cx="1.46" cy="1.46" rx="1.46" ry="1.46" transform="translate(70.232 7.593)"/><ellipse class="a" cx="5.561" cy="5.561" rx="5.561" ry="5.561" transform="translate(65.56 13.75)"/><ellipse class="b" cx="5.362" cy="5.362" rx="5.362" ry="5.362" transform="translate(65.676 13.843)"/><ellipse class="c" cx="5.175" cy="5.175" rx="5.175" ry="5.175" transform="translate(65.782 13.937)"/><ellipse class="d" cx="4.977" cy="4.977" rx="4.977" ry="4.977" transform="translate(65.898 14.03)"/><ellipse class="e" cx="4.778" cy="4.778" rx="4.778" ry="4.778" transform="translate(66.004 14.135)"/><ellipse class="f" cx="4.591" cy="4.591" rx="4.591" ry="4.591" transform="translate(66.109 14.229)"/><ellipse class="g" cx="4.392" cy="4.392" rx="4.392" ry="4.392" transform="translate(66.225 14.322)"/><ellipse class="h" cx="4.194" cy="4.194" rx="4.194" ry="4.194" transform="translate(66.342 14.427)"/><ellipse class="i" cx="3.995" cy="3.995" rx="3.995" ry="3.995" transform="translate(66.459 14.521)"/><ellipse class="j" cx="3.808" cy="3.808" rx="3.808" ry="3.808" transform="translate(66.564 14.614)"/><ellipse class="k" cx="3.61" cy="3.61" rx="3.61" ry="3.61" transform="translate(66.681 14.708)"/><ellipse class="l" cx="3.411" cy="3.411" rx="3.411" ry="3.411" transform="translate(66.798 14.813)"/><ellipse class="m" cx="3.224" cy="3.224" rx="3.224" ry="3.224" transform="translate(66.891 14.895)"/><ellipse class="n" cx="3.026" cy="3.026" rx="3.026" ry="3.026" transform="translate(67.008 15)"/><ellipse class="o" cx="2.827" cy="2.827" rx="2.827" ry="2.827" transform="translate(67.125 15.093)"/><ellipse class="p" cx="2.628" cy="2.628" rx="2.628" ry="2.628" transform="translate(67.242 15.198)"/><ellipse class="q" cx="2.442" cy="2.442" rx="2.442" ry="2.442" transform="translate(67.347 15.28)"/><ellipse class="r" cx="2.243" cy="2.243" rx="2.243" ry="2.243" transform="translate(67.464 15.385)"/><ellipse class="s" cx="2.044" cy="2.044" rx="2.044" ry="2.044" transform="translate(67.581 15.479)"/><ellipse class="t" cx="1.846" cy="1.846" rx="1.846" ry="1.846" transform="translate(67.697 15.584)"/><ellipse class="u" cx="1.659" cy="1.659" rx="1.659" ry="1.659" transform="translate(67.791 15.666)"/><ellipse class="v" cx="1.46" cy="1.46" rx="1.46" ry="1.46" transform="translate(67.908 15.771)"/><ellipse class="a" cx="5.561" cy="5.561" rx="5.561" ry="5.561" transform="translate(57.861 17.967)"/><ellipse class="b" cx="5.362" cy="5.362" rx="5.362" ry="5.362" transform="translate(57.978 18.06)"/><ellipse class="c" cx="5.175" cy="5.175" rx="5.175" ry="5.175" transform="translate(58.083 18.154)"/><ellipse class="d" cx="4.977" cy="4.977" rx="4.977" ry="4.977" transform="translate(58.2 18.247)"/><ellipse class="e" cx="4.778" cy="4.778" rx="4.778" ry="4.778" transform="translate(58.317 18.352)"/><ellipse class="f" cx="4.591" cy="4.591" rx="4.591" ry="4.591" transform="translate(58.422 18.434)"/><ellipse class="g" cx="4.392" cy="4.392" rx="4.392" ry="4.392" transform="translate(58.539 18.539)"/><ellipse class="h" cx="4.194" cy="4.194" rx="4.194" ry="4.194" transform="translate(58.644 18.633)"/><ellipse class="i" cx="3.995" cy="3.995" rx="3.995" ry="3.995" transform="translate(58.761 18.738)"/><ellipse class="j" cx="3.808" cy="3.808" rx="3.808" ry="3.808" transform="translate(58.866 18.82)"/><ellipse class="k" cx="3.61" cy="3.61" rx="3.61" ry="3.61" transform="translate(58.983 18.925)"/><ellipse class="l" cx="3.411" cy="3.411" rx="3.411" ry="3.411" transform="translate(59.099 19.03)"/><ellipse class="m" cx="3.224" cy="3.224" rx="3.224" ry="3.224" transform="translate(59.205 19.112)"/><ellipse class="n" cx="3.026" cy="3.026" rx="3.026" ry="3.026" transform="translate(59.321 19.217)"/><ellipse class="o" cx="2.827" cy="2.827" rx="2.827" ry="2.827" transform="translate(59.438 19.31)"/><ellipse class="p" cx="2.628" cy="2.628" rx="2.628" ry="2.628" transform="translate(59.543 19.416)"/><ellipse class="q" cx="2.442" cy="2.442" rx="2.442" ry="2.442" transform="translate(59.648 19.497)"/><ellipse class="r" cx="2.243" cy="2.243" rx="2.243" ry="2.243" transform="translate(59.765 19.602)"/><ellipse class="s" cx="2.044" cy="2.044" rx="2.044" ry="2.044" transform="translate(59.882 19.696)"/><ellipse class="t" cx="1.846" cy="1.846" rx="1.846" ry="1.846" transform="translate(59.999 19.801)"/><ellipse class="u" cx="1.659" cy="1.659" rx="1.659" ry="1.659" transform="translate(60.104 19.883)"/><ellipse class="v" cx="1.46" cy="1.46" rx="1.46" ry="1.46" transform="translate(60.221 19.988)"/><ellipse class="a" cx="5.561" cy="5.561" rx="5.561" ry="5.561" transform="translate(47.885 20.035)"/><ellipse class="b" cx="5.362" cy="5.362" rx="5.362" ry="5.362" transform="translate(48.001 20.14)"/><ellipse class="c" cx="5.175" cy="5.175" rx="5.175" ry="5.175" transform="translate(48.107 20.222)"/><ellipse class="d" cx="4.977" cy="4.977" rx="4.977" ry="4.977" transform="translate(48.223 20.327)"/><ellipse class="e" cx="4.778" cy="4.778" rx="4.778" ry="4.778" transform="translate(48.329 20.432)"/><ellipse class="f" cx="4.591" cy="4.591" rx="4.591" ry="4.591" transform="translate(48.434 20.514)"/><ellipse class="g" cx="4.392" cy="4.392" rx="4.392" ry="4.392" transform="translate(48.551 20.619)"/><ellipse class="h" cx="4.194" cy="4.194" rx="4.194" ry="4.194" transform="translate(48.667 20.712)"/><ellipse class="i" cx="3.995" cy="3.995" rx="3.995" ry="3.995" transform="translate(48.784 20.817)"/><ellipse class="j" cx="3.808" cy="3.808" rx="3.808" ry="3.808" transform="translate(48.889 20.899)"/><ellipse class="k" cx="3.61" cy="3.61" rx="3.61" ry="3.61" transform="translate(49.006 21.004)"/><ellipse class="l" cx="3.411" cy="3.411" rx="3.411" ry="3.411" transform="translate(49.111 21.098)"/><ellipse class="m" cx="3.213" cy="3.213" rx="3.213" ry="3.213" transform="translate(49.228 21.203)"/><ellipse class="n" cx="3.026" cy="3.026" rx="3.026" ry="3.026" transform="translate(49.333 21.285)"/><ellipse class="o" cx="2.827" cy="2.827" rx="2.827" ry="2.827" transform="translate(49.45 21.39)"/><ellipse class="p" cx="2.628" cy="2.628" rx="2.628" ry="2.628" transform="translate(49.567 21.483)"/><ellipse class="q" cx="2.442" cy="2.442" rx="2.442" ry="2.442" transform="translate(49.672 21.577)"/><ellipse class="r" cx="2.243" cy="2.243" rx="2.243" ry="2.243" transform="translate(49.789 21.682)"/><ellipse class="s" cx="2.044" cy="2.044" rx="2.044" ry="2.044" transform="translate(49.906 21.775)"/><ellipse class="t" cx="1.846" cy="1.846" rx="1.846" ry="1.846" transform="translate(50.011 21.88)"/><ellipse class="u" cx="1.659" cy="1.659" rx="1.659" ry="1.659" transform="translate(50.116 21.962)"/><ellipse class="v" cx="1.46" cy="1.46" rx="1.46" ry="1.46" transform="translate(50.233 22.067)"/><ellipse class="a" cx="5.561" cy="5.561" rx="5.561" ry="5.561" transform="translate(39.111 24.871)"/><ellipse class="b" cx="5.362" cy="5.362" rx="5.362" ry="5.362" transform="translate(39.228 24.976)"/><ellipse class="c" cx="5.175" cy="5.175" rx="5.175" ry="5.175" transform="translate(39.333 25.058)"/><ellipse class="d" cx="4.977" cy="4.977" rx="4.977" ry="4.977" transform="translate(39.45 25.163)"/><ellipse class="e" cx="4.778" cy="4.778" rx="4.778" ry="4.778" transform="translate(39.555 25.257)"/><ellipse class="f" cx="4.591" cy="4.591" rx="4.591" ry="4.591" transform="translate(39.661 25.35)"/><ellipse class="g" cx="4.392" cy="4.392" rx="4.392" ry="4.392" transform="translate(39.777 25.443)"/><ellipse class="h" cx="4.194" cy="4.194" rx="4.194" ry="4.194" transform="translate(39.894 25.549)"/><ellipse class="i" cx="3.995" cy="3.995" rx="3.995" ry="3.995" transform="translate(40.011 25.642)"/><ellipse class="j" cx="3.808" cy="3.808" rx="3.808" ry="3.808" transform="translate(40.116 25.736)"/><ellipse class="k" cx="3.61" cy="3.61" rx="3.61" ry="3.61" transform="translate(40.233 25.841)"/><ellipse class="l" cx="3.411" cy="3.411" rx="3.411" ry="3.411" transform="translate(40.35 25.934)"/><ellipse class="m" cx="3.213" cy="3.213" rx="3.213" ry="3.213" transform="translate(40.455 26.039)"/><ellipse class="n" cx="3.026" cy="3.026" rx="3.026" ry="3.026" transform="translate(40.56 26.121)"/><ellipse class="o" cx="2.827" cy="2.827" rx="2.827" ry="2.827" transform="translate(40.677 26.226)"/><ellipse class="p" cx="2.628" cy="2.628" rx="2.628" ry="2.628" transform="translate(40.794 26.32)"/><ellipse class="q" cx="2.442" cy="2.442" rx="2.442" ry="2.442" transform="translate(40.899 26.413)"/><ellipse class="r" cx="2.243" cy="2.243" rx="2.243" ry="2.243" transform="translate(41.016 26.507)"/><ellipse class="s" cx="2.044" cy="2.044" rx="2.044" ry="2.044" transform="translate(41.132 26.612)"/><ellipse class="t" cx="1.846" cy="1.846" rx="1.846" ry="1.846" transform="translate(41.238 26.705)"/><ellipse class="u" cx="1.659" cy="1.659" rx="1.659" ry="1.659" transform="translate(41.343 26.799)"/><ellipse class="v" cx="1.46" cy="1.46" rx="1.46" ry="1.46" transform="translate(41.46 26.892)"/><ellipse class="a" cx="5.561" cy="5.561" rx="5.561" ry="5.561" transform="translate(30.992 31.179)"/><ellipse class="b" cx="5.362" cy="5.362" rx="5.362" ry="5.362" transform="translate(31.109 31.273)"/><ellipse class="c" cx="5.175" cy="5.175" rx="5.175" ry="5.175" transform="translate(31.214 31.366)"/><ellipse class="d" cx="4.977" cy="4.977" rx="4.977" ry="4.977" transform="translate(31.331 31.46)"/><ellipse class="e" cx="4.778" cy="4.778" rx="4.778" ry="4.778" transform="translate(31.448 31.565)"/><ellipse class="f" cx="4.591" cy="4.591" rx="4.591" ry="4.591" transform="translate(31.553 31.647)"/><ellipse class="g" cx="4.392" cy="4.392" rx="4.392" ry="4.392" transform="translate(31.658 31.752)"/><ellipse class="h" cx="4.194" cy="4.194" rx="4.194" ry="4.194" transform="translate(31.775 31.845)"/><ellipse class="i" cx="3.995" cy="3.995" rx="3.995" ry="3.995" transform="translate(31.892 31.95)"/><ellipse class="j" cx="3.808" cy="3.808" rx="3.808" ry="3.808" transform="translate(31.997 32.044)"/><ellipse class="k" cx="3.61" cy="3.61" rx="3.61" ry="3.61" transform="translate(32.114 32.137)"/><ellipse class="l" cx="3.411" cy="3.411" rx="3.411" ry="3.411" transform="translate(32.231 32.242)"/><ellipse class="m" cx="3.213" cy="3.213" rx="3.213" ry="3.213" transform="translate(32.348 32.336)"/><ellipse class="n" cx="3.026" cy="3.026" rx="3.026" ry="3.026" transform="translate(32.453 32.429)"/><ellipse class="o" cx="2.827" cy="2.827" rx="2.827" ry="2.827" transform="translate(32.558 32.523)"/><ellipse class="p" cx="2.628" cy="2.628" rx="2.628" ry="2.628" transform="translate(32.675 32.628)"/><ellipse class="q" cx="2.442" cy="2.442" rx="2.442" ry="2.442" transform="translate(32.78 32.71)"/><ellipse class="r" cx="2.243" cy="2.243" rx="2.243" ry="2.243" transform="translate(32.897 32.815)"/><ellipse class="s" cx="2.044" cy="2.044" rx="2.044" ry="2.044" transform="translate(33.013 32.908)"/><ellipse class="t" cx="1.846" cy="1.846" rx="1.846" ry="1.846" transform="translate(33.13 33.013)"/><ellipse class="u" cx="1.659" cy="1.659" rx="1.659" ry="1.659" transform="translate(33.235 33.095)"/><ellipse class="v" cx="1.46" cy="1.46" rx="1.46" ry="1.46" transform="translate(33.341 33.2)"/><ellipse class="a" cx="5.561" cy="5.561" rx="5.561" ry="5.561" transform="translate(19.871 30.56)"/><ellipse class="b" cx="5.362" cy="5.362" rx="5.362" ry="5.362" transform="translate(19.988 30.654)"/><ellipse class="c" cx="5.175" cy="5.175" rx="5.175" ry="5.175" transform="translate(20.093 30.747)"/><ellipse class="d" cx="4.977" cy="4.977" rx="4.977" ry="4.977" transform="translate(20.198 30.852)"/><ellipse class="e" cx="4.778" cy="4.778" rx="4.778" ry="4.778" transform="translate(20.315 30.946)"/><ellipse class="f" cx="4.591" cy="4.591" rx="4.591" ry="4.591" transform="translate(20.42 31.039)"/><ellipse class="g" cx="4.392" cy="4.392" rx="4.392" ry="4.392" transform="translate(20.537 31.133)"/><ellipse class="h" cx="4.194" cy="4.194" rx="4.194" ry="4.194" transform="translate(20.654 31.238)"/><ellipse class="i" cx="3.995" cy="3.995" rx="3.995" ry="3.995" transform="translate(20.771 31.331)"/><ellipse class="j" cx="3.808" cy="3.808" rx="3.808" ry="3.808" transform="translate(20.876 31.425)"/><ellipse class="k" cx="3.61" cy="3.61" rx="3.61" ry="3.61" transform="translate(20.993 31.518)"/><ellipse class="l" cx="3.411" cy="3.411" rx="3.411" ry="3.411" transform="translate(21.098 31.623)"/><ellipse class="m" cx="3.213" cy="3.213" rx="3.213" ry="3.213" transform="translate(21.215 31.717)"/><ellipse class="n" cx="3.026" cy="3.026" rx="3.026" ry="3.026" transform="translate(21.32 31.81)"/><ellipse class="o" cx="2.827" cy="2.827" rx="2.827" ry="2.827" transform="translate(21.437 31.904)"/><ellipse class="p" cx="2.628" cy="2.628" rx="2.628" ry="2.628" transform="translate(21.553 32.009)"/><ellipse class="q" cx="2.442" cy="2.442" rx="2.442" ry="2.442" transform="translate(21.658 32.091)"/><ellipse class="r" cx="2.243" cy="2.243" rx="2.243" ry="2.243" transform="translate(21.775 32.196)"/><ellipse class="s" cx="2.044" cy="2.044" rx="2.044" ry="2.044" transform="translate(21.88 32.301)"/><ellipse class="t" cx="1.846" cy="1.846" rx="1.846" ry="1.846" transform="translate(21.997 32.394)"/><ellipse class="u" cx="1.659" cy="1.659" rx="1.659" ry="1.659" transform="translate(22.102 32.488)"/><ellipse class="v" cx="1.46" cy="1.46" rx="1.46" ry="1.46" transform="translate(22.219 32.581)"/><ellipse class="w" cx="5.561" cy="5.561" rx="5.561" ry="5.561" transform="translate(15.315 37.686)"/><ellipse class="x" cx="5.362" cy="5.362" rx="5.362" ry="5.362" transform="translate(15.432 37.78)"/><ellipse class="y" cx="5.175" cy="5.175" rx="5.175" ry="5.175" transform="translate(15.537 37.873)"/><ellipse class="z" cx="4.977" cy="4.977" rx="4.977" ry="4.977" transform="translate(15.642 37.978)"/><ellipse class="aa" cx="4.778" cy="4.778" rx="4.778" ry="4.778" transform="translate(15.759 38.072)"/><ellipse class="ab" cx="4.591" cy="4.591" rx="4.591" ry="4.591" transform="translate(15.864 38.165)"/><ellipse class="ac" cx="4.392" cy="4.392" rx="4.392" ry="4.392" transform="translate(15.981 38.259)"/><ellipse class="ad" cx="4.194" cy="4.194" rx="4.194" ry="4.194" transform="translate(16.098 38.364)"/><ellipse class="ae" cx="3.995" cy="3.995" rx="3.995" ry="3.995" transform="translate(16.215 38.457)"/><ellipse class="af" cx="3.808" cy="3.808" rx="3.808" ry="3.808" transform="translate(16.32 38.551)"/><ellipse class="ag" cx="3.61" cy="3.61" rx="3.61" ry="3.61" transform="translate(16.437 38.644)"/><ellipse class="ah" cx="3.411" cy="3.411" rx="3.411" ry="3.411" transform="translate(16.542 38.749)"/><ellipse class="ai" cx="3.213" cy="3.213" rx="3.213" ry="3.213" transform="translate(16.659 38.843)"/><ellipse class="aj" cx="3.026" cy="3.026" rx="3.026" ry="3.026" transform="translate(16.764 38.936)"/><ellipse class="ak" cx="2.827" cy="2.827" rx="2.827" ry="2.827" transform="translate(16.881 39.03)"/><ellipse class="al" cx="2.628" cy="2.628" rx="2.628" ry="2.628" transform="translate(16.997 39.135)"/><ellipse class="am" cx="2.442" cy="2.442" rx="2.442" ry="2.442" transform="translate(17.102 39.217)"/><ellipse class="an" cx="2.243" cy="2.243" rx="2.243" ry="2.243" transform="translate(17.219 39.322)"/><ellipse class="ao" cx="2.044" cy="2.044" rx="2.044" ry="2.044" transform="translate(17.324 39.427)"/><ellipse class="ap" cx="1.846" cy="1.846" rx="1.846" ry="1.846" transform="translate(17.441 39.52)"/><ellipse class="aq" cx="1.659" cy="1.659" rx="1.659" ry="1.659" transform="translate(17.546 39.614)"/><ellipse class="ar" cx="1.46" cy="1.46" rx="1.46" ry="1.46" transform="translate(17.663 39.707)"/><path class="w" d="M51.684,40.365l5.642-1.635,4.03,1.168v.876l-3.026,3.656a4.836,4.836,0,0,1-4.836,0l-1.822-1.051a1.752,1.752,0,0,1,.012-3.014Z" transform="translate(-41.719 6.514)"/><path class="w" d="M58.77,41.773V40.43l1.262.315-.818,1.168Z" transform="translate(-49.681 6.8)"/><path class="as" d="M51.7,39.649l5.841-1.8,3.843,2.208-3.026,3.656a4.836,4.836,0,0,1-4.836,0L51.7,42.7a1.752,1.752,0,0,1,0-3.049Z" transform="translate(-41.734 6.366)"/></g></svg>