<svg xmlns="http://www.w3.org/2000/svg" width="84.545" height="84.545" viewBox="0 0 84.545 84.545"><defs><style>.a{fill:#cb8252;}.a,.b,.c,.d,.e{fill-rule:evenodd;}.b{fill:#f9c795;}.c{fill:#3b97d3;}.d{fill:#f0c419;}.e{fill:#fdd7ad;}</style></defs><g transform="translate(-0.004 0.004)"><g transform="translate(0.004 -0.004)"><path class="a" d="M48.157,15.576A6.314,6.314,0,0,1,45.242,21.4H21.916A11.148,11.148,0,0,1,19,14.118c0-5.829,4.374-7.287,4.374-7.287A11.581,11.581,0,0,1,33.579,1a19.117,19.117,0,0,1,7.829,1.457A6.218,6.218,0,0,0,38.958,5.17S48.157,6.831,48.157,15.576Z" transform="translate(8.694 -0.996)"/><path class="b" d="M40.494,35.776a11.493,11.493,0,0,1-5.584,2.609H28.584A11.493,11.493,0,0,1,23,35.776a15.2,15.2,0,0,0,1.822-8.846h13.85A15.2,15.2,0,0,0,40.494,35.776Z" transform="translate(10.526 10.866)"/><path class="c" d="M69.23,48.9v1.793l-5.817,14.37h-49.6L8,50.692V48.9a13.117,13.117,0,0,1,9.739-12.664L29.868,33a11.493,11.493,0,0,0,5.584,2.609h6.327A11.493,11.493,0,0,0,47.362,33l12.129,3.235A13.117,13.117,0,0,1,69.23,48.9Z" transform="translate(3.658 13.642)"/><g transform="translate(0 46.642)"><path class="d" d="M38.04,34.586l4.374,8.587a1.471,1.471,0,0,0,1.107.778L53.3,45.326a2.823,2.823,0,0,1,1.627,4.853L47.85,56.863a1.4,1.4,0,0,0-.421,1.259L49.1,67.558a2.916,2.916,0,0,1-4.261,3L36.091,66.1a1.517,1.517,0,0,0-1.367,0l-8.747,4.455a2.916,2.916,0,0,1-4.261-3l1.671-9.436a1.4,1.4,0,0,0-.421-1.259l-7.076-6.683a2.823,2.823,0,0,1,1.627-4.853l9.779-1.376a1.471,1.471,0,0,0,1.107-.778l4.374-8.587a2.979,2.979,0,0,1,5.266,0Z" transform="translate(6.866 -33)"/><path class="d" d="M12.288,45.855l2.333,4.623a.784.784,0,0,0,.59.42l5.215.74a1.524,1.524,0,0,1,.875,2.614l-3.774,3.6a.755.755,0,0,0-.226.678l.891,5.082a1.558,1.558,0,0,1-2.271,1.615l-4.665-2.4a.8.8,0,0,0-.729,0l-4.665,2.4A1.56,1.56,0,0,1,3.588,63.61l.891-5.082a.758.758,0,0,0-.225-.678l-3.78-3.6a1.524,1.524,0,0,1,.875-2.614l5.21-.74a.781.781,0,0,0,.583-.42l2.333-4.623a1.582,1.582,0,0,1,2.814,0Z" transform="translate(-0.004 -27.513)"/><path class="d" d="M55.36,45.854l2.333,4.623a.781.781,0,0,0,.583.42l5.216.74a1.524,1.524,0,0,1,.867,2.615l-3.774,3.6a.758.758,0,0,0-.225.678l.891,5.082a1.56,1.56,0,0,1-2.273,1.615l-4.665-2.4a.8.8,0,0,0-.729,0l-4.665,2.4a1.558,1.558,0,0,1-2.271-1.615l.891-5.082a.755.755,0,0,0-.226-.678l-3.774-3.6a1.524,1.524,0,0,1,.875-2.614l5.215-.74a.784.784,0,0,0,.59-.42l2.333-4.623a1.582,1.582,0,0,1,2.809,0Z" transform="translate(19.714 -27.512)"/></g><path class="e" d="M50.073,21.659A4.373,4.373,0,0,1,45.7,26.031v2.507a4.4,4.4,0,0,1-1.4,3.206,66.643,66.643,0,0,1-6.123,5.086,4.4,4.4,0,0,1-2.595.86H32.491a4.4,4.4,0,0,1-2.595-.86,66.645,66.645,0,0,1-6.123-5.086,4.4,4.4,0,0,1-1.4-3.206V26.031a4.372,4.372,0,1,1,0-8.744V15.829S22.374,10,26.747,10s4.374,2.915,11.663,2.915h4.272A3.012,3.012,0,0,1,45.5,14.809a3.1,3.1,0,0,1,.2,1.02v1.457A4.373,4.373,0,0,1,50.073,21.659Z" transform="translate(8.236 3.123)"/></g></g></svg>