<svg xmlns="http://www.w3.org/2000/svg" xmlns:xlink="http://www.w3.org/1999/xlink" width="100.217" height="125.048" viewBox="0 0 100.217 125.048"><defs><style>.a{fill:#263132;}.b{fill:#334142;}.c{fill:#6c5d53;}.d{fill:#c8beb7;}.e{fill:#e29c00;}.f{fill:#ebc218;}.g{fill:#f60;}.h{fill:#ffd42a;}.i{fill:#e9e5e2;}.j{opacity:0.68;fill:url(#a);}.k{fill:#e1dcd9;opacity:0.14;}</style><linearGradient id="a" y1="0.5" x2="1" y2="0.5" gradientUnits="objectBoundingBox"><stop offset="0" stop-color="#3a3939"/><stop offset="1" stop-color="#fff"/></linearGradient></defs><path class="a" d="M0,86.394l50.1,28.935V48.136L0,19.11Z" transform="translate(0 9.719)"/><path class="b" d="M33.21,48.1,83.326,19.18V86.358L33.21,115.293Z" transform="translate(16.891 9.755)"/><path class="c" d="M0,28.935,50.1,0l50.116,28.935L50.1,57.855Z"/><path class="d" d="M2.66,28.157,48.748,54.769,94.866,28.157,48.748,1.53Z" transform="translate(1.353 0.778)"/><path class="e" d="M50.1,85,0,56V67.571l50.1,29Z" transform="translate(0 28.482)"/><path class="f" d="M33.21,85,83.326,56V67.571l-50.116,29Z" transform="translate(16.891 28.482)"/><path class="g" d="M42.52,72.195V83.766l12.069-6.94V65.24Z" transform="translate(21.626 33.181)"/><path class="e" d="M39.86,88.566v-39.4L59.909,37.59v39.4Z" transform="translate(20.273 19.118)"/><path class="h" d="M42.52,49.13V83.918l12.069-6.94V42.19Z" transform="translate(21.626 21.458)"/><path class="e" d="M0,22.25,50.1,51.17v6.909L0,29.19Z" transform="translate(0 11.316)"/><path class="h" d="M33.21,58.079V51.14L83.326,22.25v6.94Z" transform="translate(16.891 11.316)"/><path class="h" d="M66.984,29.92l-1.644.935v6.94l1.644-.935Z" transform="translate(33.232 15.217)"/><path class="h" d="M67.846,31.15v6.94l-10.7,6.14V37.29Z" transform="translate(29.067 15.843)"/><path class="h" d="M56.5,35.94v6.94L54.49,44.041V37.1Z" transform="translate(27.714 18.279)"/><path class="e" d="M21.27,49.24l1.644.935v-6.94L21.27,42.3Z" transform="translate(10.818 21.514)"/><path class="e" d="M34.166,49.67v6.94l-10.7-6.14V43.53Z" transform="translate(11.937 22.14)"/><path class="e" d="M33.886,49.482v6.94L31.88,55.26V48.32Z" transform="translate(16.214 24.576)"/><path class="e" d="M10.53,43.13l1.644.935v-6.94L10.53,36.19Z" transform="translate(5.356 18.406)"/><path class="e" d="M23.431,43.57v6.94L12.72,44.34V37.4Z" transform="translate(6.469 19.022)"/><path class="e" d="M0,37.16l1.644.935v-6.94L0,30.22Z" transform="translate(0 15.37)"/><path class="e" d="M12.9,37.59v6.94L2.19,38.39V31.45Z" transform="translate(1.114 15.996)"/><path class="h" d="M37.876,46.89v6.94L35.87,54.991v-6.94Z" transform="translate(18.244 23.848)"/><path class="h" d="M35.216,55.27,33.21,56.431v-6.94l2.006-1.162Z" transform="translate(16.891 24.581)"/><path class="g" d="M34.54,77.18v2.308l6.034-3.47V73.68Z" transform="translate(17.567 37.474)"/><path class="g" d="M39.86,75.625V73.3l2.006-1.162v2.308Z" transform="translate(20.273 36.691)"/><path class="g" d="M34.54,80.22v2.308l6.034-3.47V76.75Z" transform="translate(17.567 39.035)"/><path class="g" d="M39.86,78.685V76.392l2.006-1.162v2.308Z" transform="translate(20.273 38.262)"/><path class="g" d="M51.59,67.55v2.308l6.034-3.47V64.08Z" transform="translate(26.239 32.591)"/><path class="g" d="M56.91,66.025V63.7l2.006-1.162v2.308Z" transform="translate(28.945 31.808)"/><path class="g" d="M51.59,70.62v2.338l6.034-3.47V67.15Z" transform="translate(26.239 34.153)"/><path class="g" d="M56.91,69.095V66.772l2.006-1.162v2.308Z" transform="translate(28.945 33.37)"/><path class="g" d="M59.16,63.155v2.308l6.034-3.47V59.73Z" transform="translate(30.089 30.379)"/><path class="g" d="M64.47,61.655V59.392l2.006-1.162v2.308Z" transform="translate(32.79 29.616)"/><path class="g" d="M59.16,66.27v2.308l6.034-3.47V62.8Z" transform="translate(30.089 31.94)"/><path class="g" d="M64.47,64.745V62.392l2.006-1.162V63.6Z" transform="translate(32.79 31.142)"/><path class="g" d="M27.84,73.68v2.308l6.034,3.47V77.18Z" transform="translate(14.16 37.474)"/><path class="g" d="M25.19,74.458V72.15L27.2,73.312V75.62Z" transform="translate(12.812 36.696)"/><path class="g" d="M27.84,76.75v2.308l6.034,3.47V80.22Z" transform="translate(14.16 39.035)"/><path class="g" d="M25.19,77.528V75.22L27.2,76.382V78.69Z" transform="translate(12.812 38.257)"/><path class="g" d="M20.28,69.33v2.308l6.034,3.47V72.8Z" transform="translate(10.315 35.262)"/><path class="g" d="M17.62,70.108V67.8l2.006,1.162V71.27Z" transform="translate(8.962 34.483)"/><path class="g" d="M20.28,72.4v2.308l6.034,3.47V75.87Z" transform="translate(10.315 36.823)"/><path class="g" d="M17.62,73.183V70.86l2.006,1.162V74.33Z" transform="translate(8.962 36.04)"/><path class="g" d="M12.28,64.73v2.308l6.034,3.47V68.155Z" transform="translate(6.246 32.922)"/><path class="g" d="M9.63,65.513V63.19L11.7,64.412V66.72Z" transform="translate(4.898 32.139)"/><path class="g" d="M12.28,67.8v2.308l6.034,3.47V71.27Z" transform="translate(6.246 34.483)"/><path class="g" d="M9.63,68.583V66.26L11.7,67.376v2.308Z" transform="translate(4.898 33.7)"/><path class="g" d="M4.72,60.38v2.308l6.034,3.47V63.85Z" transform="translate(2.401 30.71)"/><path class="g" d="M2.06,61.163V58.84L4.066,60V62.31Z" transform="translate(1.048 29.926)"/><path class="g" d="M4.72,63.44v2.353l6.034,3.47V66.925Z" transform="translate(2.401 32.266)"/><path class="g" d="M2.06,64.218V61.91l2.006,1.162V65.38Z" transform="translate(1.048 31.488)"/><path class="i" d="M52.708,44.79v6.94L43.43,57.055v-6.94Z" transform="translate(22.089 22.78)"/><path class="i" d="M52.708,50.42v6.909L43.43,62.655v-6.94Z" transform="translate(22.089 25.644)"/><path class="e" d="M52.708,59.63v6.94L43.43,71.895v-6.94Z" transform="translate(22.089 30.328)"/><path class="i" d="M45.512,63.549a4.526,4.526,0,0,0,2.067-3.59c0-1.328-.935-1.856-2.082-1.192h0a4.526,4.526,0,0,0-2.067,3.515C43.43,63.67,44.29,64.213,45.512,63.549Z" transform="translate(22.089 29.743)"/><path class="i" d="M48.917,61.471a4.526,4.526,0,0,0,2.067-3.59c0-1.328-.935-1.856-2.082-1.207h0a4.526,4.526,0,0,0-2.082,3.651C46.82,61.606,47.755,62.134,48.917,61.471Z" transform="translate(23.813 28.684)"/><path class="j" d="M0,28.935,50.1,0l50.116,28.935L50.1,57.855Z"/><path class="k" d="M33.22,48.1l50.1,38.258V19.18Z" transform="translate(16.896 9.755)"/></svg>